<?xml version="1.0" encoding="UTF-8" standalone="no"?>
<!DOCTYPE svg PUBLIC "-//W3C//DTD SVG 1.1//EN"
 "http://www.w3.org/Graphics/SVG/1.1/DTD/svg11.dtd">
<!-- Generated by graphviz version 3.0.0 (20220226.1711)
 -->
<!-- Title: dependency&#45;cruiser output Pages: 1 -->
<svg width="515pt" height="346pt"
 viewBox="0.00 0.00 515.00 346.00" xmlns="http://www.w3.org/2000/svg" xmlns:xlink="http://www.w3.org/1999/xlink">
<g id="graph0" class="graph" transform="scale(1 1) rotate(0) translate(4 342)">
<title>dependency&#45;cruiser output</title>
<polygon fill="white" stroke="transparent" points="-4,4 -4,-342 511,-342 511,4 -4,4"/>
<g id="clust1" class="cluster">
<title>cluster_src</title>
<path fill="#ffffff" stroke="black" stroke-width="2" d="M31.5,-8C31.5,-8 487,-8 487,-8 493,-8 499,-14 499,-20 499,-20 499,-258 499,-258 499,-264 493,-270 487,-270 487,-270 31.5,-270 31.5,-270 25.5,-270 19.5,-264 19.5,-258 19.5,-258 19.5,-20 19.5,-20 19.5,-14 25.5,-8 31.5,-8"/>
<text text-anchor="middle" x="259.25" y="-258.8" font-family="Helvetica,sans-Serif" font-weight="bold" font-size="9.00">src</text>
</g>
<g id="clust2" class="cluster">
<title>cluster_src/formatters</title>
<path fill="#ffffff" stroke="black" stroke-width="2" d="M151.5,-132C151.5,-132 479,-132 479,-132 485,-132 491,-138 491,-144 491,-144 491,-232 491,-232 491,-238 485,-244 479,-244 479,-244 151.5,-244 151.5,-244 145.5,-244 139.5,-238 139.5,-232 139.5,-232 139.5,-144 139.5,-144 139.5,-138 145.5,-132 151.5,-132"/>
<text text-anchor="middle" x="315.25" y="-232.8" font-family="Helvetica,sans-Serif" font-weight="bold" font-size="9.00">formatters</text>
</g>
<g id="clust3" class="cluster">
<title>cluster_types</title>
<path fill="#ffffff" stroke="black" stroke-width="2" d="M20,-278C20,-278 89,-278 89,-278 95,-278 101,-284 101,-290 101,-290 101,-318 101,-318 101,-324 95,-330 89,-330 89,-330 20,-330 20,-330 14,-330 8,-324 8,-318 8,-318 8,-290 8,-290 8,-284 14,-278 20,-278"/>
<text text-anchor="middle" x="54.5" y="-318.8" font-family="Helvetica,sans-Serif" font-weight="bold" font-size="9.00">types</text>
</g>
<!-- src/cli.mjs -->
<g id="node1" class="node">
<title>src/cli.mjs</title>
<g id="a_node1"><a xlink:href="vscode://file/${process.cwd()}/src/cli.mjs" xlink:title="cli.mjs">
<path fill="#ffffcc" stroke="black" d="M75.5,-94C75.5,-94 33.5,-94 33.5,-94 30.5,-94 27.5,-91 27.5,-88 27.5,-88 27.5,-82 27.5,-82 27.5,-79 30.5,-76 33.5,-76 33.5,-76 75.5,-76 75.5,-76 78.5,-76 81.5,-79 81.5,-82 81.5,-82 81.5,-88 81.5,-88 81.5,-91 78.5,-94 75.5,-94"/>
<text text-anchor="start" x="41.5" y="-82.8" font-family="Helvetica,sans-Serif" font-size="9.00">cli.mjs</text>
</a>
</g>
</g>
<!-- src/main.mjs -->
<g id="node2" class="node">
<title>src/main.mjs</title>
<g id="a_node2"><a xlink:href="vscode://file/${process.cwd()}/src/main.mjs" xlink:title="main.mjs">
<path fill="#ffffcc" stroke="black" d="M208.5,-64C208.5,-64 166.5,-64 166.5,-64 163.5,-64 160.5,-61 160.5,-58 160.5,-58 160.5,-52 160.5,-52 160.5,-49 163.5,-46 166.5,-46 166.5,-46 208.5,-46 208.5,-46 211.5,-46 214.5,-49 214.5,-52 214.5,-52 214.5,-58 214.5,-58 214.5,-61 211.5,-64 208.5,-64"/>
<text text-anchor="start" x="169" y="-52.8" font-family="Helvetica,sans-Serif" font-size="9.00">main.mjs</text>
</a>
</g>
</g>
<!-- src/cli.mjs&#45;&gt;src/main.mjs -->
<g id="edge1" class="edge">
<title>src/cli.mjs&#45;&gt;src/main.mjs</title>
<path fill="none" stroke="#000000" stroke-width="2" stroke-opacity="0.200000" d="M55,-75.84C55,-67.01 55,-55 55,-55 55,-55 154.37,-55 154.37,-55"/>
<polygon fill="#000000" fill-opacity="0.200000" stroke="#000000" stroke-width="2" stroke-opacity="0.200000" points="154.37,-57.1 160.37,-55 154.37,-52.9 154.37,-57.1"/>
</g>
<!-- src/version.mjs -->
<g id="node3" class="node">
<title>src/version.mjs</title>
<g id="a_node3"><a xlink:href="vscode://file/${process.cwd()}/src/version.mjs" xlink:title="version.mjs">
<path fill="#ffffcc" stroke="black" d="M213,-124C213,-124 162,-124 162,-124 159,-124 156,-121 156,-118 156,-118 156,-112 156,-112 156,-109 159,-106 162,-106 162,-106 213,-106 213,-106 216,-106 219,-109 219,-112 219,-112 219,-118 219,-118 219,-121 216,-124 213,-124"/>
<text text-anchor="start" x="164" y="-112.8" font-family="Helvetica,sans-Serif" font-size="9.00">version.mjs</text>
</a>
</g>
</g>
<!-- src/cli.mjs&#45;&gt;src/version.mjs -->
<g id="edge2" class="edge">
<title>src/cli.mjs&#45;&gt;src/version.mjs</title>
<path fill="none" stroke="#000000" stroke-width="2" stroke-opacity="0.200000" d="M55,-94.16C55,-102.99 55,-115 55,-115 55,-115 149.76,-115 149.76,-115"/>
<polygon fill="#000000" fill-opacity="0.200000" stroke="#000000" stroke-width="2" stroke-opacity="0.200000" points="149.76,-117.1 155.76,-115 149.76,-112.9 149.76,-117.1"/>
</g>
<!-- src/convert&#45;to&#45;change&#45;object.mjs -->
<g id="node4" class="node">
<title>src/convert&#45;to&#45;change&#45;object.mjs</title>
<g id="a_node4"><a xlink:href="vscode://file/${process.cwd()}/src/convert-to-change-object.mjs" xlink:title="convert&#45;to&#45;change&#45;object.mjs">
<path fill="#ffffcc" stroke="black" d="M408,-49C408,-49 285,-49 285,-49 282,-49 279,-46 279,-43 279,-43 279,-37 279,-37 279,-34 282,-31 285,-31 285,-31 408,-31 408,-31 411,-31 414,-34 414,-37 414,-37 414,-43 414,-43 414,-46 411,-49 408,-49"/>
<text text-anchor="start" x="287" y="-37.8" font-family="Helvetica,sans-Serif" font-size="9.00">convert&#45;to&#45;change&#45;object.mjs</text>
</a>
</g>
</g>
<!-- src/main.mjs&#45;&gt;src/convert&#45;to&#45;change&#45;object.mjs -->
<g id="edge10" class="edge">
<title>src/main.mjs&#45;&gt;src/convert&#45;to&#45;change&#45;object.mjs</title>
<path fill="none" stroke="#000000" stroke-width="2" stroke-opacity="0.200000" d="M214.68,-54C245.65,-54 292,-54 292,-54 292,-54 292,-53.53 292,-53.53"/>
<polygon fill="#000000" fill-opacity="0.200000" stroke="#000000" stroke-width="2" stroke-opacity="0.200000" points="294.1,-55.26 292,-49.26 289.9,-55.26 294.1,-55.26"/>
</g>
<!-- src/formatters/format.mjs -->
<g id="node6" class="node">
<title>src/formatters/format.mjs</title>
<g id="a_node6"><a xlink:href="vscode://file/${process.cwd()}/src/formatters/format.mjs" xlink:title="format.mjs">
<path fill="#ffffcc" stroke="black" d="M370,-188C370,-188 323,-188 323,-188 320,-188 317,-185 317,-182 317,-182 317,-176 317,-176 317,-173 320,-170 323,-170 323,-170 370,-170 370,-170 373,-170 376,-173 376,-176 376,-176 376,-182 376,-182 376,-185 373,-188 370,-188"/>
<text text-anchor="start" x="325" y="-176.8" font-family="Helvetica,sans-Serif" font-size="9.00">format.mjs</text>
</a>
</g>
</g>
<!-- src/main.mjs&#45;&gt;src/formatters/format.mjs -->
<g id="edge11" class="edge">
<title>src/main.mjs&#45;&gt;src/formatters/format.mjs</title>
<path fill="none" stroke="#000000" stroke-width="2" stroke-opacity="0.200000" d="M214.73,-59C231.57,-59 250,-59 250,-59 250,-59 250,-176 250,-176 250,-176 310.76,-176 310.76,-176"/>
<polygon fill="#000000" fill-opacity="0.200000" stroke="#000000" stroke-width="2" stroke-opacity="0.200000" points="310.76,-178.1 316.76,-176 310.76,-173.9 310.76,-178.1"/>
</g>
<!-- src/git&#45;primitives.mjs -->
<g id="node12" class="node">
<title>src/git&#45;primitives.mjs</title>
<g id="a_node12"><a xlink:href="vscode://file/${process.cwd()}/src/git-primitives.mjs" xlink:title="git&#45;primitives.mjs">
<path fill="#ffffcc" stroke="black" d="M383,-86C383,-86 310,-86 310,-86 307,-86 304,-83 304,-80 304,-80 304,-74 304,-74 304,-71 307,-68 310,-68 310,-68 383,-68 383,-68 386,-68 389,-71 389,-74 389,-74 389,-80 389,-80 389,-83 386,-86 383,-86"/>
<text text-anchor="start" x="312" y="-74.8" font-family="Helvetica,sans-Serif" font-size="9.00">git&#45;primitives.mjs</text>
</a>
</g>
</g>
<!-- src/main.mjs&#45;&gt;src/git&#45;primitives.mjs -->
<g id="edge12" class="edge">
<title>src/main.mjs&#45;&gt;src/git&#45;primitives.mjs</title>
<path fill="none" stroke="#000000" stroke-width="2" stroke-opacity="0.200000" d="M188,-64.3C188,-68.26 188,-72 188,-72 188,-72 297.61,-72 297.61,-72"/>
<polygon fill="#000000" fill-opacity="0.200000" stroke="#000000" stroke-width="2" stroke-opacity="0.200000" points="297.61,-74.1 303.61,-72 297.61,-69.9 297.61,-74.1"/>
</g>
<!-- src/convert&#45;to&#45;change&#45;object.spec.mjs -->
<g id="node5" class="node">
<title>src/convert&#45;to&#45;change&#45;object.spec.mjs</title>
<g id="a_node5"><a xlink:href="vscode://file/${process.cwd()}/src/convert-to-change-object.spec.mjs" xlink:title="convert&#45;to&#45;change&#45;object.spec.mjs">
<path fill="#ccccff" stroke="black" d="M260,-34C260,-34 115,-34 115,-34 112,-34 109,-31 109,-28 109,-28 109,-22 109,-22 109,-19 112,-16 115,-16 115,-16 260,-16 260,-16 263,-16 266,-19 266,-22 266,-22 266,-28 266,-28 266,-31 263,-34 260,-34"/>
<text text-anchor="start" x="117" y="-22.8" font-family="Helvetica,sans-Serif" font-size="9.00">convert&#45;to&#45;change&#45;object.spec.mjs</text>
</a>
</g>
</g>
<!-- src/convert&#45;to&#45;change&#45;object.spec.mjs&#45;&gt;src/convert&#45;to&#45;change&#45;object.mjs -->
<g id="edge3" class="edge">
<title>src/convert&#45;to&#45;change&#45;object.spec.mjs&#45;&gt;src/convert&#45;to&#45;change&#45;object.mjs</title>
<path fill="none" stroke="#000000" stroke-width="2" stroke-opacity="0.200000" d="M258,-34.24C258,-37.33 258,-40 258,-40 258,-40 272.97,-40 272.97,-40"/>
<polygon fill="#000000" fill-opacity="0.200000" stroke="#000000" stroke-width="2" stroke-opacity="0.200000" points="272.97,-42.1 278.97,-40 272.97,-37.9 272.97,-42.1"/>
</g>
<!-- src/formatters/json.mjs -->
<g id="node7" class="node">
<title>src/formatters/json.mjs</title>
<g id="a_node7"><a xlink:href="vscode://file/${process.cwd()}/src/formatters/json.mjs" xlink:title="json.mjs">
<path fill="#ffffcc" stroke="black" d="M476,-173C476,-173 434,-173 434,-173 431,-173 428,-170 428,-167 428,-167 428,-161 428,-161 428,-158 431,-155 434,-155 434,-155 476,-155 476,-155 479,-155 482,-158 482,-161 482,-161 482,-167 482,-167 482,-170 479,-173 476,-173"/>
<text text-anchor="start" x="438" y="-161.8" font-family="Helvetica,sans-Serif" font-size="9.00">json.mjs</text>
</a>
</g>
</g>
<!-- src/formatters/format.mjs&#45;&gt;src/formatters/json.mjs -->
<g id="edge4" class="edge">
<title>src/formatters/format.mjs&#45;&gt;src/formatters/json.mjs</title>
<path fill="none" stroke="#000000" stroke-width="2" stroke-opacity="0.200000" d="M376.15,-180.5C408.27,-180.5 455,-180.5 455,-180.5 455,-180.5 455,-179.02 455,-179.02"/>
<polygon fill="#000000" fill-opacity="0.200000" stroke="#000000" stroke-width="2" stroke-opacity="0.200000" points="457.1,-179.02 455,-173.02 452.9,-179.02 457.1,-179.02"/>
</g>
<!-- src/formatters/regex.mjs -->
<g id="node8" class="node">
<title>src/formatters/regex.mjs</title>
<g id="a_node8"><a xlink:href="vscode://file/${process.cwd()}/src/formatters/regex.mjs" xlink:title="regex.mjs">
<path fill="#ffffcc" stroke="black" d="M477,-210C477,-210 433,-210 433,-210 430,-210 427,-207 427,-204 427,-204 427,-198 427,-198 427,-195 430,-192 433,-192 433,-192 477,-192 477,-192 480,-192 483,-195 483,-198 483,-198 483,-204 483,-204 483,-207 480,-210 477,-210"/>
<text text-anchor="start" x="435" y="-198.8" font-family="Helvetica,sans-Serif" font-size="9.00">regex.mjs</text>
</a>
</g>
</g>
<!-- src/formatters/format.mjs&#45;&gt;src/formatters/regex.mjs -->
<g id="edge5" class="edge">
<title>src/formatters/format.mjs&#45;&gt;src/formatters/regex.mjs</title>
<path fill="none" stroke="#000000" stroke-width="2" stroke-opacity="0.200000" d="M347,-188.3C347,-192.26 347,-196 347,-196 347,-196 420.91,-196 420.91,-196"/>
<polygon fill="#000000" fill-opacity="0.200000" stroke="#000000" stroke-width="2" stroke-opacity="0.200000" points="420.91,-198.1 426.91,-196 420.91,-193.9 420.91,-198.1"/>
</g>
<!-- src/formatters/format.spec.mjs -->
<g id="node9" class="node">
<title>src/formatters/format.spec.mjs</title>
<g id="a_node9"><a xlink:href="vscode://file/${process.cwd()}/src/formatters/format.spec.mjs" xlink:title="format.spec.mjs">
<path fill="#ccccff" stroke="black" d="M221.5,-188C221.5,-188 153.5,-188 153.5,-188 150.5,-188 147.5,-185 147.5,-182 147.5,-182 147.5,-176 147.5,-176 147.5,-173 150.5,-170 153.5,-170 153.5,-170 221.5,-170 221.5,-170 224.5,-170 227.5,-173 227.5,-176 227.5,-176 227.5,-182 227.5,-182 227.5,-185 224.5,-188 221.5,-188"/>
<text text-anchor="start" x="155.5" y="-176.8" font-family="Helvetica,sans-Serif" font-size="9.00">format.spec.mjs</text>
</a>
</g>
</g>
<!-- src/formatters/format.spec.mjs&#45;&gt;src/formatters/format.mjs -->
<g id="edge6" class="edge">
<title>src/formatters/format.spec.mjs&#45;&gt;src/formatters/format.mjs</title>
<path fill="none" stroke="#000000" stroke-width="2" stroke-opacity="0.200000" d="M227.62,-182C227.62,-182 310.93,-182 310.93,-182"/>
<polygon fill="#000000" fill-opacity="0.200000" stroke="#000000" stroke-width="2" stroke-opacity="0.200000" points="310.93,-184.1 316.93,-182 310.93,-179.9 310.93,-184.1"/>
</g>
<!-- src/formatters/json.spec.mjs -->
<g id="node10" class="node">
<title>src/formatters/json.spec.mjs</title>
<g id="a_node10"><a xlink:href="vscode://file/${process.cwd()}/src/formatters/json.spec.mjs" xlink:title="json.spec.mjs">
<path fill="#ccccff" stroke="black" d="M376.5,-158C376.5,-158 316.5,-158 316.5,-158 313.5,-158 310.5,-155 310.5,-152 310.5,-152 310.5,-146 310.5,-146 310.5,-143 313.5,-140 316.5,-140 316.5,-140 376.5,-140 376.5,-140 379.5,-140 382.5,-143 382.5,-146 382.5,-146 382.5,-152 382.5,-152 382.5,-155 379.5,-158 376.5,-158"/>
<text text-anchor="start" x="318.5" y="-146.8" font-family="Helvetica,sans-Serif" font-size="9.00">json.spec.mjs</text>
</a>
</g>
</g>
<!-- src/formatters/json.spec.mjs&#45;&gt;src/formatters/json.mjs -->
<g id="edge7" class="edge">
<title>src/formatters/json.spec.mjs&#45;&gt;src/formatters/json.mjs</title>
<path fill="none" stroke="#000000" stroke-width="2" stroke-opacity="0.200000" d="M382.63,-147.5C414.19,-147.5 455,-147.5 455,-147.5 455,-147.5 455,-148.98 455,-148.98"/>
<polygon fill="#000000" fill-opacity="0.200000" stroke="#000000" stroke-width="2" stroke-opacity="0.200000" points="452.9,-148.98 455,-154.98 457.1,-148.98 452.9,-148.98"/>
</g>
<!-- src/formatters/regex.spec.mjs -->
<g id="node11" class="node">
<title>src/formatters/regex.spec.mjs</title>
<g id="a_node11"><a xlink:href="vscode://file/${process.cwd()}/src/formatters/regex.spec.mjs" xlink:title="regex.spec.mjs">
<path fill="#ccccff" stroke="black" d="M379.5,-218C379.5,-218 313.5,-218 313.5,-218 310.5,-218 307.5,-215 307.5,-212 307.5,-212 307.5,-206 307.5,-206 307.5,-203 310.5,-200 313.5,-200 313.5,-200 379.5,-200 379.5,-200 382.5,-200 385.5,-203 385.5,-206 385.5,-206 385.5,-212 385.5,-212 385.5,-215 382.5,-218 379.5,-218"/>
<text text-anchor="start" x="315.5" y="-206.8" font-family="Helvetica,sans-Serif" font-size="9.00">regex.spec.mjs</text>
</a>
</g>
</g>
<!-- src/formatters/regex.spec.mjs&#45;&gt;src/formatters/regex.mjs -->
<g id="edge8" class="edge">
<title>src/formatters/regex.spec.mjs&#45;&gt;src/formatters/regex.mjs</title>
<path fill="none" stroke="#000000" stroke-width="2" stroke-opacity="0.200000" d="M385.67,-205C385.67,-205 420.78,-205 420.78,-205"/>
<polygon fill="#000000" fill-opacity="0.200000" stroke="#000000" stroke-width="2" stroke-opacity="0.200000" points="420.78,-207.1 426.78,-205 420.78,-202.9 420.78,-207.1"/>
</g>
<!-- src/git&#45;primitives.spec.mjs -->
<g id="node13" class="node">
<title>src/git&#45;primitives.spec.mjs</title>
<g id="a_node13"><a xlink:href="vscode://file/${process.cwd()}/src/git-primitives.spec.mjs" xlink:title="git&#45;primitives.spec.mjs">
<path fill="#ccccff" stroke="black" d="M235,-94C235,-94 140,-94 140,-94 137,-94 134,-91 134,-88 134,-88 134,-82 134,-82 134,-79 137,-76 140,-76 140,-76 235,-76 235,-76 238,-76 241,-79 241,-82 241,-82 241,-88 241,-88 241,-91 238,-94 235,-94"/>
<text text-anchor="start" x="142" y="-82.8" font-family="Helvetica,sans-Serif" font-size="9.00">git&#45;primitives.spec.mjs</text>
</a>
</g>
</g>
<!-- src/git&#45;primitives.spec.mjs&#45;&gt;src/git&#45;primitives.mjs -->
<g id="edge9" class="edge">
<title>src/git&#45;primitives.spec.mjs&#45;&gt;src/git&#45;primitives.mjs</title>
<path fill="none" stroke="#000000" stroke-width="2" stroke-opacity="0.200000" d="M241.33,-81C241.33,-81 297.77,-81 297.77,-81"/>
<polygon fill="#000000" fill-opacity="0.200000" stroke="#000000" stroke-width="2" stroke-opacity="0.200000" points="297.77,-83.1 303.77,-81 297.77,-78.9 297.77,-83.1"/>
</g>
<!-- types/watskeburt.d.ts -->
<g id="node14" class="node">
<title>types/watskeburt.d.ts</title>
<g id="a_node14"><a xlink:href="vscode://file/${process.cwd()}/types/watskeburt.d.ts" xlink:title="watskeburt.d.ts">
<path fill="#ccffcc" stroke="black" d="M87,-304C87,-304 22,-304 22,-304 19,-304 16,-301 16,-298 16,-298 16,-292 16,-292 16,-289 19,-286 22,-286 22,-286 87,-286 87,-286 90,-286 93,-289 93,-292 93,-292 93,-298 93,-298 93,-301 90,-304 87,-304"/>
<text text-anchor="start" x="24" y="-292.8" font-family="Helvetica,sans-Serif" font-size="9.00">watskeburt.d.ts</text>
</a>
</g>
</g>
</g>
</svg>
