<?xml version="1.0" encoding="UTF-8" standalone="no"?>
<!DOCTYPE svg PUBLIC "-//W3C//DTD SVG 1.1//EN"
 "http://www.w3.org/Graphics/SVG/1.1/DTD/svg11.dtd">
<!-- Generated by graphviz version 8.0.1 (20230327.1645)
 -->
<!-- Title: dependency&#45;cruiser output Pages: 1 -->
<svg width="569pt" height="652pt"
 viewBox="0.00 0.00 568.50 652.00" xmlns="http://www.w3.org/2000/svg" xmlns:xlink="http://www.w3.org/1999/xlink">
<g id="graph0" class="graph" transform="scale(1 1) rotate(0) translate(4 648)">
<title>dependency&#45;cruiser output</title>
<polygon fill="white" stroke="none" points="-4,4 -4,-648 564.5,-648 564.5,4 -4,4"/>
<g id="clust1" class="cluster">
<title>cluster_bin</title>
<path fill="#ffffff" stroke="black" stroke-width="2" d="M67.5,-248C67.5,-248 266,-248 266,-248 272,-248 278,-254 278,-260 278,-260 278,-288 278,-288 278,-294 272,-300 266,-300 266,-300 67.5,-300 67.5,-300 61.5,-300 55.5,-294 55.5,-288 55.5,-288 55.5,-260 55.5,-260 55.5,-254 61.5,-248 67.5,-248"/>
<text text-anchor="middle" x="166.75" y="-288.8" font-family="Helvetica,sans-Serif" font-weight="bold" font-size="9.00">bin</text>
</g>
<g id="clust2" class="cluster">
<title>cluster_dist</title>
<path fill="#ffffff" stroke="black" stroke-width="2" d="M211,-8C211,-8 540.5,-8 540.5,-8 546.5,-8 552.5,-14 552.5,-20 552.5,-20 552.5,-228 552.5,-228 552.5,-234 546.5,-240 540.5,-240 540.5,-240 211,-240 211,-240 205,-240 199,-234 199,-228 199,-228 199,-20 199,-20 199,-14 205,-8 211,-8"/>
<text text-anchor="middle" x="375.75" y="-228.8" font-family="Helvetica,sans-Serif" font-weight="bold" font-size="9.00">dist</text>
</g>
<g id="clust3" class="cluster">
<title>cluster_dist/esm</title>
<path fill="#ffffff" stroke="black" stroke-width="2" d="M219,-16C219,-16 532.5,-16 532.5,-16 538.5,-16 544.5,-22 544.5,-28 544.5,-28 544.5,-202 544.5,-202 544.5,-208 538.5,-214 532.5,-214 532.5,-214 219,-214 219,-214 213,-214 207,-208 207,-202 207,-202 207,-28 207,-28 207,-22 213,-16 219,-16"/>
<text text-anchor="middle" x="375.75" y="-202.8" font-family="Helvetica,sans-Serif" font-weight="bold" font-size="9.00">esm</text>
</g>
<g id="clust4" class="cluster">
<title>cluster_dist/esm/formatters</title>
<path fill="#ffffff" stroke="black" stroke-width="2" d="M360,-50C360,-50 524.5,-50 524.5,-50 530.5,-50 536.5,-56 536.5,-62 536.5,-62 536.5,-120 536.5,-120 536.5,-126 530.5,-132 524.5,-132 524.5,-132 360,-132 360,-132 354,-132 348,-126 348,-120 348,-120 348,-62 348,-62 348,-56 354,-50 360,-50"/>
<text text-anchor="middle" x="442.25" y="-120.8" font-family="Helvetica,sans-Serif" font-weight="bold" font-size="9.00">formatters</text>
</g>
<g id="clust5" class="cluster">
<title>cluster_src</title>
<path fill="#ffffff" stroke="black" stroke-width="2" d="M20,-374C20,-374 414,-374 414,-374 420,-374 426,-380 426,-386 426,-386 426,-624 426,-624 426,-630 420,-636 414,-636 414,-636 20,-636 20,-636 14,-636 8,-630 8,-624 8,-624 8,-386 8,-386 8,-380 14,-374 20,-374"/>
<text text-anchor="middle" x="217" y="-624.8" font-family="Helvetica,sans-Serif" font-weight="bold" font-size="9.00">src</text>
</g>
<g id="clust6" class="cluster">
<title>cluster_src/formatters</title>
<path fill="#ffffff" stroke="black" stroke-width="2" d="M58,-382C58,-382 406,-382 406,-382 412,-382 418,-388 418,-394 418,-394 418,-482 418,-482 418,-488 412,-494 406,-494 406,-494 58,-494 58,-494 52,-494 46,-488 46,-482 46,-482 46,-394 46,-394 46,-388 52,-382 58,-382"/>
<text text-anchor="middle" x="232" y="-482.8" font-family="Helvetica,sans-Serif" font-weight="bold" font-size="9.00">formatters</text>
</g>
<g id="clust7" class="cluster">
<title>cluster_types</title>
<path fill="#ffffff" stroke="black" stroke-width="2" d="M467,-350C467,-350 536,-350 536,-350 542,-350 548,-356 548,-362 548,-362 548,-390 548,-390 548,-396 542,-402 536,-402 536,-402 467,-402 467,-402 461,-402 455,-396 455,-390 455,-390 455,-362 455,-362 455,-356 461,-350 467,-350"/>
<text text-anchor="middle" x="501.5" y="-390.8" font-family="Helvetica,sans-Serif" font-weight="bold" font-size="9.00">types</text>
</g>
<!-- bin/cli.js -->
<g id="node1" class="node">
<title>bin/cli.js</title>
<g id="a_node1"><a xlink:href="vscode://file/${process.cwd()}/bin/cli.js" xlink:title="cli.js">
<path fill="#ffffcc" stroke="black" d="M111.5,-274C111.5,-274 69.5,-274 69.5,-274 66.5,-274 63.5,-271 63.5,-268 63.5,-268 63.5,-262 63.5,-262 63.5,-259 66.5,-256 69.5,-256 69.5,-256 111.5,-256 111.5,-256 114.5,-256 117.5,-259 117.5,-262 117.5,-262 117.5,-268 117.5,-268 117.5,-271 114.5,-274 111.5,-274"/>
<text text-anchor="start" x="81" y="-262.8" font-family="Helvetica,sans-Serif" font-size="9.00">cli.js</text>
</a>
</g>
</g>
<!-- dist/esm/main.js -->
<g id="node2" class="node">
<title>dist/esm/main.js</title>
<g id="a_node2"><a xlink:href="vscode://file/${process.cwd()}/dist/esm/main.js" xlink:title="main.js">
<path fill="#ffffcc" stroke="black" d="M263,-158C263,-158 221,-158 221,-158 218,-158 215,-155 215,-152 215,-152 215,-146 215,-146 215,-143 218,-140 221,-140 221,-140 263,-140 263,-140 266,-140 269,-143 269,-146 269,-146 269,-152 269,-152 269,-155 266,-158 263,-158"/>
<text text-anchor="start" x="227" y="-146.8" font-family="Helvetica,sans-Serif" font-size="9.00">main.js</text>
</a>
</g>
</g>
<!-- bin/cli.js&#45;&gt;dist/esm/main.js -->
<g id="edge1" class="edge">
<title>bin/cli.js&#45;&gt;dist/esm/main.js</title>
<path fill="none" stroke="#000000" stroke-width="2" stroke-opacity="0.200000" d="M90.5,-255.51C90.5,-227.8 90.5,-149 90.5,-149 90.5,-149 205.56,-149 205.56,-149"/>
<polygon fill="#000000" fill-opacity="0.200000" stroke="#000000" stroke-width="2" stroke-opacity="0.200000" points="205.56,-151.1 211.56,-149 205.56,-146.9 205.56,-151.1"/>
</g>
<!-- bin/version.js -->
<g id="node3" class="node">
<title>bin/version.js</title>
<g id="a_node3"><a xlink:href="vscode://file/${process.cwd()}/bin/version.js" xlink:title="version.js">
<path fill="#ffffcc" stroke="black" d="M264,-274C264,-274 220,-274 220,-274 217,-274 214,-271 214,-268 214,-268 214,-262 214,-262 214,-259 217,-256 220,-256 220,-256 264,-256 264,-256 267,-256 270,-259 270,-262 270,-262 270,-268 270,-268 270,-271 267,-274 264,-274"/>
<text text-anchor="start" x="222" y="-262.8" font-family="Helvetica,sans-Serif" font-size="9.00">version.js</text>
</a>
</g>
</g>
<!-- bin/cli.js&#45;&gt;bin/version.js -->
<g id="edge2" class="edge">
<title>bin/cli.js&#45;&gt;bin/version.js</title>
<path fill="none" stroke="#000000" stroke-width="2" stroke-opacity="0.200000" d="M117.94,-265C117.94,-265 204.74,-265 204.74,-265"/>
<polygon fill="#000000" fill-opacity="0.200000" stroke="#000000" stroke-width="2" stroke-opacity="0.200000" points="204.74,-267.1 210.74,-265 204.74,-262.9 204.74,-267.1"/>
</g>
<!-- dist/esm/convert&#45;to&#45;change&#45;object.js -->
<g id="node4" class="node">
<title>dist/esm/convert&#45;to&#45;change&#45;object.js</title>
<g id="a_node4"><a xlink:href="vscode://file/${process.cwd()}/dist/esm/convert-to-change-object.js" xlink:title="convert&#45;to&#45;change&#45;object.js">
<path fill="#ffffcc" stroke="black" d="M441,-42C441,-42 325,-42 325,-42 322,-42 319,-39 319,-36 319,-36 319,-30 319,-30 319,-27 322,-24 325,-24 325,-24 441,-24 441,-24 444,-24 447,-27 447,-30 447,-30 447,-36 447,-36 447,-39 444,-42 441,-42"/>
<text text-anchor="start" x="327" y="-30.8" font-family="Helvetica,sans-Serif" font-size="9.00">convert&#45;to&#45;change&#45;object.js</text>
</a>
</g>
</g>
<!-- dist/esm/main.js&#45;&gt;dist/esm/convert&#45;to&#45;change&#45;object.js -->
<g id="edge5" class="edge">
<title>dist/esm/main.js&#45;&gt;dist/esm/convert&#45;to&#45;change&#45;object.js</title>
<path fill="none" stroke="#000000" stroke-width="2" stroke-opacity="0.200000" d="M269.2,-146C293.9,-146 326.5,-146 326.5,-146 326.5,-146 326.5,-51.25 326.5,-51.25"/>
<polygon fill="#000000" fill-opacity="0.200000" stroke="#000000" stroke-width="2" stroke-opacity="0.200000" points="328.6,-51.25 326.5,-45.25 324.4,-51.25 328.6,-51.25"/>
</g>
<!-- dist/esm/formatters/format.js -->
<g id="node5" class="node">
<title>dist/esm/formatters/format.js</title>
<g id="a_node5"><a xlink:href="vscode://file/${process.cwd()}/dist/esm/formatters/format.js" xlink:title="format.js">
<path fill="#ffffcc" stroke="black" d="M404,-106C404,-106 362,-106 362,-106 359,-106 356,-103 356,-100 356,-100 356,-94 356,-94 356,-91 359,-88 362,-88 362,-88 404,-88 404,-88 407,-88 410,-91 410,-94 410,-94 410,-100 410,-100 410,-103 407,-106 404,-106"/>
<text text-anchor="start" x="365.5" y="-94.8" font-family="Helvetica,sans-Serif" font-size="9.00">format.js</text>
</a>
</g>
</g>
<!-- dist/esm/main.js&#45;&gt;dist/esm/formatters/format.js -->
<g id="edge6" class="edge">
<title>dist/esm/main.js&#45;&gt;dist/esm/formatters/format.js</title>
<path fill="none" stroke="#000000" stroke-width="2" stroke-opacity="0.200000" d="M242.5,-139.94C242.5,-125.04 242.5,-97 242.5,-97 242.5,-97 346.58,-97 346.58,-97"/>
<polygon fill="#000000" fill-opacity="0.200000" stroke="#000000" stroke-width="2" stroke-opacity="0.200000" points="346.58,-99.1 352.58,-97 346.58,-94.9 346.58,-99.1"/>
</g>
<!-- dist/esm/git&#45;primitives&#45;sync.js -->
<g id="node8" class="node">
<title>dist/esm/git&#45;primitives&#45;sync.js</title>
<g id="a_node8"><a xlink:href="vscode://file/${process.cwd()}/dist/esm/git-primitives-sync.js" xlink:title="git&#45;primitives&#45;sync.js">
<path fill="#ffffcc" stroke="black" d="M426.5,-158C426.5,-158 339.5,-158 339.5,-158 336.5,-158 333.5,-155 333.5,-152 333.5,-152 333.5,-146 333.5,-146 333.5,-143 336.5,-140 339.5,-140 339.5,-140 426.5,-140 426.5,-140 429.5,-140 432.5,-143 432.5,-146 432.5,-146 432.5,-152 432.5,-152 432.5,-155 429.5,-158 426.5,-158"/>
<text text-anchor="start" x="341.5" y="-146.8" font-family="Helvetica,sans-Serif" font-size="9.00">git&#45;primitives&#45;sync.js</text>
</a>
</g>
</g>
<!-- dist/esm/main.js&#45;&gt;dist/esm/git&#45;primitives&#45;sync.js -->
<g id="edge7" class="edge">
<title>dist/esm/main.js&#45;&gt;dist/esm/git&#45;primitives&#45;sync.js</title>
<path fill="none" stroke="#000000" stroke-width="2" stroke-opacity="0.200000" d="M269.19,-152C269.19,-152 324.07,-152 324.07,-152"/>
<polygon fill="#000000" fill-opacity="0.200000" stroke="#000000" stroke-width="2" stroke-opacity="0.200000" points="324.07,-154.1 330.07,-152 324.07,-149.9 324.07,-154.1"/>
</g>
<!-- dist/esm/git&#45;primitives.js -->
<g id="node9" class="node">
<title>dist/esm/git&#45;primitives.js</title>
<g id="a_node9"><a xlink:href="vscode://file/${process.cwd()}/dist/esm/git-primitives.js" xlink:title="git&#45;primitives.js">
<path fill="#ffffcc" stroke="black" d="M415.5,-188C415.5,-188 350.5,-188 350.5,-188 347.5,-188 344.5,-185 344.5,-182 344.5,-182 344.5,-176 344.5,-176 344.5,-173 347.5,-170 350.5,-170 350.5,-170 415.5,-170 415.5,-170 418.5,-170 421.5,-173 421.5,-176 421.5,-176 421.5,-182 421.5,-182 421.5,-185 418.5,-188 415.5,-188"/>
<text text-anchor="start" x="352.5" y="-176.8" font-family="Helvetica,sans-Serif" font-size="9.00">git&#45;primitives.js</text>
</a>
</g>
</g>
<!-- dist/esm/main.js&#45;&gt;dist/esm/git&#45;primitives.js -->
<g id="edge8" class="edge">
<title>dist/esm/main.js&#45;&gt;dist/esm/git&#45;primitives.js</title>
<path fill="none" stroke="#000000" stroke-width="2" stroke-opacity="0.200000" d="M242.5,-158.49C242.5,-167.28 242.5,-179 242.5,-179 242.5,-179 335.24,-179 335.24,-179"/>
<polygon fill="#000000" fill-opacity="0.200000" stroke="#000000" stroke-width="2" stroke-opacity="0.200000" points="335.24,-181.1 341.24,-179 335.24,-176.9 335.24,-181.1"/>
</g>
<!-- dist/esm/formatters/json.js -->
<g id="node6" class="node">
<title>dist/esm/formatters/json.js</title>
<g id="a_node6"><a xlink:href="vscode://file/${process.cwd()}/dist/esm/formatters/json.js" xlink:title="json.js">
<path fill="#ffffcc" stroke="black" d="M522.5,-76C522.5,-76 480.5,-76 480.5,-76 477.5,-76 474.5,-73 474.5,-70 474.5,-70 474.5,-64 474.5,-64 474.5,-61 477.5,-58 480.5,-58 480.5,-58 522.5,-58 522.5,-58 525.5,-58 528.5,-61 528.5,-64 528.5,-64 528.5,-70 528.5,-70 528.5,-73 525.5,-76 522.5,-76"/>
<text text-anchor="start" x="488" y="-64.8" font-family="Helvetica,sans-Serif" font-size="9.00">json.js</text>
</a>
</g>
</g>
<!-- dist/esm/formatters/format.js&#45;&gt;dist/esm/formatters/json.js -->
<g id="edge3" class="edge">
<title>dist/esm/formatters/format.js&#45;&gt;dist/esm/formatters/json.js</title>
<path fill="none" stroke="#000000" stroke-width="2" stroke-opacity="0.200000" d="M383.5,-87.51C383.5,-78.72 383.5,-67 383.5,-67 383.5,-67 465.13,-67 465.13,-67"/>
<polygon fill="#000000" fill-opacity="0.200000" stroke="#000000" stroke-width="2" stroke-opacity="0.200000" points="465.13,-69.1 471.13,-67 465.13,-64.9 465.13,-69.1"/>
</g>
<!-- dist/esm/formatters/regex.js -->
<g id="node7" class="node">
<title>dist/esm/formatters/regex.js</title>
<g id="a_node7"><a xlink:href="vscode://file/${process.cwd()}/dist/esm/formatters/regex.js" xlink:title="regex.js">
<path fill="#ffffcc" stroke="black" d="M522.5,-106C522.5,-106 480.5,-106 480.5,-106 477.5,-106 474.5,-103 474.5,-100 474.5,-100 474.5,-94 474.5,-94 474.5,-91 477.5,-88 480.5,-88 480.5,-88 522.5,-88 522.5,-88 525.5,-88 528.5,-91 528.5,-94 528.5,-94 528.5,-100 528.5,-100 528.5,-103 525.5,-106 522.5,-106"/>
<text text-anchor="start" x="485" y="-94.8" font-family="Helvetica,sans-Serif" font-size="9.00">regex.js</text>
</a>
</g>
</g>
<!-- dist/esm/formatters/format.js&#45;&gt;dist/esm/formatters/regex.js -->
<g id="edge4" class="edge">
<title>dist/esm/formatters/format.js&#45;&gt;dist/esm/formatters/regex.js</title>
<path fill="none" stroke="#000000" stroke-width="2" stroke-opacity="0.200000" d="M410.48,-97C410.48,-97 465.16,-97 465.16,-97"/>
<polygon fill="#000000" fill-opacity="0.200000" stroke="#000000" stroke-width="2" stroke-opacity="0.200000" points="465.16,-99.1 471.16,-97 465.16,-94.9 465.16,-99.1"/>
</g>
<!-- src/convert&#45;to&#45;change&#45;object.spec.ts -->
<g id="node10" class="node">
<title>src/convert&#45;to&#45;change&#45;object.spec.ts</title>
<g id="a_node10"><a xlink:href="vscode://file/${process.cwd()}/src/convert-to-change-object.spec.ts" xlink:title="convert&#45;to&#45;change&#45;object.spec.ts">
<path fill="#ccccff" stroke="black" d="M159,-610C159,-610 22,-610 22,-610 19,-610 16,-607 16,-604 16,-604 16,-598 16,-598 16,-595 19,-592 22,-592 22,-592 159,-592 159,-592 162,-592 165,-595 165,-598 165,-598 165,-604 165,-604 165,-607 162,-610 159,-610"/>
<text text-anchor="start" x="24" y="-598.8" font-family="Helvetica,sans-Serif" font-size="9.00">convert&#45;to&#45;change&#45;object.spec.ts</text>
</a>
</g>
</g>
<!-- src/convert&#45;to&#45;change&#45;object.ts -->
<g id="node11" class="node">
<title>src/convert&#45;to&#45;change&#45;object.ts</title>
<g id="a_node11"><a xlink:href="vscode://file/${process.cwd()}/src/convert-to-change-object.ts" xlink:title="convert&#45;to&#45;change&#45;object.ts">
<path fill="#ddfeff" stroke="black" d="M300,-580C300,-580 184,-580 184,-580 181,-580 178,-577 178,-574 178,-574 178,-568 178,-568 178,-565 181,-562 184,-562 184,-562 300,-562 300,-562 303,-562 306,-565 306,-568 306,-568 306,-574 306,-574 306,-577 303,-580 300,-580"/>
<text text-anchor="start" x="186" y="-568.8" font-family="Helvetica,sans-Serif" font-size="9.00">convert&#45;to&#45;change&#45;object.ts</text>
</a>
</g>
</g>
<!-- src/convert&#45;to&#45;change&#45;object.spec.ts&#45;&gt;src/convert&#45;to&#45;change&#45;object.ts -->
<g id="edge9" class="edge">
<title>src/convert&#45;to&#45;change&#45;object.spec.ts&#45;&gt;src/convert&#45;to&#45;change&#45;object.ts</title>
<path fill="none" stroke="#000000" stroke-width="2" stroke-opacity="0.200000" d="M158.5,-591.51C158.5,-582.72 158.5,-571 158.5,-571 158.5,-571 168.87,-571 168.87,-571"/>
<polygon fill="#000000" fill-opacity="0.200000" stroke="#000000" stroke-width="2" stroke-opacity="0.200000" points="168.87,-573.1 174.87,-571 168.87,-568.9 168.87,-573.1"/>
</g>
<!-- types/watskeburt.d.ts -->
<g id="node12" class="node">
<title>types/watskeburt.d.ts</title>
<g id="a_node12"><a xlink:href="vscode://file/${process.cwd()}/types/watskeburt.d.ts" xlink:title="watskeburt.d.ts">
<path fill="#ddfeff" stroke="black" d="M534,-376C534,-376 469,-376 469,-376 466,-376 463,-373 463,-370 463,-370 463,-364 463,-364 463,-361 466,-358 469,-358 469,-358 534,-358 534,-358 537,-358 540,-361 540,-364 540,-364 540,-370 540,-370 540,-373 537,-376 534,-376"/>
<text text-anchor="start" x="471" y="-364.8" font-family="Helvetica,sans-Serif" font-size="9.00">watskeburt.d.ts</text>
</a>
</g>
</g>
<!-- src/convert&#45;to&#45;change&#45;object.ts&#45;&gt;types/watskeburt.d.ts -->
<g id="edge10" class="edge">
<title>src/convert&#45;to&#45;change&#45;object.ts&#45;&gt;types/watskeburt.d.ts</title>
<path fill="none" stroke="#000000" stroke-width="2" stroke-opacity="0.200000" d="M299.5,-561.52C299.5,-521.54 299.5,-368.8 299.5,-368.8 299.5,-368.8 453.55,-368.8 453.55,-368.8"/>
<polygon fill="#000000" fill-opacity="0.200000" stroke="#000000" stroke-width="2" stroke-opacity="0.200000" points="453.55,-370.9 459.55,-368.8 453.55,-366.7 453.55,-370.9"/>
</g>
<!-- src/formatters/format.spec.ts -->
<g id="node13" class="node">
<title>src/formatters/format.spec.ts</title>
<g id="a_node13"><a xlink:href="vscode://file/${process.cwd()}/src/formatters/format.spec.ts" xlink:title="format.spec.ts">
<path fill="#ccccff" stroke="black" d="M121,-408C121,-408 60,-408 60,-408 57,-408 54,-405 54,-402 54,-402 54,-396 54,-396 54,-393 57,-390 60,-390 60,-390 121,-390 121,-390 124,-390 127,-393 127,-396 127,-396 127,-402 127,-402 127,-405 124,-408 121,-408"/>
<text text-anchor="start" x="62" y="-396.8" font-family="Helvetica,sans-Serif" font-size="9.00">format.spec.ts</text>
</a>
</g>
</g>
<!-- src/formatters/format.ts -->
<g id="node14" class="node">
<title>src/formatters/format.ts</title>
<g id="a_node14"><a xlink:href="vscode://file/${process.cwd()}/src/formatters/format.ts" xlink:title="format.ts">
<path fill="#ddfeff" stroke="black" d="M263,-408C263,-408 221,-408 221,-408 218,-408 215,-405 215,-402 215,-402 215,-396 215,-396 215,-393 218,-390 221,-390 221,-390 263,-390 263,-390 266,-390 269,-393 269,-396 269,-396 269,-402 269,-402 269,-405 266,-408 263,-408"/>
<text text-anchor="start" x="224.5" y="-396.8" font-family="Helvetica,sans-Serif" font-size="9.00">format.ts</text>
</a>
</g>
</g>
<!-- src/formatters/format.spec.ts&#45;&gt;src/formatters/format.ts -->
<g id="edge11" class="edge">
<title>src/formatters/format.spec.ts&#45;&gt;src/formatters/format.ts</title>
<path fill="none" stroke="#000000" stroke-width="2" stroke-opacity="0.200000" d="M127.17,-396C127.17,-396 205.69,-396 205.69,-396"/>
<polygon fill="#000000" fill-opacity="0.200000" stroke="#000000" stroke-width="2" stroke-opacity="0.200000" points="205.69,-398.1 211.69,-396 205.69,-393.9 205.69,-398.1"/>
</g>
<!-- src/formatters/format.ts&#45;&gt;types/watskeburt.d.ts -->
<g id="edge12" class="edge">
<title>src/formatters/format.ts&#45;&gt;types/watskeburt.d.ts</title>
<path fill="none" stroke="#000000" stroke-width="2" stroke-opacity="0.200000" d="M242.5,-389.76C242.5,-379.76 242.5,-365.2 242.5,-365.2 242.5,-365.2 453.73,-365.2 453.73,-365.2"/>
<polygon fill="#000000" fill-opacity="0.200000" stroke="#000000" stroke-width="2" stroke-opacity="0.200000" points="453.73,-367.3 459.73,-365.2 453.73,-363.1 453.73,-367.3"/>
</g>
<!-- src/formatters/json.ts -->
<g id="node15" class="node">
<title>src/formatters/json.ts</title>
<g id="a_node15"><a xlink:href="vscode://file/${process.cwd()}/src/formatters/json.ts" xlink:title="json.ts">
<path fill="#ddfeff" stroke="black" d="M404,-438C404,-438 362,-438 362,-438 359,-438 356,-435 356,-432 356,-432 356,-426 356,-426 356,-423 359,-420 362,-420 362,-420 404,-420 404,-420 407,-420 410,-423 410,-426 410,-426 410,-432 410,-432 410,-435 407,-438 404,-438"/>
<text text-anchor="start" x="369.5" y="-426.8" font-family="Helvetica,sans-Serif" font-size="9.00">json.ts</text>
</a>
</g>
</g>
<!-- src/formatters/format.ts&#45;&gt;src/formatters/json.ts -->
<g id="edge13" class="edge">
<title>src/formatters/format.ts&#45;&gt;src/formatters/json.ts</title>
<path fill="none" stroke="#000000" stroke-width="2" stroke-opacity="0.200000" d="M269.42,-399C278.58,-399 286.5,-399 286.5,-399 286.5,-399 286.5,-429 286.5,-429 286.5,-429 346.61,-429 346.61,-429"/>
<polygon fill="#000000" fill-opacity="0.200000" stroke="#000000" stroke-width="2" stroke-opacity="0.200000" points="346.61,-431.1 352.61,-429 346.61,-426.9 346.61,-431.1"/>
</g>
<!-- src/formatters/regex.ts -->
<g id="node16" class="node">
<title>src/formatters/regex.ts</title>
<g id="a_node16"><a xlink:href="vscode://file/${process.cwd()}/src/formatters/regex.ts" xlink:title="regex.ts">
<path fill="#ddfeff" stroke="black" d="M404,-408C404,-408 362,-408 362,-408 359,-408 356,-405 356,-402 356,-402 356,-396 356,-396 356,-393 359,-390 362,-390 362,-390 404,-390 404,-390 407,-390 410,-393 410,-396 410,-396 410,-402 410,-402 410,-405 407,-408 404,-408"/>
<text text-anchor="start" x="366.5" y="-396.8" font-family="Helvetica,sans-Serif" font-size="9.00">regex.ts</text>
</a>
</g>
</g>
<!-- src/formatters/format.ts&#45;&gt;src/formatters/regex.ts -->
<g id="edge14" class="edge">
<title>src/formatters/format.ts&#45;&gt;src/formatters/regex.ts</title>
<path fill="none" stroke="#000000" stroke-width="2" stroke-opacity="0.200000" d="M269.19,-394.5C269.19,-394.5 346.9,-394.5 346.9,-394.5"/>
<polygon fill="#000000" fill-opacity="0.200000" stroke="#000000" stroke-width="2" stroke-opacity="0.200000" points="346.9,-396.6 352.9,-394.5 346.9,-392.4 346.9,-396.6"/>
</g>
<!-- src/formatters/json.ts&#45;&gt;types/watskeburt.d.ts -->
<g id="edge16" class="edge">
<title>src/formatters/json.ts&#45;&gt;types/watskeburt.d.ts</title>
<path fill="none" stroke="#000000" stroke-width="2" stroke-opacity="0.200000" d="M410.48,-429C445.49,-429 501.5,-429 501.5,-429 501.5,-429 501.5,-385.42 501.5,-385.42"/>
<polygon fill="#000000" fill-opacity="0.200000" stroke="#000000" stroke-width="2" stroke-opacity="0.200000" points="503.6,-385.42 501.5,-379.42 499.4,-385.42 503.6,-385.42"/>
</g>
<!-- src/formatters/regex.ts&#45;&gt;types/watskeburt.d.ts -->
<g id="edge18" class="edge">
<title>src/formatters/regex.ts&#45;&gt;types/watskeburt.d.ts</title>
<path fill="none" stroke="#000000" stroke-width="2" stroke-opacity="0.200000" d="M383.5,-389.7C383.5,-382.03 383.5,-372.4 383.5,-372.4 383.5,-372.4 453.54,-372.4 453.54,-372.4"/>
<polygon fill="#000000" fill-opacity="0.200000" stroke="#000000" stroke-width="2" stroke-opacity="0.200000" points="453.54,-374.5 459.54,-372.4 453.54,-370.3 453.54,-374.5"/>
</g>
<!-- src/formatters/json.spec.ts -->
<g id="node17" class="node">
<title>src/formatters/json.spec.ts</title>
<g id="a_node17"><a xlink:href="vscode://file/${process.cwd()}/src/formatters/json.spec.ts" xlink:title="json.spec.ts">
<path fill="#ccccff" stroke="black" d="M268.5,-468C268.5,-468 215.5,-468 215.5,-468 212.5,-468 209.5,-465 209.5,-462 209.5,-462 209.5,-456 209.5,-456 209.5,-453 212.5,-450 215.5,-450 215.5,-450 268.5,-450 268.5,-450 271.5,-450 274.5,-453 274.5,-456 274.5,-456 274.5,-462 274.5,-462 274.5,-465 271.5,-468 268.5,-468"/>
<text text-anchor="start" x="217.5" y="-456.8" font-family="Helvetica,sans-Serif" font-size="9.00">json.spec.ts</text>
</a>
</g>
</g>
<!-- src/formatters/json.spec.ts&#45;&gt;src/formatters/json.ts -->
<g id="edge15" class="edge">
<title>src/formatters/json.spec.ts&#45;&gt;src/formatters/json.ts</title>
<path fill="none" stroke="#000000" stroke-width="2" stroke-opacity="0.200000" d="M274.82,-459C316.62,-459 383.5,-459 383.5,-459 383.5,-459 383.5,-447.49 383.5,-447.49"/>
<polygon fill="#000000" fill-opacity="0.200000" stroke="#000000" stroke-width="2" stroke-opacity="0.200000" points="385.6,-447.49 383.5,-441.49 381.4,-447.49 385.6,-447.49"/>
</g>
<!-- src/formatters/regex.spec.ts -->
<g id="node18" class="node">
<title>src/formatters/regex.spec.ts</title>
<g id="a_node18"><a xlink:href="vscode://file/${process.cwd()}/src/formatters/regex.spec.ts" xlink:title="regex.spec.ts">
<path fill="#ccccff" stroke="black" d="M271.5,-438C271.5,-438 212.5,-438 212.5,-438 209.5,-438 206.5,-435 206.5,-432 206.5,-432 206.5,-426 206.5,-426 206.5,-423 209.5,-420 212.5,-420 212.5,-420 271.5,-420 271.5,-420 274.5,-420 277.5,-423 277.5,-426 277.5,-426 277.5,-432 277.5,-432 277.5,-435 274.5,-438 271.5,-438"/>
<text text-anchor="start" x="214.5" y="-426.8" font-family="Helvetica,sans-Serif" font-size="9.00">regex.spec.ts</text>
</a>
</g>
</g>
<!-- src/formatters/regex.spec.ts&#45;&gt;src/formatters/regex.ts -->
<g id="edge17" class="edge">
<title>src/formatters/regex.spec.ts&#45;&gt;src/formatters/regex.ts</title>
<path fill="none" stroke="#000000" stroke-width="2" stroke-opacity="0.200000" d="M274.5,-419.5C274.5,-412.25 274.5,-403.5 274.5,-403.5 274.5,-403.5 346.62,-403.5 346.62,-403.5"/>
<polygon fill="#000000" fill-opacity="0.200000" stroke="#000000" stroke-width="2" stroke-opacity="0.200000" points="346.62,-405.6 352.62,-403.5 346.62,-401.4 346.62,-405.6"/>
</g>
<!-- src/git&#45;primitives&#45;sync.spec.ts -->
<g id="node19" class="node">
<title>src/git&#45;primitives&#45;sync.spec.ts</title>
<g id="a_node19"><a xlink:href="vscode://file/${process.cwd()}/src/git-primitives-sync.spec.ts" xlink:title="git&#45;primitives&#45;sync.spec.ts">
<path fill="#ccccff" stroke="black" d="M145,-580C145,-580 36,-580 36,-580 33,-580 30,-577 30,-574 30,-574 30,-568 30,-568 30,-565 33,-562 36,-562 36,-562 145,-562 145,-562 148,-562 151,-565 151,-568 151,-568 151,-574 151,-574 151,-577 148,-580 145,-580"/>
<text text-anchor="start" x="38" y="-568.8" font-family="Helvetica,sans-Serif" font-size="9.00">git&#45;primitives&#45;sync.spec.ts</text>
</a>
</g>
</g>
<!-- src/git&#45;primitives&#45;sync.ts -->
<g id="node20" class="node">
<title>src/git&#45;primitives&#45;sync.ts</title>
<g id="a_node20"><a xlink:href="vscode://file/${process.cwd()}/src/git-primitives-sync.ts" xlink:title="git&#45;primitives&#45;sync.ts">
<path fill="#ddfeff" stroke="black" d="M285.5,-550C285.5,-550 198.5,-550 198.5,-550 195.5,-550 192.5,-547 192.5,-544 192.5,-544 192.5,-538 192.5,-538 192.5,-535 195.5,-532 198.5,-532 198.5,-532 285.5,-532 285.5,-532 288.5,-532 291.5,-535 291.5,-538 291.5,-538 291.5,-544 291.5,-544 291.5,-547 288.5,-550 285.5,-550"/>
<text text-anchor="start" x="200.5" y="-538.8" font-family="Helvetica,sans-Serif" font-size="9.00">git&#45;primitives&#45;sync.ts</text>
</a>
</g>
</g>
<!-- src/git&#45;primitives&#45;sync.spec.ts&#45;&gt;src/git&#45;primitives&#45;sync.ts -->
<g id="edge19" class="edge">
<title>src/git&#45;primitives&#45;sync.spec.ts&#45;&gt;src/git&#45;primitives&#45;sync.ts</title>
<path fill="none" stroke="#000000" stroke-width="2" stroke-opacity="0.200000" d="M145.5,-561.51C145.5,-552.72 145.5,-541 145.5,-541 145.5,-541 183.05,-541 183.05,-541"/>
<polygon fill="#000000" fill-opacity="0.200000" stroke="#000000" stroke-width="2" stroke-opacity="0.200000" points="183.05,-543.1 189.05,-541 183.05,-538.9 183.05,-543.1"/>
</g>
<!-- src/git&#45;primitives.spec.ts -->
<g id="node21" class="node">
<title>src/git&#45;primitives.spec.ts</title>
<g id="a_node21"><a xlink:href="vscode://file/${process.cwd()}/src/git-primitives.spec.ts" xlink:title="git&#45;primitives.spec.ts">
<path fill="#ccccff" stroke="black" d="M134,-550C134,-550 47,-550 47,-550 44,-550 41,-547 41,-544 41,-544 41,-538 41,-538 41,-535 44,-532 47,-532 47,-532 134,-532 134,-532 137,-532 140,-535 140,-538 140,-538 140,-544 140,-544 140,-547 137,-550 134,-550"/>
<text text-anchor="start" x="49" y="-538.8" font-family="Helvetica,sans-Serif" font-size="9.00">git&#45;primitives.spec.ts</text>
</a>
</g>
</g>
<!-- src/git&#45;primitives.ts -->
<g id="node22" class="node">
<title>src/git&#45;primitives.ts</title>
<g id="a_node22"><a xlink:href="vscode://file/${process.cwd()}/src/git-primitives.ts" xlink:title="git&#45;primitives.ts">
<path fill="#ddfeff" stroke="black" d="M274.5,-520C274.5,-520 209.5,-520 209.5,-520 206.5,-520 203.5,-517 203.5,-514 203.5,-514 203.5,-508 203.5,-508 203.5,-505 206.5,-502 209.5,-502 209.5,-502 274.5,-502 274.5,-502 277.5,-502 280.5,-505 280.5,-508 280.5,-508 280.5,-514 280.5,-514 280.5,-517 277.5,-520 274.5,-520"/>
<text text-anchor="start" x="211.5" y="-508.8" font-family="Helvetica,sans-Serif" font-size="9.00">git&#45;primitives.ts</text>
</a>
</g>
</g>
<!-- src/git&#45;primitives.spec.ts&#45;&gt;src/git&#45;primitives.ts -->
<g id="edge20" class="edge">
<title>src/git&#45;primitives.spec.ts&#45;&gt;src/git&#45;primitives.ts</title>
<path fill="none" stroke="#000000" stroke-width="2" stroke-opacity="0.200000" d="M137.5,-531.68C137.5,-525.1 137.5,-517.43 137.5,-517.43 137.5,-517.43 194.09,-517.43 194.09,-517.43"/>
<polygon fill="#000000" fill-opacity="0.200000" stroke="#000000" stroke-width="2" stroke-opacity="0.200000" points="194.09,-519.53 200.09,-517.43 194.09,-515.33 194.09,-519.53"/>
</g>
<!-- src/main.ts -->
<g id="node23" class="node">
<title>src/main.ts</title>
<g id="a_node23"><a xlink:href="vscode://file/${process.cwd()}/src/main.ts" xlink:title="main.ts">
<path fill="#ddfeff" stroke="black" d="M111.5,-520C111.5,-520 69.5,-520 69.5,-520 66.5,-520 63.5,-517 63.5,-514 63.5,-514 63.5,-508 63.5,-508 63.5,-505 66.5,-502 69.5,-502 69.5,-502 111.5,-502 111.5,-502 114.5,-502 117.5,-505 117.5,-508 117.5,-508 117.5,-514 117.5,-514 117.5,-517 114.5,-520 111.5,-520"/>
<text text-anchor="start" x="75.5" y="-508.8" font-family="Helvetica,sans-Serif" font-size="9.00">main.ts</text>
</a>
</g>
</g>
<!-- src/main.ts&#45;&gt;src/convert&#45;to&#45;change&#45;object.ts -->
<g id="edge22" class="edge">
<title>src/main.ts&#45;&gt;src/convert&#45;to&#45;change&#45;object.ts</title>
<path fill="none" stroke="#000000" stroke-width="2" stroke-opacity="0.200000" d="M117.98,-514.86C146.04,-514.86 185.5,-514.86 185.5,-514.86 185.5,-514.86 185.5,-552.73 185.5,-552.73"/>
<polygon fill="#000000" fill-opacity="0.200000" stroke="#000000" stroke-width="2" stroke-opacity="0.200000" points="183.4,-552.73 185.5,-558.73 187.6,-552.73 183.4,-552.73"/>
</g>
<!-- src/main.ts&#45;&gt;types/watskeburt.d.ts -->
<g id="edge21" class="edge">
<title>src/main.ts&#45;&gt;types/watskeburt.d.ts</title>
<path fill="none" stroke="#000000" stroke-width="2" stroke-opacity="0.200000" d="M117.84,-504.57C124.88,-504.57 130.5,-504.57 130.5,-504.57 130.5,-504.57 130.5,-361.6 130.5,-361.6 130.5,-361.6 453.85,-361.6 453.85,-361.6"/>
<polygon fill="#000000" fill-opacity="0.200000" stroke="#000000" stroke-width="2" stroke-opacity="0.200000" points="453.85,-363.7 459.85,-361.6 453.85,-359.5 453.85,-363.7"/>
</g>
<!-- src/main.ts&#45;&gt;src/formatters/format.ts -->
<g id="edge23" class="edge">
<title>src/main.ts&#45;&gt;src/formatters/format.ts</title>
<path fill="none" stroke="#000000" stroke-width="2" stroke-opacity="0.200000" d="M117.98,-507.14C126.4,-507.14 133.5,-507.14 133.5,-507.14 133.5,-507.14 133.5,-402 133.5,-402 133.5,-402 205.62,-402 205.62,-402"/>
<polygon fill="#000000" fill-opacity="0.200000" stroke="#000000" stroke-width="2" stroke-opacity="0.200000" points="205.62,-404.1 211.62,-402 205.62,-399.9 205.62,-404.1"/>
</g>
<!-- src/main.ts&#45;&gt;src/git&#45;primitives&#45;sync.ts -->
<g id="edge24" class="edge">
<title>src/main.ts&#45;&gt;src/git&#45;primitives&#45;sync.ts</title>
<path fill="none" stroke="#000000" stroke-width="2" stroke-opacity="0.200000" d="M117.75,-512.29C149.75,-512.29 198.5,-512.29 198.5,-512.29 198.5,-512.29 198.5,-522.6 198.5,-522.6"/>
<polygon fill="#000000" fill-opacity="0.200000" stroke="#000000" stroke-width="2" stroke-opacity="0.200000" points="196.4,-522.6 198.5,-528.6 200.6,-522.6 196.4,-522.6"/>
</g>
<!-- src/main.ts&#45;&gt;src/git&#45;primitives.ts -->
<g id="edge25" class="edge">
<title>src/main.ts&#45;&gt;src/git&#45;primitives.ts</title>
<path fill="none" stroke="#000000" stroke-width="2" stroke-opacity="0.200000" d="M117.94,-509.71C117.94,-509.71 194.09,-509.71 194.09,-509.71"/>
<polygon fill="#000000" fill-opacity="0.200000" stroke="#000000" stroke-width="2" stroke-opacity="0.200000" points="194.09,-511.81 200.09,-509.71 194.09,-507.61 194.09,-511.81"/>
</g>
</g>
</svg>
