<?xml version="1.0" encoding="UTF-8" standalone="no"?>
<!DOCTYPE svg PUBLIC "-//W3C//DTD SVG 1.1//EN"
 "http://www.w3.org/Graphics/SVG/1.1/DTD/svg11.dtd">
<!-- Generated by graphviz version 8.1.0 (20230707.0739)
 -->
<!-- Title: dependency&#45;cruiser output Pages: 1 -->
<svg width="691pt" height="349pt"
 viewBox="0.00 0.00 690.75 349.00" xmlns="http://www.w3.org/2000/svg" xmlns:xlink="http://www.w3.org/1999/xlink">
<g id="graph0" class="graph" transform="scale(1 1) rotate(0) translate(4 345)">
<title>dependency&#45;cruiser output</title>
<polygon fill="white" stroke="none" points="-4,4 -4,-345 686.75,-345 686.75,4 -4,4"/>
<g id="clust1" class="cluster">
<title>cluster_src</title>
<path fill="#ffffff" stroke="black" stroke-width="2" d="M20,-71C20,-71 562,-71 562,-71 568,-71 574,-77 574,-83 574,-83 574,-321 574,-321 574,-327 568,-333 562,-333 562,-333 20,-333 20,-333 14,-333 8,-327 8,-321 8,-321 8,-83 8,-83 8,-77 14,-71 20,-71"/>
<text text-anchor="middle" x="291" y="-320.45" font-family="Helvetica,sans-Serif" font-weight="bold" font-size="9.00">src</text>
</g>
<g id="clust2" class="cluster">
<title>cluster_src/formatters</title>
<path fill="#ffffff" stroke="black" stroke-width="2" d="M244.5,-79C244.5,-79 554,-79 554,-79 560,-79 566,-85 566,-91 566,-91 566,-179 566,-179 566,-185 560,-191 554,-191 554,-191 244.5,-191 244.5,-191 238.5,-191 232.5,-185 232.5,-179 232.5,-179 232.5,-91 232.5,-91 232.5,-85 238.5,-79 244.5,-79"/>
<text text-anchor="middle" x="399.25" y="-178.45" font-family="Helvetica,sans-Serif" font-weight="bold" font-size="9.00">formatters</text>
</g>
<g id="clust3" class="cluster">
<title>cluster_types</title>
<path fill="#ffffff" stroke="black" stroke-width="2" d="M594,-8C594,-8 662.75,-8 662.75,-8 668.75,-8 674.75,-14 674.75,-20 674.75,-20 674.75,-48 674.75,-48 674.75,-54 668.75,-60 662.75,-60 662.75,-60 594,-60 594,-60 588,-60 582,-54 582,-48 582,-48 582,-20 582,-20 582,-14 588,-8 594,-8"/>
<text text-anchor="middle" x="628.38" y="-47.45" font-family="Helvetica,sans-Serif" font-weight="bold" font-size="9.00">types</text>
</g>
<!-- src/cli.ts -->
<g id="node1" class="node">
<title>src/cli.ts</title>
<g id="a_node1"><a xlink:href="vscode://file/${process.cwd()}/src/cli.ts" xlink:title="cli.ts">
<path fill="#ddfeff" stroke="black" d="M82.58,-197.88C82.58,-197.88 40.42,-197.88 40.42,-197.88 37.46,-197.88 34.5,-194.92 34.5,-191.96 34.5,-191.96 34.5,-186.04 34.5,-186.04 34.5,-183.08 37.46,-180.12 40.42,-180.12 40.42,-180.12 82.58,-180.12 82.58,-180.12 85.54,-180.12 88.5,-183.08 88.5,-186.04 88.5,-186.04 88.5,-191.96 88.5,-191.96 88.5,-194.92 85.54,-197.88 82.58,-197.88"/>
<text text-anchor="start" x="52.5" y="-185.32" font-family="Helvetica,sans-Serif" font-size="9.00">cli.ts</text>
</a>
</g>
</g>
<!-- src/execute&#45;cli.ts -->
<g id="node2" class="node">
<title>src/execute&#45;cli.ts</title>
<g id="a_node2"><a xlink:href="vscode://file/${process.cwd()}/src/execute-cli.ts" xlink:title="execute&#45;cli.ts">
<path fill="#ddfeff" stroke="black" d="M183.33,-205.88C183.33,-205.88 125.92,-205.88 125.92,-205.88 122.96,-205.88 120,-202.92 120,-199.96 120,-199.96 120,-194.04 120,-194.04 120,-191.08 122.96,-188.12 125.92,-188.12 125.92,-188.12 183.33,-188.12 183.33,-188.12 186.29,-188.12 189.25,-191.08 189.25,-194.04 189.25,-194.04 189.25,-199.96 189.25,-199.96 189.25,-202.92 186.29,-205.88 183.33,-205.88"/>
<text text-anchor="start" x="128" y="-193.32" font-family="Helvetica,sans-Serif" font-size="9.00">execute&#45;cli.ts</text>
</a>
</g>
</g>
<!-- src/cli.ts&#45;&gt;src/execute&#45;cli.ts -->
<g id="edge1" class="edge">
<title>src/cli.ts&#45;&gt;src/execute&#45;cli.ts</title>
<path fill="none" stroke="#000000" stroke-width="2" stroke-opacity="0.200000" d="M88.94,-193C88.94,-193 110.77,-193 110.77,-193"/>
<polygon fill="#000000" fill-opacity="0.200000" stroke="#000000" stroke-width="2" stroke-opacity="0.200000" points="110.77,-195.1 116.77,-193 110.77,-190.9 110.77,-195.1"/>
</g>
<!-- types/watskeburt.d.ts -->
<g id="node5" class="node">
<title>types/watskeburt.d.ts</title>
<g id="a_node5"><a xlink:href="vscode://file/${process.cwd()}/types/watskeburt.d.ts" xlink:title="watskeburt.d.ts">
<path fill="#ddfeff" stroke="black" d="M660.83,-33.88C660.83,-33.88 595.92,-33.88 595.92,-33.88 592.96,-33.88 590,-30.92 590,-27.96 590,-27.96 590,-22.04 590,-22.04 590,-19.08 592.96,-16.12 595.92,-16.12 595.92,-16.12 660.83,-16.12 660.83,-16.12 663.79,-16.12 666.75,-19.08 666.75,-22.04 666.75,-22.04 666.75,-27.96 666.75,-27.96 666.75,-30.92 663.79,-33.88 660.83,-33.88"/>
<text text-anchor="start" x="598" y="-21.32" font-family="Helvetica,sans-Serif" font-size="9.00">watskeburt.d.ts</text>
</a>
</g>
</g>
<!-- src/execute&#45;cli.ts&#45;&gt;types/watskeburt.d.ts -->
<g id="edge8" class="edge">
<title>src/execute&#45;cli.ts&#45;&gt;types/watskeburt.d.ts</title>
<path fill="none" stroke="#000000" stroke-width="2" stroke-opacity="0.200000" d="M189.66,-191.79C301.35,-191.79 641.75,-191.79 641.75,-191.79 641.75,-191.79 641.75,-42.97 641.75,-42.97"/>
<polygon fill="#000000" fill-opacity="0.200000" stroke="#000000" stroke-width="2" stroke-opacity="0.200000" points="643.85,-42.97 641.75,-36.97 639.65,-42.97 643.85,-42.97"/>
</g>
<!-- src/main.ts -->
<g id="node7" class="node">
<title>src/main.ts</title>
<g id="a_node7"><a xlink:href="vscode://file/${process.cwd()}/src/main.ts" xlink:title="main.ts">
<path fill="#ddfeff" stroke="black" d="M297.71,-216.88C297.71,-216.88 255.54,-216.88 255.54,-216.88 252.58,-216.88 249.62,-213.92 249.62,-210.96 249.62,-210.96 249.62,-205.04 249.62,-205.04 249.62,-202.08 252.58,-199.12 255.54,-199.12 255.54,-199.12 297.71,-199.12 297.71,-199.12 300.67,-199.12 303.62,-202.08 303.62,-205.04 303.62,-205.04 303.62,-210.96 303.62,-210.96 303.62,-213.92 300.67,-216.88 297.71,-216.88"/>
<text text-anchor="start" x="262" y="-204.32" font-family="Helvetica,sans-Serif" font-size="9.00">main.ts</text>
</a>
</g>
</g>
<!-- src/execute&#45;cli.ts&#45;&gt;src/main.ts -->
<g id="edge6" class="edge">
<title>src/execute&#45;cli.ts&#45;&gt;src/main.ts</title>
<path fill="none" stroke="#000000" stroke-width="2" stroke-opacity="0.200000" d="M189.42,-195.46C228.27,-195.46 285.75,-195.46 285.75,-195.46 285.75,-195.46 285.75,-195.8 285.75,-195.8"/>
<polygon fill="#000000" fill-opacity="0.200000" stroke="#000000" stroke-width="2" stroke-opacity="0.200000" points="283.65,-189.89 285.75,-195.89 287.85,-189.89 283.65,-189.89"/>
</g>
<!-- src/version.ts -->
<g id="node8" class="node">
<title>src/version.ts</title>
<g id="a_node8"><a xlink:href="vscode://file/${process.cwd()}/src/version.ts" xlink:title="version.ts">
<path fill="#ddfeff" stroke="black" d="M298.21,-246.88C298.21,-246.88 255.04,-246.88 255.04,-246.88 252.08,-246.88 249.12,-243.92 249.12,-240.96 249.12,-240.96 249.12,-235.04 249.12,-235.04 249.12,-232.08 252.08,-229.12 255.04,-229.12 255.04,-229.12 298.21,-229.12 298.21,-229.12 301.17,-229.12 304.12,-232.08 304.12,-235.04 304.12,-235.04 304.12,-240.96 304.12,-240.96 304.12,-243.92 301.17,-246.88 298.21,-246.88"/>
<text text-anchor="start" x="257.12" y="-234.32" font-family="Helvetica,sans-Serif" font-size="9.00">version.ts</text>
</a>
</g>
</g>
<!-- src/execute&#45;cli.ts&#45;&gt;src/version.ts -->
<g id="edge7" class="edge">
<title>src/execute&#45;cli.ts&#45;&gt;src/version.ts</title>
<path fill="none" stroke="#000000" stroke-width="2" stroke-opacity="0.200000" d="M154.75,-206.1C154.75,-218.18 154.75,-238 154.75,-238 154.75,-238 239.66,-238 239.66,-238"/>
<polygon fill="#000000" fill-opacity="0.200000" stroke="#000000" stroke-width="2" stroke-opacity="0.200000" points="239.66,-240.1 245.66,-238 239.66,-235.9 239.66,-240.1"/>
</g>
<!-- src/convert&#45;to&#45;change&#45;object.spec.ts -->
<g id="node3" class="node">
<title>src/convert&#45;to&#45;change&#45;object.spec.ts</title>
<g id="a_node3"><a xlink:href="vscode://file/${process.cwd()}/src/convert-to-change-object.spec.ts" xlink:title="convert&#45;to&#45;change&#45;object.spec.ts">
<path fill="#ccccff" stroke="black" d="M345.08,-306.88C345.08,-306.88 208.17,-306.88 208.17,-306.88 205.21,-306.88 202.25,-303.92 202.25,-300.96 202.25,-300.96 202.25,-295.04 202.25,-295.04 202.25,-292.08 205.21,-289.12 208.17,-289.12 208.17,-289.12 345.08,-289.12 345.08,-289.12 348.04,-289.12 351,-292.08 351,-295.04 351,-295.04 351,-300.96 351,-300.96 351,-303.92 348.04,-306.88 345.08,-306.88"/>
<text text-anchor="start" x="210.25" y="-294.32" font-family="Helvetica,sans-Serif" font-size="9.00">convert&#45;to&#45;change&#45;object.spec.ts</text>
</a>
</g>
</g>
<!-- src/convert&#45;to&#45;change&#45;object.ts -->
<g id="node4" class="node">
<title>src/convert&#45;to&#45;change&#45;object.ts</title>
<g id="a_node4"><a xlink:href="vscode://file/${process.cwd()}/src/convert-to-change-object.ts" xlink:title="convert&#45;to&#45;change&#45;object.ts">
<path fill="#ddfeff" stroke="black" d="M485.08,-246.88C485.08,-246.88 369.92,-246.88 369.92,-246.88 366.96,-246.88 364,-243.92 364,-240.96 364,-240.96 364,-235.04 364,-235.04 364,-232.08 366.96,-229.12 369.92,-229.12 369.92,-229.12 485.08,-229.12 485.08,-229.12 488.04,-229.12 491,-232.08 491,-235.04 491,-235.04 491,-240.96 491,-240.96 491,-243.92 488.04,-246.88 485.08,-246.88"/>
<text text-anchor="start" x="372" y="-234.32" font-family="Helvetica,sans-Serif" font-size="9.00">convert&#45;to&#45;change&#45;object.ts</text>
</a>
</g>
</g>
<!-- src/convert&#45;to&#45;change&#45;object.spec.ts&#45;&gt;src/convert&#45;to&#45;change&#45;object.ts -->
<g id="edge2" class="edge">
<title>src/convert&#45;to&#45;change&#45;object.spec.ts&#45;&gt;src/convert&#45;to&#45;change&#45;object.ts</title>
<path fill="none" stroke="#000000" stroke-width="2" stroke-opacity="0.200000" d="M338.75,-288.62C338.75,-271.75 338.75,-238 338.75,-238 338.75,-238 354.94,-238 354.94,-238"/>
<polygon fill="#000000" fill-opacity="0.200000" stroke="#000000" stroke-width="2" stroke-opacity="0.200000" points="354.94,-240.1 360.94,-238 354.94,-235.9 354.94,-240.1"/>
</g>
<!-- src/convert&#45;to&#45;change&#45;object.ts&#45;&gt;types/watskeburt.d.ts -->
<g id="edge3" class="edge">
<title>src/convert&#45;to&#45;change&#45;object.ts&#45;&gt;types/watskeburt.d.ts</title>
<path fill="none" stroke="#000000" stroke-width="2" stroke-opacity="0.200000" d="M478.75,-228.74C478.75,-188.26 478.75,-28.8 478.75,-28.8 478.75,-28.8 580.84,-28.8 580.84,-28.8"/>
<polygon fill="#000000" fill-opacity="0.200000" stroke="#000000" stroke-width="2" stroke-opacity="0.200000" points="580.84,-30.9 586.84,-28.8 580.84,-26.7 580.84,-30.9"/>
</g>
<!-- src/execute&#45;cli.spec.ts -->
<g id="node6" class="node">
<title>src/execute&#45;cli.spec.ts</title>
<g id="a_node6"><a xlink:href="vscode://file/${process.cwd()}/src/execute-cli.spec.ts" xlink:title="execute&#45;cli.spec.ts">
<path fill="#ccccff" stroke="black" d="M101.08,-227.88C101.08,-227.88 21.92,-227.88 21.92,-227.88 18.96,-227.88 16,-224.92 16,-221.96 16,-221.96 16,-216.04 16,-216.04 16,-213.08 18.96,-210.12 21.92,-210.12 21.92,-210.12 101.08,-210.12 101.08,-210.12 104.04,-210.12 107,-213.08 107,-216.04 107,-216.04 107,-221.96 107,-221.96 107,-224.92 104.04,-227.88 101.08,-227.88"/>
<text text-anchor="start" x="24" y="-215.32" font-family="Helvetica,sans-Serif" font-size="9.00">execute&#45;cli.spec.ts</text>
</a>
</g>
</g>
<!-- src/execute&#45;cli.spec.ts&#45;&gt;src/execute&#45;cli.ts -->
<g id="edge4" class="edge">
<title>src/execute&#45;cli.spec.ts&#45;&gt;src/execute&#45;cli.ts</title>
<path fill="none" stroke="#000000" stroke-width="2" stroke-opacity="0.200000" d="M97.75,-209.64C97.75,-205.64 97.75,-201.88 97.75,-201.88 97.75,-201.88 110.58,-201.88 110.58,-201.88"/>
<polygon fill="#000000" fill-opacity="0.200000" stroke="#000000" stroke-width="2" stroke-opacity="0.200000" points="110.58,-203.98 116.58,-201.88 110.58,-199.78 110.58,-203.98"/>
</g>
<!-- src/execute&#45;cli.spec.ts&#45;&gt;src/main.ts -->
<g id="edge5" class="edge">
<title>src/execute&#45;cli.spec.ts&#45;&gt;src/main.ts</title>
<path fill="none" stroke="#000000" stroke-width="2" stroke-opacity="0.200000" d="M107.41,-222.38C170.63,-222.38 276.75,-222.38 276.75,-222.38 276.75,-222.38 276.75,-221.86 276.75,-221.86"/>
<polygon fill="#000000" fill-opacity="0.200000" stroke="#000000" stroke-width="2" stroke-opacity="0.200000" points="278.85,-226.19 276.75,-220.19 274.65,-226.19 278.85,-226.19"/>
</g>
<!-- src/main.ts&#45;&gt;src/convert&#45;to&#45;change&#45;object.ts -->
<g id="edge22" class="edge">
<title>src/main.ts&#45;&gt;src/convert&#45;to&#45;change&#45;object.ts</title>
<path fill="none" stroke="#000000" stroke-width="2" stroke-opacity="0.200000" d="M303.98,-210.96C333.63,-210.96 376.75,-210.96 376.75,-210.96 376.75,-210.96 376.75,-219.84 376.75,-219.84"/>
<polygon fill="#000000" fill-opacity="0.200000" stroke="#000000" stroke-width="2" stroke-opacity="0.200000" points="374.65,-219.84 376.75,-225.84 378.85,-219.84 374.65,-219.84"/>
</g>
<!-- src/main.ts&#45;&gt;types/watskeburt.d.ts -->
<g id="edge21" class="edge">
<title>src/main.ts&#45;&gt;types/watskeburt.d.ts</title>
<path fill="none" stroke="#000000" stroke-width="2" stroke-opacity="0.200000" d="M304.05,-202.08C311.11,-202.08 316.75,-202.08 316.75,-202.08 316.75,-202.08 316.75,-21.2 316.75,-21.2 316.75,-21.2 580.54,-21.2 580.54,-21.2"/>
<polygon fill="#000000" fill-opacity="0.200000" stroke="#000000" stroke-width="2" stroke-opacity="0.200000" points="580.54,-23.3 586.54,-21.2 580.54,-19.1 580.54,-23.3"/>
</g>
<!-- src/formatters/format.ts -->
<g id="node10" class="node">
<title>src/formatters/format.ts</title>
<g id="a_node10"><a xlink:href="vscode://file/${process.cwd()}/src/formatters/format.ts" xlink:title="format.ts">
<path fill="#ddfeff" stroke="black" d="M448.58,-134.88C448.58,-134.88 406.42,-134.88 406.42,-134.88 403.46,-134.88 400.5,-131.92 400.5,-128.96 400.5,-128.96 400.5,-123.04 400.5,-123.04 400.5,-120.08 403.46,-117.12 406.42,-117.12 406.42,-117.12 448.58,-117.12 448.58,-117.12 451.54,-117.12 454.5,-120.08 454.5,-123.04 454.5,-123.04 454.5,-128.96 454.5,-128.96 454.5,-131.92 451.54,-134.88 448.58,-134.88"/>
<text text-anchor="start" x="410.25" y="-122.33" font-family="Helvetica,sans-Serif" font-size="9.00">format.ts</text>
</a>
</g>
</g>
<!-- src/main.ts&#45;&gt;src/formatters/format.ts -->
<g id="edge23" class="edge">
<title>src/main.ts&#45;&gt;src/formatters/format.ts</title>
<path fill="none" stroke="#000000" stroke-width="2" stroke-opacity="0.200000" d="M303.69,-205.04C312.36,-205.04 319.75,-205.04 319.75,-205.04 319.75,-205.04 319.75,-128.96 319.75,-128.96 319.75,-128.96 391.03,-128.96 391.03,-128.96"/>
<polygon fill="#000000" fill-opacity="0.200000" stroke="#000000" stroke-width="2" stroke-opacity="0.200000" points="391.03,-131.06 397.03,-128.96 391.03,-126.86 391.03,-131.06"/>
</g>
<!-- src/git&#45;primitives.ts -->
<g id="node16" class="node">
<title>src/git&#45;primitives.ts</title>
<g id="a_node16"><a xlink:href="vscode://file/${process.cwd()}/src/git-primitives.ts" xlink:title="git&#45;primitives.ts">
<path fill="#ddfeff" stroke="black" d="M459.96,-216.88C459.96,-216.88 395.04,-216.88 395.04,-216.88 392.08,-216.88 389.12,-213.92 389.12,-210.96 389.12,-210.96 389.12,-205.04 389.12,-205.04 389.12,-202.08 392.08,-199.12 395.04,-199.12 395.04,-199.12 459.96,-199.12 459.96,-199.12 462.92,-199.12 465.88,-202.08 465.88,-205.04 465.88,-205.04 465.88,-210.96 465.88,-210.96 465.88,-213.92 462.92,-216.88 459.96,-216.88"/>
<text text-anchor="start" x="397.12" y="-204.32" font-family="Helvetica,sans-Serif" font-size="9.00">git&#45;primitives.ts</text>
</a>
</g>
</g>
<!-- src/main.ts&#45;&gt;src/git&#45;primitives.ts -->
<g id="edge24" class="edge">
<title>src/main.ts&#45;&gt;src/git&#45;primitives.ts</title>
<path fill="none" stroke="#000000" stroke-width="2" stroke-opacity="0.200000" d="M303.95,-208C303.95,-208 379.75,-208 379.75,-208"/>
<polygon fill="#000000" fill-opacity="0.200000" stroke="#000000" stroke-width="2" stroke-opacity="0.200000" points="379.75,-210.1 385.75,-208 379.75,-205.9 379.75,-210.1"/>
</g>
<!-- src/formatters/format.spec.ts -->
<g id="node9" class="node">
<title>src/formatters/format.spec.ts</title>
<g id="a_node9"><a xlink:href="vscode://file/${process.cwd()}/src/formatters/format.spec.ts" xlink:title="format.spec.ts">
<path fill="#ccccff" stroke="black" d="M306.83,-134.88C306.83,-134.88 246.42,-134.88 246.42,-134.88 243.46,-134.88 240.5,-131.92 240.5,-128.96 240.5,-128.96 240.5,-123.04 240.5,-123.04 240.5,-120.08 243.46,-117.12 246.42,-117.12 246.42,-117.12 306.83,-117.12 306.83,-117.12 309.79,-117.12 312.75,-120.08 312.75,-123.04 312.75,-123.04 312.75,-128.96 312.75,-128.96 312.75,-131.92 309.79,-134.88 306.83,-134.88"/>
<text text-anchor="start" x="248.5" y="-122.33" font-family="Helvetica,sans-Serif" font-size="9.00">format.spec.ts</text>
</a>
</g>
</g>
<!-- src/formatters/format.spec.ts&#45;&gt;src/formatters/format.ts -->
<g id="edge9" class="edge">
<title>src/formatters/format.spec.ts&#45;&gt;src/formatters/format.ts</title>
<path fill="none" stroke="#000000" stroke-width="2" stroke-opacity="0.200000" d="M313.15,-123.04C313.15,-123.04 391.3,-123.04 391.3,-123.04"/>
<polygon fill="#000000" fill-opacity="0.200000" stroke="#000000" stroke-width="2" stroke-opacity="0.200000" points="391.3,-125.14 397.3,-123.04 391.3,-120.94 391.3,-125.14"/>
</g>
<!-- src/formatters/format.ts&#45;&gt;types/watskeburt.d.ts -->
<g id="edge10" class="edge">
<title>src/formatters/format.ts&#45;&gt;types/watskeburt.d.ts</title>
<path fill="none" stroke="#000000" stroke-width="2" stroke-opacity="0.200000" d="M454.87,-121.56C464.4,-121.56 472.75,-121.56 472.75,-121.56 472.75,-121.56 472.75,-26.27 472.75,-26.27 472.75,-26.27 580.51,-26.27 580.51,-26.27"/>
<polygon fill="#000000" fill-opacity="0.200000" stroke="#000000" stroke-width="2" stroke-opacity="0.200000" points="580.51,-28.37 586.51,-26.27 580.51,-24.17 580.51,-28.37"/>
</g>
<!-- src/formatters/json.ts -->
<g id="node11" class="node">
<title>src/formatters/json.ts</title>
<g id="a_node11"><a xlink:href="vscode://file/${process.cwd()}/src/formatters/json.ts" xlink:title="json.ts">
<path fill="#ddfeff" stroke="black" d="M552.08,-134.88C552.08,-134.88 509.92,-134.88 509.92,-134.88 506.96,-134.88 504,-131.92 504,-128.96 504,-128.96 504,-123.04 504,-123.04 504,-120.08 506.96,-117.12 509.92,-117.12 509.92,-117.12 552.08,-117.12 552.08,-117.12 555.04,-117.12 558,-120.08 558,-123.04 558,-123.04 558,-128.96 558,-128.96 558,-131.92 555.04,-134.88 552.08,-134.88"/>
<text text-anchor="start" x="517.88" y="-122.33" font-family="Helvetica,sans-Serif" font-size="9.00">json.ts</text>
</a>
</g>
</g>
<!-- src/formatters/format.ts&#45;&gt;src/formatters/json.ts -->
<g id="edge11" class="edge">
<title>src/formatters/format.ts&#45;&gt;src/formatters/json.ts</title>
<path fill="none" stroke="#000000" stroke-width="2" stroke-opacity="0.200000" d="M454.96,-130.44C454.96,-130.44 494.77,-130.44 494.77,-130.44"/>
<polygon fill="#000000" fill-opacity="0.200000" stroke="#000000" stroke-width="2" stroke-opacity="0.200000" points="494.77,-132.54 500.77,-130.44 494.77,-128.34 494.77,-132.54"/>
</g>
<!-- src/formatters/regex.ts -->
<g id="node12" class="node">
<title>src/formatters/regex.ts</title>
<g id="a_node12"><a xlink:href="vscode://file/${process.cwd()}/src/formatters/regex.ts" xlink:title="regex.ts">
<path fill="#ddfeff" stroke="black" d="M552.08,-104.88C552.08,-104.88 509.92,-104.88 509.92,-104.88 506.96,-104.88 504,-101.92 504,-98.96 504,-98.96 504,-93.04 504,-93.04 504,-90.08 506.96,-87.12 509.92,-87.12 509.92,-87.12 552.08,-87.12 552.08,-87.12 555.04,-87.12 558,-90.08 558,-93.04 558,-93.04 558,-98.96 558,-98.96 558,-101.92 555.04,-104.88 552.08,-104.88"/>
<text text-anchor="start" x="514.88" y="-92.33" font-family="Helvetica,sans-Serif" font-size="9.00">regex.ts</text>
</a>
</g>
</g>
<!-- src/formatters/format.ts&#45;&gt;src/formatters/regex.ts -->
<g id="edge12" class="edge">
<title>src/formatters/format.ts&#45;&gt;src/formatters/regex.ts</title>
<path fill="none" stroke="#000000" stroke-width="2" stroke-opacity="0.200000" d="M454.78,-126C469.53,-126 484.75,-126 484.75,-126 484.75,-126 484.75,-98.96 484.75,-98.96 484.75,-98.96 494.56,-98.96 494.56,-98.96"/>
<polygon fill="#000000" fill-opacity="0.200000" stroke="#000000" stroke-width="2" stroke-opacity="0.200000" points="494.56,-101.06 500.56,-98.96 494.56,-96.86 494.56,-101.06"/>
</g>
<!-- src/formatters/json.ts&#45;&gt;types/watskeburt.d.ts -->
<g id="edge14" class="edge">
<title>src/formatters/json.ts&#45;&gt;types/watskeburt.d.ts</title>
<path fill="none" stroke="#000000" stroke-width="2" stroke-opacity="0.200000" d="M558.28,-126C583.06,-126 615.75,-126 615.75,-126 615.75,-126 615.75,-43.32 615.75,-43.32"/>
<polygon fill="#000000" fill-opacity="0.200000" stroke="#000000" stroke-width="2" stroke-opacity="0.200000" points="617.85,-43.32 615.75,-37.32 613.65,-43.32 617.85,-43.32"/>
</g>
<!-- src/formatters/regex.ts&#45;&gt;types/watskeburt.d.ts -->
<g id="edge17" class="edge">
<title>src/formatters/regex.ts&#45;&gt;types/watskeburt.d.ts</title>
<path fill="none" stroke="#000000" stroke-width="2" stroke-opacity="0.200000" d="M531.75,-86.74C531.75,-68.86 531.75,-31.34 531.75,-31.34 531.75,-31.34 580.63,-31.34 580.63,-31.34"/>
<polygon fill="#000000" fill-opacity="0.200000" stroke="#000000" stroke-width="2" stroke-opacity="0.200000" points="580.63,-33.44 586.63,-31.34 580.63,-29.24 580.63,-33.44"/>
</g>
<!-- src/formatters/json.spec.ts -->
<g id="node13" class="node">
<title>src/formatters/json.spec.ts</title>
<g id="a_node13"><a xlink:href="vscode://file/${process.cwd()}/src/formatters/json.spec.ts" xlink:title="json.spec.ts">
<path fill="#ccccff" stroke="black" d="M453.58,-164.88C453.58,-164.88 401.42,-164.88 401.42,-164.88 398.46,-164.88 395.5,-161.92 395.5,-158.96 395.5,-158.96 395.5,-153.04 395.5,-153.04 395.5,-150.08 398.46,-147.12 401.42,-147.12 401.42,-147.12 453.58,-147.12 453.58,-147.12 456.54,-147.12 459.5,-150.08 459.5,-153.04 459.5,-153.04 459.5,-158.96 459.5,-158.96 459.5,-161.92 456.54,-164.88 453.58,-164.88"/>
<text text-anchor="start" x="403.5" y="-152.32" font-family="Helvetica,sans-Serif" font-size="9.00">json.spec.ts</text>
</a>
</g>
</g>
<!-- src/formatters/json.spec.ts&#45;&gt;src/formatters/json.ts -->
<g id="edge13" class="edge">
<title>src/formatters/json.spec.ts&#45;&gt;src/formatters/json.ts</title>
<path fill="none" stroke="#000000" stroke-width="2" stroke-opacity="0.200000" d="M459.91,-156C490.52,-156 531.75,-156 531.75,-156 531.75,-156 531.75,-144.16 531.75,-144.16"/>
<polygon fill="#000000" fill-opacity="0.200000" stroke="#000000" stroke-width="2" stroke-opacity="0.200000" points="533.85,-144.16 531.75,-138.16 529.65,-144.16 533.85,-144.16"/>
</g>
<!-- src/formatters/regex.spec.ts -->
<g id="node14" class="node">
<title>src/formatters/regex.spec.ts</title>
<g id="a_node14"><a xlink:href="vscode://file/${process.cwd()}/src/formatters/regex.spec.ts" xlink:title="regex.spec.ts">
<path fill="#ccccff" stroke="black" d="M456.58,-104.88C456.58,-104.88 398.42,-104.88 398.42,-104.88 395.46,-104.88 392.5,-101.92 392.5,-98.96 392.5,-98.96 392.5,-93.04 392.5,-93.04 392.5,-90.08 395.46,-87.12 398.42,-87.12 398.42,-87.12 456.58,-87.12 456.58,-87.12 459.54,-87.12 462.5,-90.08 462.5,-93.04 462.5,-93.04 462.5,-98.96 462.5,-98.96 462.5,-101.92 459.54,-104.88 456.58,-104.88"/>
<text text-anchor="start" x="400.5" y="-92.33" font-family="Helvetica,sans-Serif" font-size="9.00">regex.spec.ts</text>
</a>
</g>
</g>
<!-- src/formatters/regex.spec.ts&#45;&gt;types/watskeburt.d.ts -->
<g id="edge15" class="edge">
<title>src/formatters/regex.spec.ts&#45;&gt;types/watskeburt.d.ts</title>
<path fill="none" stroke="#000000" stroke-width="2" stroke-opacity="0.200000" d="M427.75,-86.85C427.75,-67.4 427.75,-23.73 427.75,-23.73 427.75,-23.73 580.69,-23.73 580.69,-23.73"/>
<polygon fill="#000000" fill-opacity="0.200000" stroke="#000000" stroke-width="2" stroke-opacity="0.200000" points="580.69,-25.83 586.69,-23.73 580.69,-21.63 580.69,-25.83"/>
</g>
<!-- src/formatters/regex.spec.ts&#45;&gt;src/formatters/regex.ts -->
<g id="edge16" class="edge">
<title>src/formatters/regex.spec.ts&#45;&gt;src/formatters/regex.ts</title>
<path fill="none" stroke="#000000" stroke-width="2" stroke-opacity="0.200000" d="M462.83,-93.04C462.83,-93.04 494.67,-93.04 494.67,-93.04"/>
<polygon fill="#000000" fill-opacity="0.200000" stroke="#000000" stroke-width="2" stroke-opacity="0.200000" points="494.67,-95.14 500.67,-93.04 494.67,-90.94 494.67,-95.14"/>
</g>
<!-- src/git&#45;primitives.spec.ts -->
<g id="node15" class="node">
<title>src/git&#45;primitives.spec.ts</title>
<g id="a_node15"><a xlink:href="vscode://file/${process.cwd()}/src/git-primitives.spec.ts" xlink:title="git&#45;primitives.spec.ts">
<path fill="#ccccff" stroke="black" d="M319.96,-276.88C319.96,-276.88 233.29,-276.88 233.29,-276.88 230.33,-276.88 227.38,-273.92 227.38,-270.96 227.38,-270.96 227.38,-265.04 227.38,-265.04 227.38,-262.08 230.33,-259.12 233.29,-259.12 233.29,-259.12 319.96,-259.12 319.96,-259.12 322.92,-259.12 325.88,-262.08 325.88,-265.04 325.88,-265.04 325.88,-270.96 325.88,-270.96 325.88,-273.92 322.92,-276.88 319.96,-276.88"/>
<text text-anchor="start" x="235.38" y="-264.32" font-family="Helvetica,sans-Serif" font-size="9.00">git&#45;primitives.spec.ts</text>
</a>
</g>
</g>
<!-- src/git&#45;primitives.spec.ts&#45;&gt;src/git&#45;primitives.ts -->
<g id="edge18" class="edge">
<title>src/git&#45;primitives.spec.ts&#45;&gt;src/git&#45;primitives.ts</title>
<path fill="none" stroke="#000000" stroke-width="2" stroke-opacity="0.200000" d="M322.75,-259.07C322.75,-243.71 322.75,-213.92 322.75,-213.92 322.75,-213.92 379.79,-213.92 379.79,-213.92"/>
<polygon fill="#000000" fill-opacity="0.200000" stroke="#000000" stroke-width="2" stroke-opacity="0.200000" points="379.79,-216.02 385.79,-213.92 379.79,-211.82 379.79,-216.02"/>
</g>
<!-- src/main.spec.ts -->
<g id="node17" class="node">
<title>src/main.spec.ts</title>
<g id="a_node17"><a xlink:href="vscode://file/${process.cwd()}/src/main.spec.ts" xlink:title="main.spec.ts">
<path fill="#ccccff" stroke="black" d="M182.21,-141.88C182.21,-141.88 127.04,-141.88 127.04,-141.88 124.08,-141.88 121.12,-138.92 121.12,-135.96 121.12,-135.96 121.12,-130.04 121.12,-130.04 121.12,-127.08 124.08,-124.12 127.04,-124.12 127.04,-124.12 182.21,-124.12 182.21,-124.12 185.17,-124.12 188.12,-127.08 188.12,-130.04 188.12,-130.04 188.12,-135.96 188.12,-135.96 188.12,-138.92 185.17,-141.88 182.21,-141.88"/>
<text text-anchor="start" x="129.12" y="-129.32" font-family="Helvetica,sans-Serif" font-size="9.00">main.spec.ts</text>
</a>
</g>
</g>
<!-- src/main.spec.ts&#45;&gt;types/watskeburt.d.ts -->
<g id="edge19" class="edge">
<title>src/main.spec.ts&#45;&gt;types/watskeburt.d.ts</title>
<path fill="none" stroke="#000000" stroke-width="2" stroke-opacity="0.200000" d="M154.75,-123.64C154.75,-96.34 154.75,-18.66 154.75,-18.66 154.75,-18.66 580.62,-18.66 580.62,-18.66"/>
<polygon fill="#000000" fill-opacity="0.200000" stroke="#000000" stroke-width="2" stroke-opacity="0.200000" points="580.62,-20.76 586.62,-18.66 580.62,-16.56 580.62,-20.76"/>
</g>
<!-- src/main.spec.ts&#45;&gt;src/main.ts -->
<g id="edge20" class="edge">
<title>src/main.spec.ts&#45;&gt;src/main.ts</title>
<path fill="none" stroke="#000000" stroke-width="2" stroke-opacity="0.200000" d="M188.57,-138.38C221.89,-138.38 267.75,-138.38 267.75,-138.38 267.75,-138.38 267.75,-189.9 267.75,-189.9"/>
<polygon fill="#000000" fill-opacity="0.200000" stroke="#000000" stroke-width="2" stroke-opacity="0.200000" points="265.65,-189.9 267.75,-195.9 269.85,-189.9 265.65,-189.9"/>
</g>
</g>
</svg>
