<?xml version="1.0" encoding="UTF-8" standalone="no"?>
<!DOCTYPE svg PUBLIC "-//W3C//DTD SVG 1.1//EN"
 "http://www.w3.org/Graphics/SVG/1.1/DTD/svg11.dtd">
<!-- Generated by graphviz version 3.0.0 (20220226.1711)
 -->
<!-- Title: dependency&#45;cruiser output Pages: 1 -->
<svg width="489pt" height="256pt"
 viewBox="0.00 0.00 489.00 256.00" xmlns="http://www.w3.org/2000/svg" xmlns:xlink="http://www.w3.org/1999/xlink">
<g id="graph0" class="graph" transform="scale(1 1) rotate(0) translate(4 252)">
<title>dependency&#45;cruiser output</title>
<polygon fill="white" stroke="transparent" points="-4,4 -4,-252 485,-252 485,4 -4,4"/>
<g id="clust1" class="cluster">
<title>cluster_src</title>
<path fill="#ffffff" stroke="black" stroke-width="2" d="M20,-8C20,-8 461,-8 461,-8 467,-8 473,-14 473,-20 473,-20 473,-228 473,-228 473,-234 467,-240 461,-240 461,-240 20,-240 20,-240 14,-240 8,-234 8,-228 8,-228 8,-20 8,-20 8,-14 14,-8 20,-8"/>
<text text-anchor="middle" x="240.5" y="-228.8" font-family="Helvetica,sans-Serif" font-weight="bold" font-size="9.00">src</text>
</g>
<g id="clust2" class="cluster">
<title>cluster_src/formatters</title>
<path fill="#ffffff" stroke="black" stroke-width="2" d="M125.5,-102C125.5,-102 453,-102 453,-102 459,-102 465,-108 465,-114 465,-114 465,-202 465,-202 465,-208 459,-214 453,-214 453,-214 125.5,-214 125.5,-214 119.5,-214 113.5,-208 113.5,-202 113.5,-202 113.5,-114 113.5,-114 113.5,-108 119.5,-102 125.5,-102"/>
<text text-anchor="middle" x="289.25" y="-202.8" font-family="Helvetica,sans-Serif" font-weight="bold" font-size="9.00">formatters</text>
</g>
<!-- src/cli.mjs -->
<g id="node1" class="node">
<title>src/cli.mjs</title>
<g id="a_node1"><a xlink:href="src/cli.mjs" xlink:title="cli.mjs">
<path fill="#ffffcc" stroke="black" d="M64,-94C64,-94 22,-94 22,-94 19,-94 16,-91 16,-88 16,-88 16,-82 16,-82 16,-79 19,-76 22,-76 22,-76 64,-76 64,-76 67,-76 70,-79 70,-82 70,-82 70,-88 70,-88 70,-91 67,-94 64,-94"/>
<text text-anchor="start" x="30" y="-82.8" font-family="Helvetica,sans-Serif" font-size="9.00">cli.mjs</text>
</a>
</g>
</g>
<!-- src/main.mjs -->
<g id="node2" class="node">
<title>src/main.mjs</title>
<g id="a_node2"><a xlink:href="src/main.mjs" xlink:title="main.mjs">
<path fill="#ffffcc" stroke="black" d="M182.5,-94C182.5,-94 140.5,-94 140.5,-94 137.5,-94 134.5,-91 134.5,-88 134.5,-88 134.5,-82 134.5,-82 134.5,-79 137.5,-76 140.5,-76 140.5,-76 182.5,-76 182.5,-76 185.5,-76 188.5,-79 188.5,-82 188.5,-82 188.5,-88 188.5,-88 188.5,-91 185.5,-94 182.5,-94"/>
<text text-anchor="start" x="143" y="-82.8" font-family="Helvetica,sans-Serif" font-size="9.00">main.mjs</text>
</a>
</g>
</g>
<!-- src/cli.mjs&#45;&gt;src/main.mjs -->
<g id="edge1" class="edge">
<title>src/cli.mjs&#45;&gt;src/main.mjs</title>
<path fill="none" stroke="#000000" stroke-width="2" stroke-opacity="0.200000" d="M70.19,-85C70.19,-85 128.44,-85 128.44,-85"/>
<polygon fill="#000000" fill-opacity="0.200000" stroke="#000000" stroke-width="2" stroke-opacity="0.200000" points="128.44,-87.1 134.44,-85 128.44,-82.9 128.44,-87.1"/>
</g>
<!-- src/convert&#45;to&#45;change&#45;object.mjs -->
<g id="node3" class="node">
<title>src/convert&#45;to&#45;change&#45;object.mjs</title>
<g id="a_node3"><a xlink:href="src/convert-to-change-object.mjs" xlink:title="convert&#45;to&#45;change&#45;object.mjs">
<path fill="#ffffcc" stroke="black" d="M382,-49C382,-49 259,-49 259,-49 256,-49 253,-46 253,-43 253,-43 253,-37 253,-37 253,-34 256,-31 259,-31 259,-31 382,-31 382,-31 385,-31 388,-34 388,-37 388,-37 388,-43 388,-43 388,-46 385,-49 382,-49"/>
<text text-anchor="start" x="261" y="-37.8" font-family="Helvetica,sans-Serif" font-size="9.00">convert&#45;to&#45;change&#45;object.mjs</text>
</a>
</g>
</g>
<!-- src/main.mjs&#45;&gt;src/convert&#45;to&#45;change&#45;object.mjs -->
<g id="edge9" class="edge">
<title>src/main.mjs&#45;&gt;src/convert&#45;to&#45;change&#45;object.mjs</title>
<path fill="none" stroke="#000000" stroke-width="2" stroke-opacity="0.200000" d="M188.68,-79.33C219.65,-79.33 266,-79.33 266,-79.33 266,-79.33 266,-55.12 266,-55.12"/>
<polygon fill="#000000" fill-opacity="0.200000" stroke="#000000" stroke-width="2" stroke-opacity="0.200000" points="268.1,-55.12 266,-49.12 263.9,-55.12 268.1,-55.12"/>
</g>
<!-- src/formatters/format.mjs -->
<g id="node5" class="node">
<title>src/formatters/format.mjs</title>
<g id="a_node5"><a xlink:href="src/formatters/format.mjs" xlink:title="format.mjs">
<path fill="#ffffcc" stroke="black" d="M344,-158C344,-158 297,-158 297,-158 294,-158 291,-155 291,-152 291,-152 291,-146 291,-146 291,-143 294,-140 297,-140 297,-140 344,-140 344,-140 347,-140 350,-143 350,-146 350,-146 350,-152 350,-152 350,-155 347,-158 344,-158"/>
<text text-anchor="start" x="299" y="-146.8" font-family="Helvetica,sans-Serif" font-size="9.00">format.mjs</text>
</a>
</g>
</g>
<!-- src/main.mjs&#45;&gt;src/formatters/format.mjs -->
<g id="edge10" class="edge">
<title>src/main.mjs&#45;&gt;src/formatters/format.mjs</title>
<path fill="none" stroke="#000000" stroke-width="2" stroke-opacity="0.200000" d="M188.55,-90C213.6,-90 247,-90 247,-90 247,-90 247,-146 247,-146 247,-146 284.6,-146 284.6,-146"/>
<polygon fill="#000000" fill-opacity="0.200000" stroke="#000000" stroke-width="2" stroke-opacity="0.200000" points="284.6,-148.1 290.6,-146 284.6,-143.9 284.6,-148.1"/>
</g>
<!-- src/get&#45;diff&#45;lines.mjs -->
<g id="node11" class="node">
<title>src/get&#45;diff&#45;lines.mjs</title>
<g id="a_node11"><a xlink:href="src/get-diff-lines.mjs" xlink:title="get&#45;diff&#45;lines.mjs">
<path fill="#ffffcc" stroke="black" d="M356,-86C356,-86 285,-86 285,-86 282,-86 279,-83 279,-80 279,-80 279,-74 279,-74 279,-71 282,-68 285,-68 285,-68 356,-68 356,-68 359,-68 362,-71 362,-74 362,-74 362,-80 362,-80 362,-83 359,-86 356,-86"/>
<text text-anchor="start" x="287" y="-74.8" font-family="Helvetica,sans-Serif" font-size="9.00">get&#45;diff&#45;lines.mjs</text>
</a>
</g>
</g>
<!-- src/main.mjs&#45;&gt;src/get&#45;diff&#45;lines.mjs -->
<g id="edge11" class="edge">
<title>src/main.mjs&#45;&gt;src/get&#45;diff&#45;lines.mjs</title>
<path fill="none" stroke="#000000" stroke-width="2" stroke-opacity="0.200000" d="M188.83,-82.67C188.83,-82.67 272.91,-82.67 272.91,-82.67"/>
<polygon fill="#000000" fill-opacity="0.200000" stroke="#000000" stroke-width="2" stroke-opacity="0.200000" points="272.91,-84.77 278.91,-82.67 272.91,-80.57 272.91,-84.77"/>
</g>
<!-- src/convert&#45;to&#45;change&#45;object.spec.mjs -->
<g id="node4" class="node">
<title>src/convert&#45;to&#45;change&#45;object.spec.mjs</title>
<g id="a_node4"><a xlink:href="src/convert-to-change-object.spec.mjs" xlink:title="convert&#45;to&#45;change&#45;object.spec.mjs">
<path fill="#ccccff" stroke="black" d="M234,-34C234,-34 89,-34 89,-34 86,-34 83,-31 83,-28 83,-28 83,-22 83,-22 83,-19 86,-16 89,-16 89,-16 234,-16 234,-16 237,-16 240,-19 240,-22 240,-22 240,-28 240,-28 240,-31 237,-34 234,-34"/>
<text text-anchor="start" x="91" y="-22.8" font-family="Helvetica,sans-Serif" font-size="9.00">convert&#45;to&#45;change&#45;object.spec.mjs</text>
</a>
</g>
</g>
<!-- src/convert&#45;to&#45;change&#45;object.spec.mjs&#45;&gt;src/convert&#45;to&#45;change&#45;object.mjs -->
<g id="edge2" class="edge">
<title>src/convert&#45;to&#45;change&#45;object.spec.mjs&#45;&gt;src/convert&#45;to&#45;change&#45;object.mjs</title>
<path fill="none" stroke="#000000" stroke-width="2" stroke-opacity="0.200000" d="M227,-34.24C227,-37.33 227,-40 227,-40 227,-40 246.55,-40 246.55,-40"/>
<polygon fill="#000000" fill-opacity="0.200000" stroke="#000000" stroke-width="2" stroke-opacity="0.200000" points="246.55,-42.1 252.55,-40 246.55,-37.9 246.55,-42.1"/>
</g>
<!-- src/formatters/json.mjs -->
<g id="node6" class="node">
<title>src/formatters/json.mjs</title>
<g id="a_node6"><a xlink:href="src/formatters/json.mjs" xlink:title="json.mjs">
<path fill="#ffffcc" stroke="black" d="M450,-143C450,-143 408,-143 408,-143 405,-143 402,-140 402,-137 402,-137 402,-131 402,-131 402,-128 405,-125 408,-125 408,-125 450,-125 450,-125 453,-125 456,-128 456,-131 456,-131 456,-137 456,-137 456,-140 453,-143 450,-143"/>
<text text-anchor="start" x="412" y="-131.8" font-family="Helvetica,sans-Serif" font-size="9.00">json.mjs</text>
</a>
</g>
</g>
<!-- src/formatters/format.mjs&#45;&gt;src/formatters/json.mjs -->
<g id="edge3" class="edge">
<title>src/formatters/format.mjs&#45;&gt;src/formatters/json.mjs</title>
<path fill="none" stroke="#000000" stroke-width="2" stroke-opacity="0.200000" d="M350.15,-150.5C382.27,-150.5 429,-150.5 429,-150.5 429,-150.5 429,-149.02 429,-149.02"/>
<polygon fill="#000000" fill-opacity="0.200000" stroke="#000000" stroke-width="2" stroke-opacity="0.200000" points="431.1,-149.02 429,-143.02 426.9,-149.02 431.1,-149.02"/>
</g>
<!-- src/formatters/regex.mjs -->
<g id="node7" class="node">
<title>src/formatters/regex.mjs</title>
<g id="a_node7"><a xlink:href="src/formatters/regex.mjs" xlink:title="regex.mjs">
<path fill="#ffffcc" stroke="black" d="M451,-180C451,-180 407,-180 407,-180 404,-180 401,-177 401,-174 401,-174 401,-168 401,-168 401,-165 404,-162 407,-162 407,-162 451,-162 451,-162 454,-162 457,-165 457,-168 457,-168 457,-174 457,-174 457,-177 454,-180 451,-180"/>
<text text-anchor="start" x="409" y="-168.8" font-family="Helvetica,sans-Serif" font-size="9.00">regex.mjs</text>
</a>
</g>
</g>
<!-- src/formatters/format.mjs&#45;&gt;src/formatters/regex.mjs -->
<g id="edge4" class="edge">
<title>src/formatters/format.mjs&#45;&gt;src/formatters/regex.mjs</title>
<path fill="none" stroke="#000000" stroke-width="2" stroke-opacity="0.200000" d="M321,-158.3C321,-162.26 321,-166 321,-166 321,-166 394.91,-166 394.91,-166"/>
<polygon fill="#000000" fill-opacity="0.200000" stroke="#000000" stroke-width="2" stroke-opacity="0.200000" points="394.91,-168.1 400.91,-166 394.91,-163.9 394.91,-168.1"/>
</g>
<!-- src/formatters/format.spec.mjs -->
<g id="node8" class="node">
<title>src/formatters/format.spec.mjs</title>
<g id="a_node8"><a xlink:href="src/formatters/format.spec.mjs" xlink:title="format.spec.mjs">
<path fill="#ccccff" stroke="black" d="M195.5,-158C195.5,-158 127.5,-158 127.5,-158 124.5,-158 121.5,-155 121.5,-152 121.5,-152 121.5,-146 121.5,-146 121.5,-143 124.5,-140 127.5,-140 127.5,-140 195.5,-140 195.5,-140 198.5,-140 201.5,-143 201.5,-146 201.5,-146 201.5,-152 201.5,-152 201.5,-155 198.5,-158 195.5,-158"/>
<text text-anchor="start" x="129.5" y="-146.8" font-family="Helvetica,sans-Serif" font-size="9.00">format.spec.mjs</text>
</a>
</g>
</g>
<!-- src/formatters/format.spec.mjs&#45;&gt;src/formatters/format.mjs -->
<g id="edge5" class="edge">
<title>src/formatters/format.spec.mjs&#45;&gt;src/formatters/format.mjs</title>
<path fill="none" stroke="#000000" stroke-width="2" stroke-opacity="0.200000" d="M201.62,-152C201.62,-152 284.93,-152 284.93,-152"/>
<polygon fill="#000000" fill-opacity="0.200000" stroke="#000000" stroke-width="2" stroke-opacity="0.200000" points="284.93,-154.1 290.93,-152 284.93,-149.9 284.93,-154.1"/>
</g>
<!-- src/formatters/json.spec.mjs -->
<g id="node9" class="node">
<title>src/formatters/json.spec.mjs</title>
<g id="a_node9"><a xlink:href="src/formatters/json.spec.mjs" xlink:title="json.spec.mjs">
<path fill="#ccccff" stroke="black" d="M350.5,-128C350.5,-128 290.5,-128 290.5,-128 287.5,-128 284.5,-125 284.5,-122 284.5,-122 284.5,-116 284.5,-116 284.5,-113 287.5,-110 290.5,-110 290.5,-110 350.5,-110 350.5,-110 353.5,-110 356.5,-113 356.5,-116 356.5,-116 356.5,-122 356.5,-122 356.5,-125 353.5,-128 350.5,-128"/>
<text text-anchor="start" x="292.5" y="-116.8" font-family="Helvetica,sans-Serif" font-size="9.00">json.spec.mjs</text>
</a>
</g>
</g>
<!-- src/formatters/json.spec.mjs&#45;&gt;src/formatters/json.mjs -->
<g id="edge6" class="edge">
<title>src/formatters/json.spec.mjs&#45;&gt;src/formatters/json.mjs</title>
<path fill="none" stroke="#000000" stroke-width="2" stroke-opacity="0.200000" d="M356.63,-117.5C388.19,-117.5 429,-117.5 429,-117.5 429,-117.5 429,-118.98 429,-118.98"/>
<polygon fill="#000000" fill-opacity="0.200000" stroke="#000000" stroke-width="2" stroke-opacity="0.200000" points="426.9,-118.98 429,-124.98 431.1,-118.98 426.9,-118.98"/>
</g>
<!-- src/formatters/regex.spec.mjs -->
<g id="node10" class="node">
<title>src/formatters/regex.spec.mjs</title>
<g id="a_node10"><a xlink:href="src/formatters/regex.spec.mjs" xlink:title="regex.spec.mjs">
<path fill="#ccccff" stroke="black" d="M353.5,-188C353.5,-188 287.5,-188 287.5,-188 284.5,-188 281.5,-185 281.5,-182 281.5,-182 281.5,-176 281.5,-176 281.5,-173 284.5,-170 287.5,-170 287.5,-170 353.5,-170 353.5,-170 356.5,-170 359.5,-173 359.5,-176 359.5,-176 359.5,-182 359.5,-182 359.5,-185 356.5,-188 353.5,-188"/>
<text text-anchor="start" x="289.5" y="-176.8" font-family="Helvetica,sans-Serif" font-size="9.00">regex.spec.mjs</text>
</a>
</g>
</g>
<!-- src/formatters/regex.spec.mjs&#45;&gt;src/formatters/regex.mjs -->
<g id="edge7" class="edge">
<title>src/formatters/regex.spec.mjs&#45;&gt;src/formatters/regex.mjs</title>
<path fill="none" stroke="#000000" stroke-width="2" stroke-opacity="0.200000" d="M359.67,-175C359.67,-175 394.78,-175 394.78,-175"/>
<polygon fill="#000000" fill-opacity="0.200000" stroke="#000000" stroke-width="2" stroke-opacity="0.200000" points="394.78,-177.1 400.78,-175 394.78,-172.9 394.78,-177.1"/>
</g>
<!-- src/get&#45;diff&#45;lines.spec.mjs -->
<g id="node12" class="node">
<title>src/get&#45;diff&#45;lines.spec.mjs</title>
<g id="a_node12"><a xlink:href="src/get-diff-lines.spec.mjs" xlink:title="get&#45;diff&#45;lines.spec.mjs">
<path fill="#ccccff" stroke="black" d="M208,-64C208,-64 115,-64 115,-64 112,-64 109,-61 109,-58 109,-58 109,-52 109,-52 109,-49 112,-46 115,-46 115,-46 208,-46 208,-46 211,-46 214,-49 214,-52 214,-52 214,-58 214,-58 214,-61 211,-64 208,-64"/>
<text text-anchor="start" x="117" y="-52.8" font-family="Helvetica,sans-Serif" font-size="9.00">get&#45;diff&#45;lines.spec.mjs</text>
</a>
</g>
</g>
<!-- src/get&#45;diff&#45;lines.spec.mjs&#45;&gt;src/get&#45;diff&#45;lines.mjs -->
<g id="edge8" class="edge">
<title>src/get&#45;diff&#45;lines.spec.mjs&#45;&gt;src/get&#45;diff&#45;lines.mjs</title>
<path fill="none" stroke="#000000" stroke-width="2" stroke-opacity="0.200000" d="M208,-64.3C208,-68.26 208,-72 208,-72 208,-72 272.93,-72 272.93,-72"/>
<polygon fill="#000000" fill-opacity="0.200000" stroke="#000000" stroke-width="2" stroke-opacity="0.200000" points="272.93,-74.1 278.93,-72 272.93,-69.9 272.93,-74.1"/>
</g>
</g>
</svg>
