<?xml version="1.0" encoding="UTF-8" standalone="no"?>
<!DOCTYPE svg PUBLIC "-//W3C//DTD SVG 1.1//EN"
 "http://www.w3.org/Graphics/SVG/1.1/DTD/svg11.dtd">
<!-- Generated by graphviz version 7.1.0 (20230121.1956)
 -->
<!-- Title: dependency&#45;cruiser output Pages: 1 -->
<svg width="569pt" height="526pt"
 viewBox="0.00 0.00 568.50 526.00" xmlns="http://www.w3.org/2000/svg" xmlns:xlink="http://www.w3.org/1999/xlink">
<g id="graph0" class="graph" transform="scale(1 1) rotate(0) translate(4 522)">
<title>dependency&#45;cruiser output</title>
<polygon fill="white" stroke="none" points="-4,4 -4,-522 564.5,-522 564.5,4 -4,4"/>
<g id="clust1" class="cluster">
<title>cluster_bin</title>
<path fill="#ffffff" stroke="black" stroke-width="2" d="M67.5,-218C67.5,-218 266,-218 266,-218 272,-218 278,-224 278,-230 278,-230 278,-258 278,-258 278,-264 272,-270 266,-270 266,-270 67.5,-270 67.5,-270 61.5,-270 55.5,-264 55.5,-258 55.5,-258 55.5,-230 55.5,-230 55.5,-224 61.5,-218 67.5,-218"/>
<text text-anchor="middle" x="166.75" y="-258.8" font-family="Helvetica,sans-Serif" font-weight="bold" font-size="9.00">bin</text>
</g>
<g id="clust2" class="cluster">
<title>cluster_dist</title>
<path fill="#ffffff" stroke="black" stroke-width="2" d="M211,-8C211,-8 540.5,-8 540.5,-8 546.5,-8 552.5,-14 552.5,-20 552.5,-20 552.5,-198 552.5,-198 552.5,-204 546.5,-210 540.5,-210 540.5,-210 211,-210 211,-210 205,-210 199,-204 199,-198 199,-198 199,-20 199,-20 199,-14 205,-8 211,-8"/>
<text text-anchor="middle" x="375.75" y="-198.8" font-family="Helvetica,sans-Serif" font-weight="bold" font-size="9.00">dist</text>
</g>
<g id="clust3" class="cluster">
<title>cluster_dist/esm</title>
<path fill="#ffffff" stroke="black" stroke-width="2" d="M219,-16C219,-16 532.5,-16 532.5,-16 538.5,-16 544.5,-22 544.5,-28 544.5,-28 544.5,-172 544.5,-172 544.5,-178 538.5,-184 532.5,-184 532.5,-184 219,-184 219,-184 213,-184 207,-178 207,-172 207,-172 207,-28 207,-28 207,-22 213,-16 219,-16"/>
<text text-anchor="middle" x="375.75" y="-172.8" font-family="Helvetica,sans-Serif" font-weight="bold" font-size="9.00">esm</text>
</g>
<g id="clust4" class="cluster">
<title>cluster_dist/esm/formatters</title>
<path fill="#ffffff" stroke="black" stroke-width="2" d="M360,-50C360,-50 524.5,-50 524.5,-50 530.5,-50 536.5,-56 536.5,-62 536.5,-62 536.5,-120 536.5,-120 536.5,-126 530.5,-132 524.5,-132 524.5,-132 360,-132 360,-132 354,-132 348,-126 348,-120 348,-120 348,-62 348,-62 348,-56 354,-50 360,-50"/>
<text text-anchor="middle" x="442.25" y="-120.8" font-family="Helvetica,sans-Serif" font-weight="bold" font-size="9.00">formatters</text>
</g>
<g id="clust5" class="cluster">
<title>cluster_src</title>
<path fill="#ffffff" stroke="black" stroke-width="2" d="M20,-278C20,-278 414,-278 414,-278 420,-278 426,-284 426,-290 426,-290 426,-498 426,-498 426,-504 420,-510 414,-510 414,-510 20,-510 20,-510 14,-510 8,-504 8,-498 8,-498 8,-290 8,-290 8,-284 14,-278 20,-278"/>
<text text-anchor="middle" x="217" y="-498.8" font-family="Helvetica,sans-Serif" font-weight="bold" font-size="9.00">src</text>
</g>
<g id="clust6" class="cluster">
<title>cluster_src/formatters</title>
<path fill="#ffffff" stroke="black" stroke-width="2" d="M58,-372C58,-372 406,-372 406,-372 412,-372 418,-378 418,-384 418,-384 418,-472 418,-472 418,-478 412,-484 406,-484 406,-484 58,-484 58,-484 52,-484 46,-478 46,-472 46,-472 46,-384 46,-384 46,-378 52,-372 58,-372"/>
<text text-anchor="middle" x="232" y="-472.8" font-family="Helvetica,sans-Serif" font-weight="bold" font-size="9.00">formatters</text>
</g>
<g id="clust7" class="cluster">
<title>cluster_types</title>
<path fill="#ffffff" stroke="black" stroke-width="2" d="M467,-344C467,-344 536,-344 536,-344 542,-344 548,-350 548,-356 548,-356 548,-384 548,-384 548,-390 542,-396 536,-396 536,-396 467,-396 467,-396 461,-396 455,-390 455,-384 455,-384 455,-356 455,-356 455,-350 461,-344 467,-344"/>
<text text-anchor="middle" x="501.5" y="-384.8" font-family="Helvetica,sans-Serif" font-weight="bold" font-size="9.00">types</text>
</g>
<!-- bin/cli.js -->
<g id="node1" class="node">
<title>bin/cli.js</title>
<g id="a_node1"><a xlink:href="vscode://file/${process.cwd()}/bin/cli.js" xlink:title="cli.js">
<path fill="#ffffcc" stroke="black" d="M111.5,-244C111.5,-244 69.5,-244 69.5,-244 66.5,-244 63.5,-241 63.5,-238 63.5,-238 63.5,-232 63.5,-232 63.5,-229 66.5,-226 69.5,-226 69.5,-226 111.5,-226 111.5,-226 114.5,-226 117.5,-229 117.5,-232 117.5,-232 117.5,-238 117.5,-238 117.5,-241 114.5,-244 111.5,-244"/>
<text text-anchor="start" x="81" y="-232.8" font-family="Helvetica,sans-Serif" font-size="9.00">cli.js</text>
</a>
</g>
</g>
<!-- dist/esm/main.js -->
<g id="node2" class="node">
<title>dist/esm/main.js</title>
<g id="a_node2"><a xlink:href="vscode://file/${process.cwd()}/dist/esm/main.js" xlink:title="main.js">
<path fill="#ffffcc" stroke="black" d="M263,-132C263,-132 221,-132 221,-132 218,-132 215,-129 215,-126 215,-126 215,-120 215,-120 215,-117 218,-114 221,-114 221,-114 263,-114 263,-114 266,-114 269,-117 269,-120 269,-120 269,-126 269,-126 269,-129 266,-132 263,-132"/>
<text text-anchor="start" x="227" y="-120.8" font-family="Helvetica,sans-Serif" font-size="9.00">main.js</text>
</a>
</g>
</g>
<!-- bin/cli.js&#45;&gt;dist/esm/main.js -->
<g id="edge1" class="edge">
<title>bin/cli.js&#45;&gt;dist/esm/main.js</title>
<path fill="none" stroke="#000000" stroke-width="2" stroke-opacity="0.200000" d="M90.5,-225.83C90.5,-199.09 90.5,-123 90.5,-123 90.5,-123 205.54,-123 205.54,-123"/>
<polygon fill="#000000" fill-opacity="0.200000" stroke="#000000" stroke-width="2" stroke-opacity="0.200000" points="205.54,-125.1 211.54,-123 205.54,-120.9 205.54,-125.1"/>
</g>
<!-- bin/version.js -->
<g id="node3" class="node">
<title>bin/version.js</title>
<g id="a_node3"><a xlink:href="vscode://file/${process.cwd()}/bin/version.js" xlink:title="version.js">
<path fill="#ffffcc" stroke="black" d="M264,-244C264,-244 220,-244 220,-244 217,-244 214,-241 214,-238 214,-238 214,-232 214,-232 214,-229 217,-226 220,-226 220,-226 264,-226 264,-226 267,-226 270,-229 270,-232 270,-232 270,-238 270,-238 270,-241 267,-244 264,-244"/>
<text text-anchor="start" x="222" y="-232.8" font-family="Helvetica,sans-Serif" font-size="9.00">version.js</text>
</a>
</g>
</g>
<!-- bin/cli.js&#45;&gt;bin/version.js -->
<g id="edge2" class="edge">
<title>bin/cli.js&#45;&gt;bin/version.js</title>
<path fill="none" stroke="#000000" stroke-width="2" stroke-opacity="0.200000" d="M117.94,-235C117.94,-235 204.71,-235 204.71,-235"/>
<polygon fill="#000000" fill-opacity="0.200000" stroke="#000000" stroke-width="2" stroke-opacity="0.200000" points="204.71,-237.1 210.71,-235 204.71,-232.9 204.71,-237.1"/>
</g>
<!-- dist/esm/convert&#45;to&#45;change&#45;object.js -->
<g id="node4" class="node">
<title>dist/esm/convert&#45;to&#45;change&#45;object.js</title>
<g id="a_node4"><a xlink:href="vscode://file/${process.cwd()}/dist/esm/convert-to-change-object.js" xlink:title="convert&#45;to&#45;change&#45;object.js">
<path fill="#ffffcc" stroke="black" d="M441,-42C441,-42 325,-42 325,-42 322,-42 319,-39 319,-36 319,-36 319,-30 319,-30 319,-27 322,-24 325,-24 325,-24 441,-24 441,-24 444,-24 447,-27 447,-30 447,-30 447,-36 447,-36 447,-39 444,-42 441,-42"/>
<text text-anchor="start" x="327" y="-30.8" font-family="Helvetica,sans-Serif" font-size="9.00">convert&#45;to&#45;change&#45;object.js</text>
</a>
</g>
</g>
<!-- dist/esm/main.js&#45;&gt;dist/esm/convert&#45;to&#45;change&#45;object.js -->
<g id="edge5" class="edge">
<title>dist/esm/main.js&#45;&gt;dist/esm/convert&#45;to&#45;change&#45;object.js</title>
<path fill="none" stroke="#000000" stroke-width="2" stroke-opacity="0.200000" d="M269.15,-120C295.81,-120 332.5,-120 332.5,-120 332.5,-120 332.5,-51.34 332.5,-51.34"/>
<polygon fill="#000000" fill-opacity="0.200000" stroke="#000000" stroke-width="2" stroke-opacity="0.200000" points="334.6,-51.34 332.5,-45.34 330.4,-51.34 334.6,-51.34"/>
</g>
<!-- dist/esm/formatters/format.js -->
<g id="node5" class="node">
<title>dist/esm/formatters/format.js</title>
<g id="a_node5"><a xlink:href="vscode://file/${process.cwd()}/dist/esm/formatters/format.js" xlink:title="format.js">
<path fill="#ffffcc" stroke="black" d="M404,-106C404,-106 362,-106 362,-106 359,-106 356,-103 356,-100 356,-100 356,-94 356,-94 356,-91 359,-88 362,-88 362,-88 404,-88 404,-88 407,-88 410,-91 410,-94 410,-94 410,-100 410,-100 410,-103 407,-106 404,-106"/>
<text text-anchor="start" x="365.5" y="-94.8" font-family="Helvetica,sans-Serif" font-size="9.00">format.js</text>
</a>
</g>
</g>
<!-- dist/esm/main.js&#45;&gt;dist/esm/formatters/format.js -->
<g id="edge6" class="edge">
<title>dist/esm/main.js&#45;&gt;dist/esm/formatters/format.js</title>
<path fill="none" stroke="#000000" stroke-width="2" stroke-opacity="0.200000" d="M242.5,-113.61C242.5,-106.17 242.5,-97 242.5,-97 242.5,-97 346.55,-97 346.55,-97"/>
<polygon fill="#000000" fill-opacity="0.200000" stroke="#000000" stroke-width="2" stroke-opacity="0.200000" points="346.55,-99.1 352.55,-97 346.55,-94.9 346.55,-99.1"/>
</g>
<!-- dist/esm/git&#45;primitives.js -->
<g id="node8" class="node">
<title>dist/esm/git&#45;primitives.js</title>
<g id="a_node8"><a xlink:href="vscode://file/${process.cwd()}/dist/esm/git-primitives.js" xlink:title="git&#45;primitives.js">
<path fill="#ffffcc" stroke="black" d="M415.5,-158C415.5,-158 350.5,-158 350.5,-158 347.5,-158 344.5,-155 344.5,-152 344.5,-152 344.5,-146 344.5,-146 344.5,-143 347.5,-140 350.5,-140 350.5,-140 415.5,-140 415.5,-140 418.5,-140 421.5,-143 421.5,-146 421.5,-146 421.5,-152 421.5,-152 421.5,-155 418.5,-158 415.5,-158"/>
<text text-anchor="start" x="352.5" y="-146.8" font-family="Helvetica,sans-Serif" font-size="9.00">git&#45;primitives.js</text>
</a>
</g>
</g>
<!-- dist/esm/main.js&#45;&gt;dist/esm/git&#45;primitives.js -->
<g id="edge7" class="edge">
<title>dist/esm/main.js&#45;&gt;dist/esm/git&#45;primitives.js</title>
<path fill="none" stroke="#000000" stroke-width="2" stroke-opacity="0.200000" d="M269.38,-126C301.52,-126 350.5,-126 350.5,-126 350.5,-126 350.5,-130.62 350.5,-130.62"/>
<polygon fill="#000000" fill-opacity="0.200000" stroke="#000000" stroke-width="2" stroke-opacity="0.200000" points="348.4,-130.62 350.5,-136.62 352.6,-130.62 348.4,-130.62"/>
</g>
<!-- dist/esm/formatters/json.js -->
<g id="node6" class="node">
<title>dist/esm/formatters/json.js</title>
<g id="a_node6"><a xlink:href="vscode://file/${process.cwd()}/dist/esm/formatters/json.js" xlink:title="json.js">
<path fill="#ffffcc" stroke="black" d="M522.5,-106C522.5,-106 480.5,-106 480.5,-106 477.5,-106 474.5,-103 474.5,-100 474.5,-100 474.5,-94 474.5,-94 474.5,-91 477.5,-88 480.5,-88 480.5,-88 522.5,-88 522.5,-88 525.5,-88 528.5,-91 528.5,-94 528.5,-94 528.5,-100 528.5,-100 528.5,-103 525.5,-106 522.5,-106"/>
<text text-anchor="start" x="488" y="-94.8" font-family="Helvetica,sans-Serif" font-size="9.00">json.js</text>
</a>
</g>
</g>
<!-- dist/esm/formatters/format.js&#45;&gt;dist/esm/formatters/json.js -->
<g id="edge3" class="edge">
<title>dist/esm/formatters/format.js&#45;&gt;dist/esm/formatters/json.js</title>
<path fill="none" stroke="#000000" stroke-width="2" stroke-opacity="0.200000" d="M410.48,-97C410.48,-97 465.14,-97 465.14,-97"/>
<polygon fill="#000000" fill-opacity="0.200000" stroke="#000000" stroke-width="2" stroke-opacity="0.200000" points="465.14,-99.1 471.14,-97 465.14,-94.9 465.14,-99.1"/>
</g>
<!-- dist/esm/formatters/regex.js -->
<g id="node7" class="node">
<title>dist/esm/formatters/regex.js</title>
<g id="a_node7"><a xlink:href="vscode://file/${process.cwd()}/dist/esm/formatters/regex.js" xlink:title="regex.js">
<path fill="#ffffcc" stroke="black" d="M522.5,-76C522.5,-76 480.5,-76 480.5,-76 477.5,-76 474.5,-73 474.5,-70 474.5,-70 474.5,-64 474.5,-64 474.5,-61 477.5,-58 480.5,-58 480.5,-58 522.5,-58 522.5,-58 525.5,-58 528.5,-61 528.5,-64 528.5,-64 528.5,-70 528.5,-70 528.5,-73 525.5,-76 522.5,-76"/>
<text text-anchor="start" x="485" y="-64.8" font-family="Helvetica,sans-Serif" font-size="9.00">regex.js</text>
</a>
</g>
</g>
<!-- dist/esm/formatters/format.js&#45;&gt;dist/esm/formatters/regex.js -->
<g id="edge4" class="edge">
<title>dist/esm/formatters/format.js&#45;&gt;dist/esm/formatters/regex.js</title>
<path fill="none" stroke="#000000" stroke-width="2" stroke-opacity="0.200000" d="M383.5,-87.51C383.5,-78.72 383.5,-67 383.5,-67 383.5,-67 465.1,-67 465.1,-67"/>
<polygon fill="#000000" fill-opacity="0.200000" stroke="#000000" stroke-width="2" stroke-opacity="0.200000" points="465.1,-69.1 471.1,-67 465.1,-64.9 465.1,-69.1"/>
</g>
<!-- src/convert&#45;to&#45;change&#45;object.spec.ts -->
<g id="node9" class="node">
<title>src/convert&#45;to&#45;change&#45;object.spec.ts</title>
<g id="a_node9"><a xlink:href="vscode://file/${process.cwd()}/src/convert-to-change-object.spec.ts" xlink:title="convert&#45;to&#45;change&#45;object.spec.ts">
<path fill="#ccccff" stroke="black" d="M159,-304C159,-304 22,-304 22,-304 19,-304 16,-301 16,-298 16,-298 16,-292 16,-292 16,-289 19,-286 22,-286 22,-286 159,-286 159,-286 162,-286 165,-289 165,-292 165,-292 165,-298 165,-298 165,-301 162,-304 159,-304"/>
<text text-anchor="start" x="24" y="-292.8" font-family="Helvetica,sans-Serif" font-size="9.00">convert&#45;to&#45;change&#45;object.spec.ts</text>
</a>
</g>
</g>
<!-- src/convert&#45;to&#45;change&#45;object.ts -->
<g id="node10" class="node">
<title>src/convert&#45;to&#45;change&#45;object.ts</title>
<g id="a_node10"><a xlink:href="vscode://file/${process.cwd()}/src/convert-to-change-object.ts" xlink:title="convert&#45;to&#45;change&#45;object.ts">
<path fill="#ddfeff" stroke="black" d="M300,-334C300,-334 184,-334 184,-334 181,-334 178,-331 178,-328 178,-328 178,-322 178,-322 178,-319 181,-316 184,-316 184,-316 300,-316 300,-316 303,-316 306,-319 306,-322 306,-322 306,-328 306,-328 306,-331 303,-334 300,-334"/>
<text text-anchor="start" x="186" y="-322.8" font-family="Helvetica,sans-Serif" font-size="9.00">convert&#45;to&#45;change&#45;object.ts</text>
</a>
</g>
</g>
<!-- src/convert&#45;to&#45;change&#45;object.spec.ts&#45;&gt;src/convert&#45;to&#45;change&#45;object.ts -->
<g id="edge8" class="edge">
<title>src/convert&#45;to&#45;change&#45;object.spec.ts&#45;&gt;src/convert&#45;to&#45;change&#45;object.ts</title>
<path fill="none" stroke="#000000" stroke-width="2" stroke-opacity="0.200000" d="M159.5,-304.44C159.5,-311.38 159.5,-319.6 159.5,-319.6 159.5,-319.6 168.78,-319.6 168.78,-319.6"/>
<polygon fill="#000000" fill-opacity="0.200000" stroke="#000000" stroke-width="2" stroke-opacity="0.200000" points="168.78,-321.7 174.78,-319.6 168.78,-317.5 168.78,-321.7"/>
</g>
<!-- types/watskeburt.d.ts -->
<g id="node11" class="node">
<title>types/watskeburt.d.ts</title>
<g id="a_node11"><a xlink:href="vscode://file/${process.cwd()}/types/watskeburt.d.ts" xlink:title="watskeburt.d.ts">
<path fill="#ddfeff" stroke="black" d="M534,-370C534,-370 469,-370 469,-370 466,-370 463,-367 463,-364 463,-364 463,-358 463,-358 463,-355 466,-352 469,-352 469,-352 534,-352 534,-352 537,-352 540,-355 540,-358 540,-358 540,-364 540,-364 540,-367 537,-370 534,-370"/>
<text text-anchor="start" x="471" y="-358.8" font-family="Helvetica,sans-Serif" font-size="9.00">watskeburt.d.ts</text>
</a>
</g>
</g>
<!-- src/convert&#45;to&#45;change&#45;object.ts&#45;&gt;types/watskeburt.d.ts -->
<g id="edge9" class="edge">
<title>src/convert&#45;to&#45;change&#45;object.ts&#45;&gt;types/watskeburt.d.ts</title>
<path fill="none" stroke="#000000" stroke-width="2" stroke-opacity="0.200000" d="M306.23,-325C374.13,-325 471.5,-325 471.5,-325 471.5,-325 471.5,-342.51 471.5,-342.51"/>
<polygon fill="#000000" fill-opacity="0.200000" stroke="#000000" stroke-width="2" stroke-opacity="0.200000" points="469.4,-342.51 471.5,-348.51 473.6,-342.51 469.4,-342.51"/>
</g>
<!-- src/formatters/format.spec.ts -->
<g id="node12" class="node">
<title>src/formatters/format.spec.ts</title>
<g id="a_node12"><a xlink:href="vscode://file/${process.cwd()}/src/formatters/format.spec.ts" xlink:title="format.spec.ts">
<path fill="#ccccff" stroke="black" d="M121,-428C121,-428 60,-428 60,-428 57,-428 54,-425 54,-422 54,-422 54,-416 54,-416 54,-413 57,-410 60,-410 60,-410 121,-410 121,-410 124,-410 127,-413 127,-416 127,-416 127,-422 127,-422 127,-425 124,-428 121,-428"/>
<text text-anchor="start" x="62" y="-416.8" font-family="Helvetica,sans-Serif" font-size="9.00">format.spec.ts</text>
</a>
</g>
</g>
<!-- src/formatters/format.ts -->
<g id="node13" class="node">
<title>src/formatters/format.ts</title>
<g id="a_node13"><a xlink:href="vscode://file/${process.cwd()}/src/formatters/format.ts" xlink:title="format.ts">
<path fill="#ddfeff" stroke="black" d="M263,-428C263,-428 221,-428 221,-428 218,-428 215,-425 215,-422 215,-422 215,-416 215,-416 215,-413 218,-410 221,-410 221,-410 263,-410 263,-410 266,-410 269,-413 269,-416 269,-416 269,-422 269,-422 269,-425 266,-428 263,-428"/>
<text text-anchor="start" x="224.5" y="-416.8" font-family="Helvetica,sans-Serif" font-size="9.00">format.ts</text>
</a>
</g>
</g>
<!-- src/formatters/format.spec.ts&#45;&gt;src/formatters/format.ts -->
<g id="edge10" class="edge">
<title>src/formatters/format.spec.ts&#45;&gt;src/formatters/format.ts</title>
<path fill="none" stroke="#000000" stroke-width="2" stroke-opacity="0.200000" d="M127.17,-422C127.17,-422 205.66,-422 205.66,-422"/>
<polygon fill="#000000" fill-opacity="0.200000" stroke="#000000" stroke-width="2" stroke-opacity="0.200000" points="205.66,-424.1 211.66,-422 205.66,-419.9 205.66,-424.1"/>
</g>
<!-- src/formatters/format.ts&#45;&gt;types/watskeburt.d.ts -->
<g id="edge11" class="edge">
<title>src/formatters/format.ts&#45;&gt;types/watskeburt.d.ts</title>
<path fill="none" stroke="#000000" stroke-width="2" stroke-opacity="0.200000" d="M269.36,-414.5C279.91,-414.5 289.5,-414.5 289.5,-414.5 289.5,-414.5 289.5,-356 289.5,-356 289.5,-356 453.59,-356 453.59,-356"/>
<polygon fill="#000000" fill-opacity="0.200000" stroke="#000000" stroke-width="2" stroke-opacity="0.200000" points="453.59,-358.1 459.59,-356 453.59,-353.9 453.59,-358.1"/>
</g>
<!-- src/formatters/json.ts -->
<g id="node14" class="node">
<title>src/formatters/json.ts</title>
<g id="a_node14"><a xlink:href="vscode://file/${process.cwd()}/src/formatters/json.ts" xlink:title="json.ts">
<path fill="#ddfeff" stroke="black" d="M404,-428C404,-428 362,-428 362,-428 359,-428 356,-425 356,-422 356,-422 356,-416 356,-416 356,-413 359,-410 362,-410 362,-410 404,-410 404,-410 407,-410 410,-413 410,-416 410,-416 410,-422 410,-422 410,-425 407,-428 404,-428"/>
<text text-anchor="start" x="369.5" y="-416.8" font-family="Helvetica,sans-Serif" font-size="9.00">json.ts</text>
</a>
</g>
</g>
<!-- src/formatters/format.ts&#45;&gt;src/formatters/json.ts -->
<g id="edge12" class="edge">
<title>src/formatters/format.ts&#45;&gt;src/formatters/json.ts</title>
<path fill="none" stroke="#000000" stroke-width="2" stroke-opacity="0.200000" d="M269.19,-423.5C269.19,-423.5 346.87,-423.5 346.87,-423.5"/>
<polygon fill="#000000" fill-opacity="0.200000" stroke="#000000" stroke-width="2" stroke-opacity="0.200000" points="346.87,-425.6 352.87,-423.5 346.87,-421.4 346.87,-425.6"/>
</g>
<!-- src/formatters/regex.ts -->
<g id="node15" class="node">
<title>src/formatters/regex.ts</title>
<g id="a_node15"><a xlink:href="vscode://file/${process.cwd()}/src/formatters/regex.ts" xlink:title="regex.ts">
<path fill="#ddfeff" stroke="black" d="M404,-398C404,-398 362,-398 362,-398 359,-398 356,-395 356,-392 356,-392 356,-386 356,-386 356,-383 359,-380 362,-380 362,-380 404,-380 404,-380 407,-380 410,-383 410,-386 410,-386 410,-392 410,-392 410,-395 407,-398 404,-398"/>
<text text-anchor="start" x="366.5" y="-386.8" font-family="Helvetica,sans-Serif" font-size="9.00">regex.ts</text>
</a>
</g>
</g>
<!-- src/formatters/format.ts&#45;&gt;src/formatters/regex.ts -->
<g id="edge13" class="edge">
<title>src/formatters/format.ts&#45;&gt;src/formatters/regex.ts</title>
<path fill="none" stroke="#000000" stroke-width="2" stroke-opacity="0.200000" d="M269.42,-419C283.41,-419 297.5,-419 297.5,-419 297.5,-419 297.5,-392 297.5,-392 297.5,-392 346.92,-392 346.92,-392"/>
<polygon fill="#000000" fill-opacity="0.200000" stroke="#000000" stroke-width="2" stroke-opacity="0.200000" points="346.92,-394.1 352.92,-392 346.92,-389.9 346.92,-394.1"/>
</g>
<!-- src/formatters/json.ts&#45;&gt;types/watskeburt.d.ts -->
<g id="edge15" class="edge">
<title>src/formatters/json.ts&#45;&gt;types/watskeburt.d.ts</title>
<path fill="none" stroke="#000000" stroke-width="2" stroke-opacity="0.200000" d="M410.48,-419C445.49,-419 501.5,-419 501.5,-419 501.5,-419 501.5,-379.35 501.5,-379.35"/>
<polygon fill="#000000" fill-opacity="0.200000" stroke="#000000" stroke-width="2" stroke-opacity="0.200000" points="503.6,-379.35 501.5,-373.35 499.4,-379.35 503.6,-379.35"/>
</g>
<!-- src/formatters/regex.ts&#45;&gt;types/watskeburt.d.ts -->
<g id="edge17" class="edge">
<title>src/formatters/regex.ts&#45;&gt;types/watskeburt.d.ts</title>
<path fill="none" stroke="#000000" stroke-width="2" stroke-opacity="0.200000" d="M383.5,-379.5C383.5,-371.05 383.5,-360 383.5,-360 383.5,-360 453.51,-360 453.51,-360"/>
<polygon fill="#000000" fill-opacity="0.200000" stroke="#000000" stroke-width="2" stroke-opacity="0.200000" points="453.51,-362.1 459.51,-360 453.51,-357.9 453.51,-362.1"/>
</g>
<!-- src/formatters/json.spec.ts -->
<g id="node16" class="node">
<title>src/formatters/json.spec.ts</title>
<g id="a_node16"><a xlink:href="vscode://file/${process.cwd()}/src/formatters/json.spec.ts" xlink:title="json.spec.ts">
<path fill="#ccccff" stroke="black" d="M268.5,-458C268.5,-458 215.5,-458 215.5,-458 212.5,-458 209.5,-455 209.5,-452 209.5,-452 209.5,-446 209.5,-446 209.5,-443 212.5,-440 215.5,-440 215.5,-440 268.5,-440 268.5,-440 271.5,-440 274.5,-443 274.5,-446 274.5,-446 274.5,-452 274.5,-452 274.5,-455 271.5,-458 268.5,-458"/>
<text text-anchor="start" x="217.5" y="-446.8" font-family="Helvetica,sans-Serif" font-size="9.00">json.spec.ts</text>
</a>
</g>
</g>
<!-- src/formatters/json.spec.ts&#45;&gt;src/formatters/json.ts -->
<g id="edge14" class="edge">
<title>src/formatters/json.spec.ts&#45;&gt;src/formatters/json.ts</title>
<path fill="none" stroke="#000000" stroke-width="2" stroke-opacity="0.200000" d="M274.82,-449C316.62,-449 383.5,-449 383.5,-449 383.5,-449 383.5,-437.52 383.5,-437.52"/>
<polygon fill="#000000" fill-opacity="0.200000" stroke="#000000" stroke-width="2" stroke-opacity="0.200000" points="385.6,-437.52 383.5,-431.52 381.4,-437.52 385.6,-437.52"/>
</g>
<!-- src/formatters/regex.spec.ts -->
<g id="node17" class="node">
<title>src/formatters/regex.spec.ts</title>
<g id="a_node17"><a xlink:href="vscode://file/${process.cwd()}/src/formatters/regex.spec.ts" xlink:title="regex.spec.ts">
<path fill="#ccccff" stroke="black" d="M271.5,-398C271.5,-398 212.5,-398 212.5,-398 209.5,-398 206.5,-395 206.5,-392 206.5,-392 206.5,-386 206.5,-386 206.5,-383 209.5,-380 212.5,-380 212.5,-380 271.5,-380 271.5,-380 274.5,-380 277.5,-383 277.5,-386 277.5,-386 277.5,-392 277.5,-392 277.5,-395 274.5,-398 271.5,-398"/>
<text text-anchor="start" x="214.5" y="-386.8" font-family="Helvetica,sans-Serif" font-size="9.00">regex.spec.ts</text>
</a>
</g>
</g>
<!-- src/formatters/regex.spec.ts&#45;&gt;src/formatters/regex.ts -->
<g id="edge16" class="edge">
<title>src/formatters/regex.spec.ts&#45;&gt;src/formatters/regex.ts</title>
<path fill="none" stroke="#000000" stroke-width="2" stroke-opacity="0.200000" d="M277.95,-386C277.95,-386 346.55,-386 346.55,-386"/>
<polygon fill="#000000" fill-opacity="0.200000" stroke="#000000" stroke-width="2" stroke-opacity="0.200000" points="346.55,-388.1 352.55,-386 346.55,-383.9 346.55,-388.1"/>
</g>
<!-- src/git&#45;primitives.spec.ts -->
<g id="node18" class="node">
<title>src/git&#45;primitives.spec.ts</title>
<g id="a_node18"><a xlink:href="vscode://file/${process.cwd()}/src/git-primitives.spec.ts" xlink:title="git&#45;primitives.spec.ts">
<path fill="#ccccff" stroke="black" d="M134,-364C134,-364 47,-364 47,-364 44,-364 41,-361 41,-358 41,-358 41,-352 41,-352 41,-349 44,-346 47,-346 47,-346 134,-346 134,-346 137,-346 140,-349 140,-352 140,-352 140,-358 140,-358 140,-361 137,-364 134,-364"/>
<text text-anchor="start" x="49" y="-352.8" font-family="Helvetica,sans-Serif" font-size="9.00">git&#45;primitives.spec.ts</text>
</a>
</g>
</g>
<!-- src/git&#45;primitives.ts -->
<g id="node19" class="node">
<title>src/git&#45;primitives.ts</title>
<g id="a_node19"><a xlink:href="vscode://file/${process.cwd()}/src/git-primitives.ts" xlink:title="git&#45;primitives.ts">
<path fill="#ddfeff" stroke="black" d="M274.5,-364C274.5,-364 209.5,-364 209.5,-364 206.5,-364 203.5,-361 203.5,-358 203.5,-358 203.5,-352 203.5,-352 203.5,-349 206.5,-346 209.5,-346 209.5,-346 274.5,-346 274.5,-346 277.5,-346 280.5,-349 280.5,-352 280.5,-352 280.5,-358 280.5,-358 280.5,-361 277.5,-364 274.5,-364"/>
<text text-anchor="start" x="211.5" y="-352.8" font-family="Helvetica,sans-Serif" font-size="9.00">git&#45;primitives.ts</text>
</a>
</g>
</g>
<!-- src/git&#45;primitives.spec.ts&#45;&gt;src/git&#45;primitives.ts -->
<g id="edge18" class="edge">
<title>src/git&#45;primitives.spec.ts&#45;&gt;src/git&#45;primitives.ts</title>
<path fill="none" stroke="#000000" stroke-width="2" stroke-opacity="0.200000" d="M140.11,-358C140.11,-358 194.31,-358 194.31,-358"/>
<polygon fill="#000000" fill-opacity="0.200000" stroke="#000000" stroke-width="2" stroke-opacity="0.200000" points="194.31,-360.1 200.31,-358 194.31,-355.9 194.31,-360.1"/>
</g>
<!-- src/main.ts -->
<g id="node20" class="node">
<title>src/main.ts</title>
<g id="a_node20"><a xlink:href="vscode://file/${process.cwd()}/src/main.ts" xlink:title="main.ts">
<path fill="#ddfeff" stroke="black" d="M111.5,-334C111.5,-334 69.5,-334 69.5,-334 66.5,-334 63.5,-331 63.5,-328 63.5,-328 63.5,-322 63.5,-322 63.5,-319 66.5,-316 69.5,-316 69.5,-316 111.5,-316 111.5,-316 114.5,-316 117.5,-319 117.5,-322 117.5,-322 117.5,-328 117.5,-328 117.5,-331 114.5,-334 111.5,-334"/>
<text text-anchor="start" x="75.5" y="-322.8" font-family="Helvetica,sans-Serif" font-size="9.00">main.ts</text>
</a>
</g>
</g>
<!-- src/main.ts&#45;&gt;src/convert&#45;to&#45;change&#45;object.ts -->
<g id="edge20" class="edge">
<title>src/main.ts&#45;&gt;src/convert&#45;to&#45;change&#45;object.ts</title>
<path fill="none" stroke="#000000" stroke-width="2" stroke-opacity="0.200000" d="M117.94,-323.2C117.94,-323.2 168.63,-323.2 168.63,-323.2"/>
<polygon fill="#000000" fill-opacity="0.200000" stroke="#000000" stroke-width="2" stroke-opacity="0.200000" points="168.63,-325.3 174.63,-323.2 168.63,-321.1 168.63,-325.3"/>
</g>
<!-- src/main.ts&#45;&gt;types/watskeburt.d.ts -->
<g id="edge19" class="edge">
<title>src/main.ts&#45;&gt;types/watskeburt.d.ts</title>
<path fill="none" stroke="#000000" stroke-width="2" stroke-opacity="0.200000" d="M90.5,-334.24C90.5,-337.33 90.5,-340 90.5,-340 90.5,-340 467.5,-340 467.5,-340 467.5,-340 467.5,-342.95 467.5,-342.95"/>
<polygon fill="#000000" fill-opacity="0.200000" stroke="#000000" stroke-width="2" stroke-opacity="0.200000" points="465.4,-342.95 467.5,-348.95 469.6,-342.95 465.4,-342.95"/>
</g>
<!-- src/main.ts&#45;&gt;src/formatters/format.ts -->
<g id="edge21" class="edge">
<title>src/main.ts&#45;&gt;src/formatters/format.ts</title>
<path fill="none" stroke="#000000" stroke-width="2" stroke-opacity="0.200000" d="M117.84,-330.4C132.06,-330.4 146.5,-330.4 146.5,-330.4 146.5,-330.4 146.5,-416 146.5,-416 146.5,-416 205.61,-416 205.61,-416"/>
<polygon fill="#000000" fill-opacity="0.200000" stroke="#000000" stroke-width="2" stroke-opacity="0.200000" points="205.61,-418.1 211.61,-416 205.61,-413.9 205.61,-418.1"/>
</g>
<!-- src/main.ts&#45;&gt;src/git&#45;primitives.ts -->
<g id="edge22" class="edge">
<title>src/main.ts&#45;&gt;src/git&#45;primitives.ts</title>
<path fill="none" stroke="#000000" stroke-width="2" stroke-opacity="0.200000" d="M117.87,-326.8C134.48,-326.8 152.5,-326.8 152.5,-326.8 152.5,-326.8 152.5,-352 152.5,-352 152.5,-352 193.98,-352 193.98,-352"/>
<polygon fill="#000000" fill-opacity="0.200000" stroke="#000000" stroke-width="2" stroke-opacity="0.200000" points="193.98,-354.1 199.98,-352 193.98,-349.9 193.98,-354.1"/>
</g>
</g>
</svg>
