<?xml version="1.0" encoding="UTF-8" standalone="no"?>
<!DOCTYPE svg PUBLIC "-//W3C//DTD SVG 1.1//EN"
 "http://www.w3.org/Graphics/SVG/1.1/DTD/svg11.dtd">
<!-- Generated by graphviz version 7.0.6 (20230106.0513)
 -->
<!-- Title: dependency&#45;cruiser output Pages: 1 -->
<svg width="506pt" height="376pt"
 viewBox="0.00 0.00 506.00 376.00" xmlns="http://www.w3.org/2000/svg" xmlns:xlink="http://www.w3.org/1999/xlink">
<g id="graph0" class="graph" transform="scale(1 1) rotate(0) translate(4 372)">
<title>dependency&#45;cruiser output</title>
<polygon fill="white" stroke="none" points="-4,4 -4,-372 502,-372 502,4 -4,4"/>
<g id="clust1" class="cluster">
<title>cluster_bin</title>
<path fill="#ffffff" stroke="black" stroke-width="2" d="M67.5,-68C67.5,-68 269.5,-68 269.5,-68 275.5,-68 281.5,-74 281.5,-80 281.5,-80 281.5,-108 281.5,-108 281.5,-114 275.5,-120 269.5,-120 269.5,-120 67.5,-120 67.5,-120 61.5,-120 55.5,-114 55.5,-108 55.5,-108 55.5,-80 55.5,-80 55.5,-74 61.5,-68 67.5,-68"/>
<text text-anchor="middle" x="168.5" y="-108.8" font-family="Helvetica,sans-Serif" font-weight="bold" font-size="9.00">bin</text>
</g>
<g id="clust2" class="cluster">
<title>cluster_dist</title>
<path fill="#ffffff" stroke="black" stroke-width="2" d="M205,-8C205,-8 279,-8 279,-8 285,-8 291,-14 291,-20 291,-20 291,-48 291,-48 291,-54 285,-60 279,-60 279,-60 205,-60 205,-60 199,-60 193,-54 193,-48 193,-48 193,-20 193,-20 193,-14 199,-8 205,-8"/>
<text text-anchor="middle" x="242" y="-48.8" font-family="Helvetica,sans-Serif" font-weight="bold" font-size="9.00">dist</text>
</g>
<g id="clust3" class="cluster">
<title>cluster_src</title>
<path fill="#ffffff" stroke="black" stroke-width="2" d="M20,-128C20,-128 377,-128 377,-128 383,-128 389,-134 389,-140 389,-140 389,-348 389,-348 389,-354 383,-360 377,-360 377,-360 20,-360 20,-360 14,-360 8,-354 8,-348 8,-348 8,-140 8,-140 8,-134 14,-128 20,-128"/>
<text text-anchor="middle" x="198.5" y="-348.8" font-family="Helvetica,sans-Serif" font-weight="bold" font-size="9.00">src</text>
</g>
<g id="clust4" class="cluster">
<title>cluster_src/formatters</title>
<path fill="#ffffff" stroke="black" stroke-width="2" d="M58,-222C58,-222 369,-222 369,-222 375,-222 381,-228 381,-234 381,-234 381,-322 381,-322 381,-328 375,-334 369,-334 369,-334 58,-334 58,-334 52,-334 46,-328 46,-322 46,-322 46,-234 46,-234 46,-228 52,-222 58,-222"/>
<text text-anchor="middle" x="213.5" y="-322.8" font-family="Helvetica,sans-Serif" font-weight="bold" font-size="9.00">formatters</text>
</g>
<g id="clust5" class="cluster">
<title>cluster_types</title>
<path fill="#ffffff" stroke="black" stroke-width="2" d="M409,-194C409,-194 478,-194 478,-194 484,-194 490,-200 490,-206 490,-206 490,-234 490,-234 490,-240 484,-246 478,-246 478,-246 409,-246 409,-246 403,-246 397,-240 397,-234 397,-234 397,-206 397,-206 397,-200 403,-194 409,-194"/>
<text text-anchor="middle" x="443.5" y="-234.8" font-family="Helvetica,sans-Serif" font-weight="bold" font-size="9.00">types</text>
</g>
<!-- bin/cli.mjs -->
<g id="node1" class="node">
<title>bin/cli.mjs</title>
<g id="a_node1"><a xlink:href="vscode://file/${process.cwd()}/bin/cli.mjs" xlink:title="cli.mjs">
<path fill="#ffffcc" stroke="black" d="M111.5,-94C111.5,-94 69.5,-94 69.5,-94 66.5,-94 63.5,-91 63.5,-88 63.5,-88 63.5,-82 63.5,-82 63.5,-79 66.5,-76 69.5,-76 69.5,-76 111.5,-76 111.5,-76 114.5,-76 117.5,-79 117.5,-82 117.5,-82 117.5,-88 117.5,-88 117.5,-91 114.5,-94 111.5,-94"/>
<text text-anchor="start" x="77.5" y="-82.8" font-family="Helvetica,sans-Serif" font-size="9.00">cli.mjs</text>
</a>
</g>
</g>
<!-- dist/esm&#45;bundle.mjs -->
<g id="node2" class="node">
<title>dist/esm&#45;bundle.mjs</title>
<g id="a_node2"><a xlink:href="vscode://file/${process.cwd()}/dist/esm-bundle.mjs" xlink:title="esm&#45;bundle.mjs">
<path fill="#ffffcc" stroke="black" d="M277,-34C277,-34 207,-34 207,-34 204,-34 201,-31 201,-28 201,-28 201,-22 201,-22 201,-19 204,-16 207,-16 207,-16 277,-16 277,-16 280,-16 283,-19 283,-22 283,-22 283,-28 283,-28 283,-31 280,-34 277,-34"/>
<text text-anchor="start" x="209" y="-22.8" font-family="Helvetica,sans-Serif" font-size="9.00">esm&#45;bundle.mjs</text>
</a>
</g>
</g>
<!-- bin/cli.mjs&#45;&gt;dist/esm&#45;bundle.mjs -->
<g id="edge1" class="edge">
<title>bin/cli.mjs&#45;&gt;dist/esm&#45;bundle.mjs</title>
<path fill="none" stroke="#000000" stroke-width="2" stroke-opacity="0.200000" d="M117.87,-82C152.03,-82 206,-82 206,-82 206,-82 206,-43.44 206,-43.44"/>
<polygon fill="#000000" fill-opacity="0.200000" stroke="#000000" stroke-width="2" stroke-opacity="0.200000" points="208.1,-43.44 206,-37.44 203.9,-43.44 208.1,-43.44"/>
</g>
<!-- bin/version.mjs -->
<g id="node3" class="node">
<title>bin/version.mjs</title>
<g id="a_node3"><a xlink:href="vscode://file/${process.cwd()}/bin/version.mjs" xlink:title="version.mjs">
<path fill="#ffffcc" stroke="black" d="M267.5,-94C267.5,-94 216.5,-94 216.5,-94 213.5,-94 210.5,-91 210.5,-88 210.5,-88 210.5,-82 210.5,-82 210.5,-79 213.5,-76 216.5,-76 216.5,-76 267.5,-76 267.5,-76 270.5,-76 273.5,-79 273.5,-82 273.5,-82 273.5,-88 273.5,-88 273.5,-91 270.5,-94 267.5,-94"/>
<text text-anchor="start" x="218.5" y="-82.8" font-family="Helvetica,sans-Serif" font-size="9.00">version.mjs</text>
</a>
</g>
</g>
<!-- bin/cli.mjs&#45;&gt;bin/version.mjs -->
<g id="edge2" class="edge">
<title>bin/cli.mjs&#45;&gt;bin/version.mjs</title>
<path fill="none" stroke="#000000" stroke-width="2" stroke-opacity="0.200000" d="M117.94,-88C117.94,-88 201.02,-88 201.02,-88"/>
<polygon fill="#000000" fill-opacity="0.200000" stroke="#000000" stroke-width="2" stroke-opacity="0.200000" points="201.02,-90.1 207.02,-88 201.02,-85.9 201.02,-90.1"/>
</g>
<!-- src/convert&#45;to&#45;change&#45;object.spec.ts -->
<g id="node4" class="node">
<title>src/convert&#45;to&#45;change&#45;object.spec.ts</title>
<g id="a_node4"><a xlink:href="vscode://file/${process.cwd()}/src/convert-to-change-object.spec.ts" xlink:title="convert&#45;to&#45;change&#45;object.spec.ts">
<path fill="#ccccff" stroke="black" d="M159,-154C159,-154 22,-154 22,-154 19,-154 16,-151 16,-148 16,-148 16,-142 16,-142 16,-139 19,-136 22,-136 22,-136 159,-136 159,-136 162,-136 165,-139 165,-142 165,-142 165,-148 165,-148 165,-151 162,-154 159,-154"/>
<text text-anchor="start" x="24" y="-142.8" font-family="Helvetica,sans-Serif" font-size="9.00">convert&#45;to&#45;change&#45;object.spec.ts</text>
</a>
</g>
</g>
<!-- src/convert&#45;to&#45;change&#45;object.ts -->
<g id="node5" class="node">
<title>src/convert&#45;to&#45;change&#45;object.ts</title>
<g id="a_node5"><a xlink:href="vscode://file/${process.cwd()}/src/convert-to-change-object.ts" xlink:title="convert&#45;to&#45;change&#45;object.ts">
<path fill="#ddfeff" stroke="black" d="M300,-184C300,-184 184,-184 184,-184 181,-184 178,-181 178,-178 178,-178 178,-172 178,-172 178,-169 181,-166 184,-166 184,-166 300,-166 300,-166 303,-166 306,-169 306,-172 306,-172 306,-178 306,-178 306,-181 303,-184 300,-184"/>
<text text-anchor="start" x="186" y="-172.8" font-family="Helvetica,sans-Serif" font-size="9.00">convert&#45;to&#45;change&#45;object.ts</text>
</a>
</g>
</g>
<!-- src/convert&#45;to&#45;change&#45;object.spec.ts&#45;&gt;src/convert&#45;to&#45;change&#45;object.ts -->
<g id="edge3" class="edge">
<title>src/convert&#45;to&#45;change&#45;object.spec.ts&#45;&gt;src/convert&#45;to&#45;change&#45;object.ts</title>
<path fill="none" stroke="#000000" stroke-width="2" stroke-opacity="0.200000" d="M165.4,-145C179.54,-145 190,-145 190,-145 190,-145 190,-156.48 190,-156.48"/>
<polygon fill="#000000" fill-opacity="0.200000" stroke="#000000" stroke-width="2" stroke-opacity="0.200000" points="187.9,-156.48 190,-162.48 192.1,-156.48 187.9,-156.48"/>
</g>
<!-- types/watskeburt.d.ts -->
<g id="node6" class="node">
<title>types/watskeburt.d.ts</title>
<g id="a_node6"><a xlink:href="vscode://file/${process.cwd()}/types/watskeburt.d.ts" xlink:title="watskeburt.d.ts">
<path fill="#ddfeff" stroke="black" d="M476,-220C476,-220 411,-220 411,-220 408,-220 405,-217 405,-214 405,-214 405,-208 405,-208 405,-205 408,-202 411,-202 411,-202 476,-202 476,-202 479,-202 482,-205 482,-208 482,-208 482,-214 482,-214 482,-217 479,-220 476,-220"/>
<text text-anchor="start" x="413" y="-208.8" font-family="Helvetica,sans-Serif" font-size="9.00">watskeburt.d.ts</text>
</a>
</g>
</g>
<!-- src/convert&#45;to&#45;change&#45;object.ts&#45;&gt;types/watskeburt.d.ts -->
<g id="edge4" class="edge">
<title>src/convert&#45;to&#45;change&#45;object.ts&#45;&gt;types/watskeburt.d.ts</title>
<path fill="none" stroke="#000000" stroke-width="2" stroke-opacity="0.200000" d="M287,-184.49C287,-193.28 287,-205 287,-205 287,-205 395.79,-205 395.79,-205"/>
<polygon fill="#000000" fill-opacity="0.200000" stroke="#000000" stroke-width="2" stroke-opacity="0.200000" points="395.79,-207.1 401.79,-205 395.79,-202.9 395.79,-207.1"/>
</g>
<!-- src/formatters/format.spec.ts -->
<g id="node7" class="node">
<title>src/formatters/format.spec.ts</title>
<g id="a_node7"><a xlink:href="vscode://file/${process.cwd()}/src/formatters/format.spec.ts" xlink:title="format.spec.ts">
<path fill="#ccccff" stroke="black" d="M121,-248C121,-248 60,-248 60,-248 57,-248 54,-245 54,-242 54,-242 54,-236 54,-236 54,-233 57,-230 60,-230 60,-230 121,-230 121,-230 124,-230 127,-233 127,-236 127,-236 127,-242 127,-242 127,-245 124,-248 121,-248"/>
<text text-anchor="start" x="62" y="-236.8" font-family="Helvetica,sans-Serif" font-size="9.00">format.spec.ts</text>
</a>
</g>
</g>
<!-- src/formatters/format.ts -->
<g id="node8" class="node">
<title>src/formatters/format.ts</title>
<g id="a_node8"><a xlink:href="vscode://file/${process.cwd()}/src/formatters/format.ts" xlink:title="format.ts">
<path fill="#ddfeff" stroke="black" d="M263,-248C263,-248 221,-248 221,-248 218,-248 215,-245 215,-242 215,-242 215,-236 215,-236 215,-233 218,-230 221,-230 221,-230 263,-230 263,-230 266,-230 269,-233 269,-236 269,-236 269,-242 269,-242 269,-245 266,-248 263,-248"/>
<text text-anchor="start" x="224.5" y="-236.8" font-family="Helvetica,sans-Serif" font-size="9.00">format.ts</text>
</a>
</g>
</g>
<!-- src/formatters/format.spec.ts&#45;&gt;src/formatters/format.ts -->
<g id="edge5" class="edge">
<title>src/formatters/format.spec.ts&#45;&gt;src/formatters/format.ts</title>
<path fill="none" stroke="#000000" stroke-width="2" stroke-opacity="0.200000" d="M127.17,-242C127.17,-242 205.66,-242 205.66,-242"/>
<polygon fill="#000000" fill-opacity="0.200000" stroke="#000000" stroke-width="2" stroke-opacity="0.200000" points="205.66,-244.1 211.66,-242 205.66,-239.9 205.66,-244.1"/>
</g>
<!-- src/formatters/format.ts&#45;&gt;types/watskeburt.d.ts -->
<g id="edge6" class="edge">
<title>src/formatters/format.ts&#45;&gt;types/watskeburt.d.ts</title>
<path fill="none" stroke="#000000" stroke-width="2" stroke-opacity="0.200000" d="M269.22,-233.6C281.8,-233.6 294,-233.6 294,-233.6 294,-233.6 294,-208 294,-208 294,-208 395.58,-208 395.58,-208"/>
<polygon fill="#000000" fill-opacity="0.200000" stroke="#000000" stroke-width="2" stroke-opacity="0.200000" points="395.58,-210.1 401.58,-208 395.58,-205.9 395.58,-210.1"/>
</g>
<!-- src/formatters/json.ts -->
<g id="node9" class="node">
<title>src/formatters/json.ts</title>
<g id="a_node9"><a xlink:href="vscode://file/${process.cwd()}/src/formatters/json.ts" xlink:title="json.ts">
<path fill="#ddfeff" stroke="black" d="M367,-278C367,-278 325,-278 325,-278 322,-278 319,-275 319,-272 319,-272 319,-266 319,-266 319,-263 322,-260 325,-260 325,-260 367,-260 367,-260 370,-260 373,-263 373,-266 373,-266 373,-272 373,-272 373,-275 370,-278 367,-278"/>
<text text-anchor="start" x="332.5" y="-266.8" font-family="Helvetica,sans-Serif" font-size="9.00">json.ts</text>
</a>
</g>
</g>
<!-- src/formatters/format.ts&#45;&gt;src/formatters/json.ts -->
<g id="edge7" class="edge">
<title>src/formatters/format.ts&#45;&gt;src/formatters/json.ts</title>
<path fill="none" stroke="#000000" stroke-width="2" stroke-opacity="0.200000" d="M269.3,-240.8C284.35,-240.8 300,-240.8 300,-240.8 300,-240.8 300,-269 300,-269 300,-269 309.68,-269 309.68,-269"/>
<polygon fill="#000000" fill-opacity="0.200000" stroke="#000000" stroke-width="2" stroke-opacity="0.200000" points="309.68,-271.1 315.68,-269 309.68,-266.9 309.68,-271.1"/>
</g>
<!-- src/formatters/regex.ts -->
<g id="node10" class="node">
<title>src/formatters/regex.ts</title>
<g id="a_node10"><a xlink:href="vscode://file/${process.cwd()}/src/formatters/regex.ts" xlink:title="regex.ts">
<path fill="#ddfeff" stroke="black" d="M367,-248C367,-248 325,-248 325,-248 322,-248 319,-245 319,-242 319,-242 319,-236 319,-236 319,-233 322,-230 325,-230 325,-230 367,-230 367,-230 370,-230 373,-233 373,-236 373,-236 373,-242 373,-242 373,-245 370,-248 367,-248"/>
<text text-anchor="start" x="329.5" y="-236.8" font-family="Helvetica,sans-Serif" font-size="9.00">regex.ts</text>
</a>
</g>
</g>
<!-- src/formatters/format.ts&#45;&gt;src/formatters/regex.ts -->
<g id="edge8" class="edge">
<title>src/formatters/format.ts&#45;&gt;src/formatters/regex.ts</title>
<path fill="none" stroke="#000000" stroke-width="2" stroke-opacity="0.200000" d="M269.32,-237.2C269.32,-237.2 309.83,-237.2 309.83,-237.2"/>
<polygon fill="#000000" fill-opacity="0.200000" stroke="#000000" stroke-width="2" stroke-opacity="0.200000" points="309.83,-239.3 315.83,-237.2 309.83,-235.1 309.83,-239.3"/>
</g>
<!-- src/formatters/json.ts&#45;&gt;types/watskeburt.d.ts -->
<g id="edge10" class="edge">
<title>src/formatters/json.ts&#45;&gt;types/watskeburt.d.ts</title>
<path fill="none" stroke="#000000" stroke-width="2" stroke-opacity="0.200000" d="M373.3,-269C402.3,-269 444,-269 444,-269 444,-269 444,-229.35 444,-229.35"/>
<polygon fill="#000000" fill-opacity="0.200000" stroke="#000000" stroke-width="2" stroke-opacity="0.200000" points="446.1,-229.35 444,-223.35 441.9,-229.35 446.1,-229.35"/>
</g>
<!-- src/formatters/regex.ts&#45;&gt;types/watskeburt.d.ts -->
<g id="edge12" class="edge">
<title>src/formatters/regex.ts&#45;&gt;types/watskeburt.d.ts</title>
<path fill="none" stroke="#000000" stroke-width="2" stroke-opacity="0.200000" d="M346,-229.52C346,-221.4 346,-211 346,-211 346,-211 395.66,-211 395.66,-211"/>
<polygon fill="#000000" fill-opacity="0.200000" stroke="#000000" stroke-width="2" stroke-opacity="0.200000" points="395.66,-213.1 401.66,-211 395.66,-208.9 395.66,-213.1"/>
</g>
<!-- src/formatters/json.spec.ts -->
<g id="node11" class="node">
<title>src/formatters/json.spec.ts</title>
<g id="a_node11"><a xlink:href="vscode://file/${process.cwd()}/src/formatters/json.spec.ts" xlink:title="json.spec.ts">
<path fill="#ccccff" stroke="black" d="M268.5,-308C268.5,-308 215.5,-308 215.5,-308 212.5,-308 209.5,-305 209.5,-302 209.5,-302 209.5,-296 209.5,-296 209.5,-293 212.5,-290 215.5,-290 215.5,-290 268.5,-290 268.5,-290 271.5,-290 274.5,-293 274.5,-296 274.5,-296 274.5,-302 274.5,-302 274.5,-305 271.5,-308 268.5,-308"/>
<text text-anchor="start" x="217.5" y="-296.8" font-family="Helvetica,sans-Serif" font-size="9.00">json.spec.ts</text>
</a>
</g>
</g>
<!-- src/formatters/json.spec.ts&#45;&gt;src/formatters/json.ts -->
<g id="edge9" class="edge">
<title>src/formatters/json.spec.ts&#45;&gt;src/formatters/json.ts</title>
<path fill="none" stroke="#000000" stroke-width="2" stroke-opacity="0.200000" d="M274.91,-299C305.38,-299 346,-299 346,-299 346,-299 346,-287.52 346,-287.52"/>
<polygon fill="#000000" fill-opacity="0.200000" stroke="#000000" stroke-width="2" stroke-opacity="0.200000" points="348.1,-287.52 346,-281.52 343.9,-287.52 348.1,-287.52"/>
</g>
<!-- src/formatters/regex.spec.ts -->
<g id="node12" class="node">
<title>src/formatters/regex.spec.ts</title>
<g id="a_node12"><a xlink:href="vscode://file/${process.cwd()}/src/formatters/regex.spec.ts" xlink:title="regex.spec.ts">
<path fill="#ccccff" stroke="black" d="M271.5,-278C271.5,-278 212.5,-278 212.5,-278 209.5,-278 206.5,-275 206.5,-272 206.5,-272 206.5,-266 206.5,-266 206.5,-263 209.5,-260 212.5,-260 212.5,-260 271.5,-260 271.5,-260 274.5,-260 277.5,-263 277.5,-266 277.5,-266 277.5,-272 277.5,-272 277.5,-275 274.5,-278 271.5,-278"/>
<text text-anchor="start" x="214.5" y="-266.8" font-family="Helvetica,sans-Serif" font-size="9.00">regex.spec.ts</text>
</a>
</g>
</g>
<!-- src/formatters/regex.spec.ts&#45;&gt;src/formatters/regex.ts -->
<g id="edge11" class="edge">
<title>src/formatters/regex.spec.ts&#45;&gt;src/formatters/regex.ts</title>
<path fill="none" stroke="#000000" stroke-width="2" stroke-opacity="0.200000" d="M274,-259.56C274,-252.62 274,-244.4 274,-244.4 274,-244.4 309.75,-244.4 309.75,-244.4"/>
<polygon fill="#000000" fill-opacity="0.200000" stroke="#000000" stroke-width="2" stroke-opacity="0.200000" points="309.75,-246.5 315.75,-244.4 309.75,-242.3 309.75,-246.5"/>
</g>
<!-- src/git&#45;primitives.spec.ts -->
<g id="node13" class="node">
<title>src/git&#45;primitives.spec.ts</title>
<g id="a_node13"><a xlink:href="vscode://file/${process.cwd()}/src/git-primitives.spec.ts" xlink:title="git&#45;primitives.spec.ts">
<path fill="#ccccff" stroke="black" d="M134,-214C134,-214 47,-214 47,-214 44,-214 41,-211 41,-208 41,-208 41,-202 41,-202 41,-199 44,-196 47,-196 47,-196 134,-196 134,-196 137,-196 140,-199 140,-202 140,-202 140,-208 140,-208 140,-211 137,-214 134,-214"/>
<text text-anchor="start" x="49" y="-202.8" font-family="Helvetica,sans-Serif" font-size="9.00">git&#45;primitives.spec.ts</text>
</a>
</g>
</g>
<!-- src/git&#45;primitives.ts -->
<g id="node14" class="node">
<title>src/git&#45;primitives.ts</title>
<g id="a_node14"><a xlink:href="vscode://file/${process.cwd()}/src/git-primitives.ts" xlink:title="git&#45;primitives.ts">
<path fill="#ddfeff" stroke="black" d="M274.5,-214C274.5,-214 209.5,-214 209.5,-214 206.5,-214 203.5,-211 203.5,-208 203.5,-208 203.5,-202 203.5,-202 203.5,-199 206.5,-196 209.5,-196 209.5,-196 274.5,-196 274.5,-196 277.5,-196 280.5,-199 280.5,-202 280.5,-202 280.5,-208 280.5,-208 280.5,-211 277.5,-214 274.5,-214"/>
<text text-anchor="start" x="211.5" y="-202.8" font-family="Helvetica,sans-Serif" font-size="9.00">git&#45;primitives.ts</text>
</a>
</g>
</g>
<!-- src/git&#45;primitives.spec.ts&#45;&gt;src/git&#45;primitives.ts -->
<g id="edge13" class="edge">
<title>src/git&#45;primitives.spec.ts&#45;&gt;src/git&#45;primitives.ts</title>
<path fill="none" stroke="#000000" stroke-width="2" stroke-opacity="0.200000" d="M140.11,-208C140.11,-208 194.31,-208 194.31,-208"/>
<polygon fill="#000000" fill-opacity="0.200000" stroke="#000000" stroke-width="2" stroke-opacity="0.200000" points="194.31,-210.1 200.31,-208 194.31,-205.9 194.31,-210.1"/>
</g>
<!-- src/main.ts -->
<g id="node15" class="node">
<title>src/main.ts</title>
<g id="a_node15"><a xlink:href="vscode://file/${process.cwd()}/src/main.ts" xlink:title="main.ts">
<path fill="#ddfeff" stroke="black" d="M111.5,-184C111.5,-184 69.5,-184 69.5,-184 66.5,-184 63.5,-181 63.5,-178 63.5,-178 63.5,-172 63.5,-172 63.5,-169 66.5,-166 69.5,-166 69.5,-166 111.5,-166 111.5,-166 114.5,-166 117.5,-169 117.5,-172 117.5,-172 117.5,-178 117.5,-178 117.5,-181 114.5,-184 111.5,-184"/>
<text text-anchor="start" x="75.5" y="-172.8" font-family="Helvetica,sans-Serif" font-size="9.00">main.ts</text>
</a>
</g>
</g>
<!-- src/main.ts&#45;&gt;src/convert&#45;to&#45;change&#45;object.ts -->
<g id="edge15" class="edge">
<title>src/main.ts&#45;&gt;src/convert&#45;to&#45;change&#45;object.ts</title>
<path fill="none" stroke="#000000" stroke-width="2" stroke-opacity="0.200000" d="M117.94,-170.5C117.94,-170.5 168.63,-170.5 168.63,-170.5"/>
<polygon fill="#000000" fill-opacity="0.200000" stroke="#000000" stroke-width="2" stroke-opacity="0.200000" points="168.63,-172.6 174.63,-170.5 168.63,-168.4 168.63,-172.6"/>
</g>
<!-- src/main.ts&#45;&gt;types/watskeburt.d.ts -->
<g id="edge14" class="edge">
<title>src/main.ts&#45;&gt;types/watskeburt.d.ts</title>
<path fill="none" stroke="#000000" stroke-width="2" stroke-opacity="0.200000" d="M91,-184.24C91,-187.33 91,-190 91,-190 91,-190 444,-190 444,-190 444,-190 444,-192.95 444,-192.95"/>
<polygon fill="#000000" fill-opacity="0.200000" stroke="#000000" stroke-width="2" stroke-opacity="0.200000" points="441.9,-192.95 444,-198.95 446.1,-192.95 441.9,-192.95"/>
</g>
<!-- src/main.ts&#45;&gt;src/formatters/format.ts -->
<g id="edge16" class="edge">
<title>src/main.ts&#45;&gt;src/formatters/format.ts</title>
<path fill="none" stroke="#000000" stroke-width="2" stroke-opacity="0.200000" d="M117.69,-179.5C132.97,-179.5 149,-179.5 149,-179.5 149,-179.5 149,-236 149,-236 149,-236 205.57,-236 205.57,-236"/>
<polygon fill="#000000" fill-opacity="0.200000" stroke="#000000" stroke-width="2" stroke-opacity="0.200000" points="205.57,-238.1 211.57,-236 205.57,-233.9 205.57,-238.1"/>
</g>
<!-- src/main.ts&#45;&gt;src/git&#45;primitives.ts -->
<g id="edge17" class="edge">
<title>src/main.ts&#45;&gt;src/git&#45;primitives.ts</title>
<path fill="none" stroke="#000000" stroke-width="2" stroke-opacity="0.200000" d="M117.93,-175C136.25,-175 157,-175 157,-175 157,-175 157,-202 157,-202 157,-202 194.45,-202 194.45,-202"/>
<polygon fill="#000000" fill-opacity="0.200000" stroke="#000000" stroke-width="2" stroke-opacity="0.200000" points="194.45,-204.1 200.45,-202 194.45,-199.9 194.45,-204.1"/>
</g>
</g>
</svg>
