<?xml version="1.0" encoding="UTF-8" standalone="no"?>
<!DOCTYPE svg PUBLIC "-//W3C//DTD SVG 1.1//EN"
 "http://www.w3.org/Graphics/SVG/1.1/DTD/svg11.dtd">
<!-- Generated by graphviz version 8.0.5 (20230430.1635)
 -->
<!-- Title: dependency&#45;cruiser output Pages: 1 -->
<svg width="666pt" height="574pt"
 viewBox="0.00 0.00 666.38 574.00" xmlns="http://www.w3.org/2000/svg" xmlns:xlink="http://www.w3.org/1999/xlink">
<g id="graph0" class="graph" transform="scale(1 1) rotate(0) translate(4 570)">
<title>dependency&#45;cruiser output</title>
<polygon fill="white" stroke="none" points="-4,4 -4,-570 662.38,-570 662.38,4 -4,4"/>
<g id="clust1" class="cluster">
<title>cluster_bin</title>
<path fill="#ffffff" stroke="black" stroke-width="2" d="M20.88,-91C20.88,-91 66.88,-91 66.88,-91 72.88,-91 78.88,-97 78.88,-103 78.88,-103 78.88,-131 78.88,-131 78.88,-137 72.88,-143 66.88,-143 66.88,-143 20.88,-143 20.88,-143 14.88,-143 8.88,-137 8.88,-131 8.88,-131 8.88,-103 8.88,-103 8.88,-97 14.88,-91 20.88,-91"/>
<text text-anchor="middle" x="43.88" y="-130.45" font-family="Helvetica,sans-Serif" font-weight="bold" font-size="9.00">bin</text>
</g>
<g id="clust2" class="cluster">
<title>cluster_dist</title>
<path fill="#ffffff" stroke="black" stroke-width="2" d="M98.88,-8C98.88,-8 537.62,-8 537.62,-8 543.62,-8 549.62,-14 549.62,-20 549.62,-20 549.62,-228 549.62,-228 549.62,-234 543.62,-240 537.62,-240 537.62,-240 98.88,-240 98.88,-240 92.88,-240 86.88,-234 86.88,-228 86.88,-228 86.88,-20 86.88,-20 86.88,-14 92.88,-8 98.88,-8"/>
<text text-anchor="middle" x="318.25" y="-227.45" font-family="Helvetica,sans-Serif" font-weight="bold" font-size="9.00">dist</text>
</g>
<g id="clust3" class="cluster">
<title>cluster_dist/esm</title>
<path fill="#ffffff" stroke="black" stroke-width="2" d="M106.88,-16C106.88,-16 529.62,-16 529.62,-16 535.62,-16 541.62,-22 541.62,-28 541.62,-28 541.62,-202 541.62,-202 541.62,-208 535.62,-214 529.62,-214 529.62,-214 106.88,-214 106.88,-214 100.88,-214 94.88,-208 94.88,-202 94.88,-202 94.88,-28 94.88,-28 94.88,-22 100.88,-16 106.88,-16"/>
<text text-anchor="middle" x="318.25" y="-201.45" font-family="Helvetica,sans-Serif" font-weight="bold" font-size="9.00">esm</text>
</g>
<g id="clust4" class="cluster">
<title>cluster_dist/esm/formatters</title>
<path fill="#ffffff" stroke="black" stroke-width="2" d="M372.12,-50C372.12,-50 521.62,-50 521.62,-50 527.62,-50 533.62,-56 533.62,-62 533.62,-62 533.62,-120 533.62,-120 533.62,-126 527.62,-132 521.62,-132 521.62,-132 372.12,-132 372.12,-132 366.12,-132 360.12,-126 360.12,-120 360.12,-120 360.12,-62 360.12,-62 360.12,-56 366.12,-50 372.12,-50"/>
<text text-anchor="middle" x="446.88" y="-119.45" font-family="Helvetica,sans-Serif" font-weight="bold" font-size="9.00">formatters</text>
</g>
<g id="clust5" class="cluster">
<title>cluster_src</title>
<path fill="#ffffff" stroke="black" stroke-width="2" d="M20,-266C20,-266 529.62,-266 529.62,-266 535.62,-266 541.62,-272 541.62,-278 541.62,-278 541.62,-546 541.62,-546 541.62,-552 535.62,-558 529.62,-558 529.62,-558 20,-558 20,-558 14,-558 8,-552 8,-546 8,-546 8,-278 8,-278 8,-272 14,-266 20,-266"/>
<text text-anchor="middle" x="274.81" y="-545.45" font-family="Helvetica,sans-Serif" font-weight="bold" font-size="9.00">src</text>
</g>
<g id="clust6" class="cluster">
<title>cluster_src/formatters</title>
<path fill="#ffffff" stroke="black" stroke-width="2" d="M212.12,-420C212.12,-420 521.62,-420 521.62,-420 527.62,-420 533.62,-426 533.62,-432 533.62,-432 533.62,-520 533.62,-520 533.62,-526 527.62,-532 521.62,-532 521.62,-532 212.12,-532 212.12,-532 206.12,-532 200.12,-526 200.12,-520 200.12,-520 200.12,-432 200.12,-432 200.12,-426 206.12,-420 212.12,-420"/>
<text text-anchor="middle" x="366.88" y="-519.45" font-family="Helvetica,sans-Serif" font-weight="bold" font-size="9.00">formatters</text>
</g>
<g id="clust7" class="cluster">
<title>cluster_types</title>
<path fill="#ffffff" stroke="black" stroke-width="2" d="M569.62,-396C569.62,-396 638.38,-396 638.38,-396 644.38,-396 650.38,-402 650.38,-408 650.38,-408 650.38,-436 650.38,-436 650.38,-442 644.38,-448 638.38,-448 638.38,-448 569.62,-448 569.62,-448 563.62,-448 557.62,-442 557.62,-436 557.62,-436 557.62,-408 557.62,-408 557.62,-402 563.62,-396 569.62,-396"/>
<text text-anchor="middle" x="604" y="-435.45" font-family="Helvetica,sans-Serif" font-weight="bold" font-size="9.00">types</text>
</g>
<!-- bin/cli.js -->
<g id="node1" class="node">
<title>bin/cli.js</title>
<g id="a_node1"><a xlink:href="vscode://file/${process.cwd()}/bin/cli.js" xlink:title="cli.js">
<path fill="#ffffcc" stroke="black" d="M64.96,-116.88C64.96,-116.88 22.79,-116.88 22.79,-116.88 19.83,-116.88 16.88,-113.92 16.88,-110.96 16.88,-110.96 16.88,-105.04 16.88,-105.04 16.88,-102.08 19.83,-99.12 22.79,-99.12 22.79,-99.12 64.96,-99.12 64.96,-99.12 67.92,-99.12 70.88,-102.08 70.88,-105.04 70.88,-105.04 70.88,-110.96 70.88,-110.96 70.88,-113.92 67.92,-116.88 64.96,-116.88"/>
<text text-anchor="start" x="34.88" y="-104.33" font-family="Helvetica,sans-Serif" font-size="9.00">cli.js</text>
</a>
</g>
</g>
<!-- dist/esm/cli.js -->
<g id="node2" class="node">
<title>dist/esm/cli.js</title>
<g id="a_node2"><a xlink:href="vscode://file/${process.cwd()}/dist/esm/cli.js" xlink:title="cli.js">
<path fill="#ffffcc" stroke="black" d="M150.96,-116.88C150.96,-116.88 108.79,-116.88 108.79,-116.88 105.83,-116.88 102.88,-113.92 102.88,-110.96 102.88,-110.96 102.88,-105.04 102.88,-105.04 102.88,-102.08 105.83,-99.12 108.79,-99.12 108.79,-99.12 150.96,-99.12 150.96,-99.12 153.92,-99.12 156.88,-102.08 156.88,-105.04 156.88,-105.04 156.88,-110.96 156.88,-110.96 156.88,-113.92 153.92,-116.88 150.96,-116.88"/>
<text text-anchor="start" x="120.88" y="-104.33" font-family="Helvetica,sans-Serif" font-size="9.00">cli.js</text>
</a>
</g>
</g>
<!-- bin/cli.js&#45;&gt;dist/esm/cli.js -->
<g id="edge1" class="edge">
<title>bin/cli.js&#45;&gt;dist/esm/cli.js</title>
<path fill="none" stroke="#000000" stroke-width="2" stroke-opacity="0.200000" d="M71.09,-108C71.09,-108 93.55,-108 93.55,-108"/>
<polygon fill="#000000" fill-opacity="0.200000" stroke="#000000" stroke-width="2" stroke-opacity="0.200000" points="93.55,-110.1 99.55,-108 93.55,-105.9 93.55,-110.1"/>
</g>
<!-- dist/esm/main.js -->
<g id="node3" class="node">
<title>dist/esm/main.js</title>
<g id="a_node3"><a xlink:href="vscode://file/${process.cwd()}/dist/esm/main.js" xlink:title="main.js">
<path fill="#ffffcc" stroke="black" d="M265.33,-131.88C265.33,-131.88 223.17,-131.88 223.17,-131.88 220.21,-131.88 217.25,-128.92 217.25,-125.96 217.25,-125.96 217.25,-120.04 217.25,-120.04 217.25,-117.08 220.21,-114.12 223.17,-114.12 223.17,-114.12 265.33,-114.12 265.33,-114.12 268.29,-114.12 271.25,-117.08 271.25,-120.04 271.25,-120.04 271.25,-125.96 271.25,-125.96 271.25,-128.92 268.29,-131.88 265.33,-131.88"/>
<text text-anchor="start" x="229.62" y="-119.33" font-family="Helvetica,sans-Serif" font-size="9.00">main.js</text>
</a>
</g>
</g>
<!-- dist/esm/cli.js&#45;&gt;dist/esm/main.js -->
<g id="edge2" class="edge">
<title>dist/esm/cli.js&#45;&gt;dist/esm/main.js</title>
<path fill="none" stroke="#000000" stroke-width="2" stroke-opacity="0.200000" d="M157.3,-110C191.17,-110 244.38,-110 244.38,-110 244.38,-110 244.38,-110.38 244.38,-110.38"/>
<polygon fill="#000000" fill-opacity="0.200000" stroke="#000000" stroke-width="2" stroke-opacity="0.200000" points="242.28,-104.83 244.38,-110.83 246.48,-104.83 242.28,-104.83"/>
</g>
<!-- dist/esm/version.js -->
<g id="node4" class="node">
<title>dist/esm/version.js</title>
<g id="a_node4"><a xlink:href="vscode://file/${process.cwd()}/dist/esm/version.js" xlink:title="version.js">
<path fill="#ffffcc" stroke="black" d="M265.83,-101.88C265.83,-101.88 222.67,-101.88 222.67,-101.88 219.71,-101.88 216.75,-98.92 216.75,-95.96 216.75,-95.96 216.75,-90.04 216.75,-90.04 216.75,-87.08 219.71,-84.12 222.67,-84.12 222.67,-84.12 265.83,-84.12 265.83,-84.12 268.79,-84.12 271.75,-87.08 271.75,-90.04 271.75,-90.04 271.75,-95.96 271.75,-95.96 271.75,-98.92 268.79,-101.88 265.83,-101.88"/>
<text text-anchor="start" x="224.75" y="-89.33" font-family="Helvetica,sans-Serif" font-size="9.00">version.js</text>
</a>
</g>
</g>
<!-- dist/esm/cli.js&#45;&gt;dist/esm/version.js -->
<g id="edge3" class="edge">
<title>dist/esm/cli.js&#45;&gt;dist/esm/version.js</title>
<path fill="none" stroke="#000000" stroke-width="2" stroke-opacity="0.200000" d="M130.38,-98.66C130.38,-94.99 130.38,-91.62 130.38,-91.62 130.38,-91.62 207.39,-91.62 207.39,-91.62"/>
<polygon fill="#000000" fill-opacity="0.200000" stroke="#000000" stroke-width="2" stroke-opacity="0.200000" points="207.39,-93.73 213.39,-91.62 207.39,-89.53 207.39,-93.73"/>
</g>
<!-- dist/esm/convert&#45;to&#45;change&#45;object.js -->
<g id="node5" class="node">
<title>dist/esm/convert&#45;to&#45;change&#45;object.js</title>
<g id="a_node5"><a xlink:href="vscode://file/${process.cwd()}/dist/esm/convert-to-change-object.js" xlink:title="convert&#45;to&#45;change&#45;object.js">
<path fill="#ffffcc" stroke="black" d="M452.71,-41.88C452.71,-41.88 337.54,-41.88 337.54,-41.88 334.58,-41.88 331.62,-38.92 331.62,-35.96 331.62,-35.96 331.62,-30.04 331.62,-30.04 331.62,-27.08 334.58,-24.12 337.54,-24.12 337.54,-24.12 452.71,-24.12 452.71,-24.12 455.67,-24.12 458.62,-27.08 458.62,-30.04 458.62,-30.04 458.62,-35.96 458.62,-35.96 458.62,-38.92 455.67,-41.88 452.71,-41.88"/>
<text text-anchor="start" x="339.62" y="-29.32" font-family="Helvetica,sans-Serif" font-size="9.00">convert&#45;to&#45;change&#45;object.js</text>
</a>
</g>
</g>
<!-- dist/esm/main.js&#45;&gt;dist/esm/convert&#45;to&#45;change&#45;object.js -->
<g id="edge6" class="edge">
<title>dist/esm/main.js&#45;&gt;dist/esm/convert&#45;to&#45;change&#45;object.js</title>
<path fill="none" stroke="#000000" stroke-width="2" stroke-opacity="0.200000" d="M271.64,-118.56C298.8,-118.56 336.38,-118.56 336.38,-118.56 336.38,-118.56 336.38,-51.16 336.38,-51.16"/>
<polygon fill="#000000" fill-opacity="0.200000" stroke="#000000" stroke-width="2" stroke-opacity="0.200000" points="338.48,-51.16 336.38,-45.16 334.28,-51.16 338.48,-51.16"/>
</g>
<!-- dist/esm/formatters/format.js -->
<g id="node6" class="node">
<title>dist/esm/formatters/format.js</title>
<g id="a_node6"><a xlink:href="vscode://file/${process.cwd()}/dist/esm/formatters/format.js" xlink:title="format.js">
<path fill="#ffffcc" stroke="black" d="M416.21,-105.88C416.21,-105.88 374.04,-105.88 374.04,-105.88 371.08,-105.88 368.12,-102.92 368.12,-99.96 368.12,-99.96 368.12,-94.04 368.12,-94.04 368.12,-91.08 371.08,-88.12 374.04,-88.12 374.04,-88.12 416.21,-88.12 416.21,-88.12 419.17,-88.12 422.12,-91.08 422.12,-94.04 422.12,-94.04 422.12,-99.96 422.12,-99.96 422.12,-102.92 419.17,-105.88 416.21,-105.88"/>
<text text-anchor="start" x="377.88" y="-93.33" font-family="Helvetica,sans-Serif" font-size="9.00">format.js</text>
</a>
</g>
</g>
<!-- dist/esm/main.js&#45;&gt;dist/esm/formatters/format.js -->
<g id="edge7" class="edge">
<title>dist/esm/main.js&#45;&gt;dist/esm/formatters/format.js</title>
<path fill="none" stroke="#000000" stroke-width="2" stroke-opacity="0.200000" d="M271.62,-123C315.17,-123 395.38,-123 395.38,-123 395.38,-123 395.38,-115.09 395.38,-115.09"/>
<polygon fill="#000000" fill-opacity="0.200000" stroke="#000000" stroke-width="2" stroke-opacity="0.200000" points="397.48,-115.09 395.38,-109.09 393.28,-115.09 397.48,-115.09"/>
</g>
<!-- dist/esm/git&#45;primitives&#45;sync.js -->
<g id="node9" class="node">
<title>dist/esm/git&#45;primitives&#45;sync.js</title>
<g id="a_node9"><a xlink:href="vscode://file/${process.cwd()}/dist/esm/git-primitives-sync.js" xlink:title="git&#45;primitives&#45;sync.js">
<path fill="#ffffcc" stroke="black" d="M438.46,-157.88C438.46,-157.88 351.79,-157.88 351.79,-157.88 348.83,-157.88 345.88,-154.92 345.88,-151.96 345.88,-151.96 345.88,-146.04 345.88,-146.04 345.88,-143.08 348.83,-140.12 351.79,-140.12 351.79,-140.12 438.46,-140.12 438.46,-140.12 441.42,-140.12 444.38,-143.08 444.38,-146.04 444.38,-146.04 444.38,-151.96 444.38,-151.96 444.38,-154.92 441.42,-157.88 438.46,-157.88"/>
<text text-anchor="start" x="353.88" y="-145.32" font-family="Helvetica,sans-Serif" font-size="9.00">git&#45;primitives&#45;sync.js</text>
</a>
</g>
</g>
<!-- dist/esm/main.js&#45;&gt;dist/esm/git&#45;primitives&#45;sync.js -->
<g id="edge8" class="edge">
<title>dist/esm/main.js&#45;&gt;dist/esm/git&#45;primitives&#45;sync.js</title>
<path fill="none" stroke="#000000" stroke-width="2" stroke-opacity="0.200000" d="M271.63,-127.44C305.11,-127.44 357.38,-127.44 357.38,-127.44 357.38,-127.44 357.38,-130.73 357.38,-130.73"/>
<polygon fill="#000000" fill-opacity="0.200000" stroke="#000000" stroke-width="2" stroke-opacity="0.200000" points="355.28,-130.73 357.38,-136.73 359.48,-130.73 355.28,-130.73"/>
</g>
<!-- dist/esm/git&#45;primitives.js -->
<g id="node10" class="node">
<title>dist/esm/git&#45;primitives.js</title>
<g id="a_node10"><a xlink:href="vscode://file/${process.cwd()}/dist/esm/git-primitives.js" xlink:title="git&#45;primitives.js">
<path fill="#ffffcc" stroke="black" d="M427.58,-187.88C427.58,-187.88 362.67,-187.88 362.67,-187.88 359.71,-187.88 356.75,-184.92 356.75,-181.96 356.75,-181.96 356.75,-176.04 356.75,-176.04 356.75,-173.08 359.71,-170.12 362.67,-170.12 362.67,-170.12 427.58,-170.12 427.58,-170.12 430.54,-170.12 433.5,-173.08 433.5,-176.04 433.5,-176.04 433.5,-181.96 433.5,-181.96 433.5,-184.92 430.54,-187.88 427.58,-187.88"/>
<text text-anchor="start" x="364.75" y="-175.32" font-family="Helvetica,sans-Serif" font-size="9.00">git&#45;primitives.js</text>
</a>
</g>
</g>
<!-- dist/esm/main.js&#45;&gt;dist/esm/git&#45;primitives.js -->
<g id="edge9" class="edge">
<title>dist/esm/main.js&#45;&gt;dist/esm/git&#45;primitives.js</title>
<path fill="none" stroke="#000000" stroke-width="2" stroke-opacity="0.200000" d="M244.38,-132.25C244.38,-148.15 244.38,-179 244.38,-179 244.38,-179 347.3,-179 347.3,-179"/>
<polygon fill="#000000" fill-opacity="0.200000" stroke="#000000" stroke-width="2" stroke-opacity="0.200000" points="347.3,-181.1 353.3,-179 347.3,-176.9 347.3,-181.1"/>
</g>
<!-- dist/esm/formatters/json.js -->
<g id="node7" class="node">
<title>dist/esm/formatters/json.js</title>
<g id="a_node7"><a xlink:href="vscode://file/${process.cwd()}/dist/esm/formatters/json.js" xlink:title="json.js">
<path fill="#ffffcc" stroke="black" d="M519.71,-105.88C519.71,-105.88 477.54,-105.88 477.54,-105.88 474.58,-105.88 471.62,-102.92 471.62,-99.96 471.62,-99.96 471.62,-94.04 471.62,-94.04 471.62,-91.08 474.58,-88.12 477.54,-88.12 477.54,-88.12 519.71,-88.12 519.71,-88.12 522.67,-88.12 525.62,-91.08 525.62,-94.04 525.62,-94.04 525.62,-99.96 525.62,-99.96 525.62,-102.92 522.67,-105.88 519.71,-105.88"/>
<text text-anchor="start" x="485.5" y="-93.33" font-family="Helvetica,sans-Serif" font-size="9.00">json.js</text>
</a>
</g>
</g>
<!-- dist/esm/formatters/format.js&#45;&gt;dist/esm/formatters/json.js -->
<g id="edge4" class="edge">
<title>dist/esm/formatters/format.js&#45;&gt;dist/esm/formatters/json.js</title>
<path fill="none" stroke="#000000" stroke-width="2" stroke-opacity="0.200000" d="M422.59,-97C422.59,-97 462.39,-97 462.39,-97"/>
<polygon fill="#000000" fill-opacity="0.200000" stroke="#000000" stroke-width="2" stroke-opacity="0.200000" points="462.39,-99.1 468.39,-97 462.39,-94.9 462.39,-99.1"/>
</g>
<!-- dist/esm/formatters/regex.js -->
<g id="node8" class="node">
<title>dist/esm/formatters/regex.js</title>
<g id="a_node8"><a xlink:href="vscode://file/${process.cwd()}/dist/esm/formatters/regex.js" xlink:title="regex.js">
<path fill="#ffffcc" stroke="black" d="M519.71,-75.88C519.71,-75.88 477.54,-75.88 477.54,-75.88 474.58,-75.88 471.62,-72.92 471.62,-69.96 471.62,-69.96 471.62,-64.04 471.62,-64.04 471.62,-61.08 474.58,-58.12 477.54,-58.12 477.54,-58.12 519.71,-58.12 519.71,-58.12 522.67,-58.12 525.62,-61.08 525.62,-64.04 525.62,-64.04 525.62,-69.96 525.62,-69.96 525.62,-72.92 522.67,-75.88 519.71,-75.88"/>
<text text-anchor="start" x="482.5" y="-63.33" font-family="Helvetica,sans-Serif" font-size="9.00">regex.js</text>
</a>
</g>
</g>
<!-- dist/esm/formatters/format.js&#45;&gt;dist/esm/formatters/regex.js -->
<g id="edge5" class="edge">
<title>dist/esm/formatters/format.js&#45;&gt;dist/esm/formatters/regex.js</title>
<path fill="none" stroke="#000000" stroke-width="2" stroke-opacity="0.200000" d="M395.38,-87.84C395.38,-79.01 395.38,-67 395.38,-67 395.38,-67 462.23,-67 462.23,-67"/>
<polygon fill="#000000" fill-opacity="0.200000" stroke="#000000" stroke-width="2" stroke-opacity="0.200000" points="462.23,-69.1 468.23,-67 462.23,-64.9 462.23,-69.1"/>
</g>
<!-- src/cli.spec.ts -->
<g id="node11" class="node">
<title>src/cli.spec.ts</title>
<g id="a_node11"><a xlink:href="vscode://file/${process.cwd()}/src/cli.spec.ts" xlink:title="cli.spec.ts">
<path fill="#ccccff" stroke="black" d="M65.83,-336.88C65.83,-336.88 21.92,-336.88 21.92,-336.88 18.96,-336.88 16,-333.92 16,-330.96 16,-330.96 16,-325.04 16,-325.04 16,-322.08 18.96,-319.12 21.92,-319.12 21.92,-319.12 65.83,-319.12 65.83,-319.12 68.79,-319.12 71.75,-322.08 71.75,-325.04 71.75,-325.04 71.75,-330.96 71.75,-330.96 71.75,-333.92 68.79,-336.88 65.83,-336.88"/>
<text text-anchor="start" x="24" y="-324.32" font-family="Helvetica,sans-Serif" font-size="9.00">cli.spec.ts</text>
</a>
</g>
</g>
<!-- src/cli.ts -->
<g id="node12" class="node">
<title>src/cli.ts</title>
<g id="a_node12"><a xlink:href="vscode://file/${process.cwd()}/src/cli.ts" xlink:title="cli.ts">
<path fill="#ddfeff" stroke="black" d="M150.96,-323.88C150.96,-323.88 108.79,-323.88 108.79,-323.88 105.83,-323.88 102.88,-320.92 102.88,-317.96 102.88,-317.96 102.88,-312.04 102.88,-312.04 102.88,-309.08 105.83,-306.12 108.79,-306.12 108.79,-306.12 150.96,-306.12 150.96,-306.12 153.92,-306.12 156.88,-309.08 156.88,-312.04 156.88,-312.04 156.88,-317.96 156.88,-317.96 156.88,-320.92 153.92,-323.88 150.96,-323.88"/>
<text text-anchor="start" x="120.88" y="-311.32" font-family="Helvetica,sans-Serif" font-size="9.00">cli.ts</text>
</a>
</g>
</g>
<!-- src/cli.spec.ts&#45;&gt;src/cli.ts -->
<g id="edge10" class="edge">
<title>src/cli.spec.ts&#45;&gt;src/cli.ts</title>
<path fill="none" stroke="#000000" stroke-width="2" stroke-opacity="0.200000" d="M72.11,-327.29C92.47,-327.29 116.38,-327.29 116.38,-327.29 116.38,-327.29 116.38,-326.98 116.38,-326.98"/>
<polygon fill="#000000" fill-opacity="0.200000" stroke="#000000" stroke-width="2" stroke-opacity="0.200000" points="118.48,-333.19 116.38,-327.19 114.28,-333.19 118.48,-333.19"/>
</g>
<!-- src/main.ts -->
<g id="node13" class="node">
<title>src/main.ts</title>
<g id="a_node13"><a xlink:href="vscode://file/${process.cwd()}/src/main.ts" xlink:title="main.ts">
<path fill="#ddfeff" stroke="black" d="M265.33,-351.88C265.33,-351.88 223.17,-351.88 223.17,-351.88 220.21,-351.88 217.25,-348.92 217.25,-345.96 217.25,-345.96 217.25,-340.04 217.25,-340.04 217.25,-337.08 220.21,-334.12 223.17,-334.12 223.17,-334.12 265.33,-334.12 265.33,-334.12 268.29,-334.12 271.25,-337.08 271.25,-340.04 271.25,-340.04 271.25,-345.96 271.25,-345.96 271.25,-348.92 268.29,-351.88 265.33,-351.88"/>
<text text-anchor="start" x="229.62" y="-339.32" font-family="Helvetica,sans-Serif" font-size="9.00">main.ts</text>
</a>
</g>
</g>
<!-- src/cli.spec.ts&#45;&gt;src/main.ts -->
<g id="edge11" class="edge">
<title>src/cli.spec.ts&#45;&gt;src/main.ts</title>
<path fill="none" stroke="#000000" stroke-width="2" stroke-opacity="0.200000" d="M72.18,-330.71C127.44,-330.71 244.38,-330.71 244.38,-330.71 244.38,-330.71 244.38,-331.02 244.38,-331.02"/>
<polygon fill="#000000" fill-opacity="0.200000" stroke="#000000" stroke-width="2" stroke-opacity="0.200000" points="242.28,-324.81 244.38,-330.81 246.48,-324.81 242.28,-324.81"/>
</g>
<!-- src/cli.ts&#45;&gt;src/main.ts -->
<g id="edge12" class="edge">
<title>src/cli.ts&#45;&gt;src/main.ts</title>
<path fill="none" stroke="#000000" stroke-width="2" stroke-opacity="0.200000" d="M143.38,-324.29C143.38,-332.9 143.38,-344.38 143.38,-344.38 143.38,-344.38 207.95,-344.38 207.95,-344.38"/>
<polygon fill="#000000" fill-opacity="0.200000" stroke="#000000" stroke-width="2" stroke-opacity="0.200000" points="207.95,-346.48 213.95,-344.38 207.95,-342.28 207.95,-346.48"/>
</g>
<!-- src/version.ts -->
<g id="node14" class="node">
<title>src/version.ts</title>
<g id="a_node14"><a xlink:href="vscode://file/${process.cwd()}/src/version.ts" xlink:title="version.ts">
<path fill="#ddfeff" stroke="black" d="M265.83,-321.88C265.83,-321.88 222.67,-321.88 222.67,-321.88 219.71,-321.88 216.75,-318.92 216.75,-315.96 216.75,-315.96 216.75,-310.04 216.75,-310.04 216.75,-307.08 219.71,-304.12 222.67,-304.12 222.67,-304.12 265.83,-304.12 265.83,-304.12 268.79,-304.12 271.75,-307.08 271.75,-310.04 271.75,-310.04 271.75,-315.96 271.75,-315.96 271.75,-318.92 268.79,-321.88 265.83,-321.88"/>
<text text-anchor="start" x="224.75" y="-309.32" font-family="Helvetica,sans-Serif" font-size="9.00">version.ts</text>
</a>
</g>
</g>
<!-- src/cli.ts&#45;&gt;src/version.ts -->
<g id="edge13" class="edge">
<title>src/cli.ts&#45;&gt;src/version.ts</title>
<path fill="none" stroke="#000000" stroke-width="2" stroke-opacity="0.200000" d="M157.27,-314C157.27,-314 207.28,-314 207.28,-314"/>
<polygon fill="#000000" fill-opacity="0.200000" stroke="#000000" stroke-width="2" stroke-opacity="0.200000" points="207.28,-316.1 213.28,-314 207.28,-311.9 207.28,-316.1"/>
</g>
<!-- types/watskeburt.d.ts -->
<g id="node15" class="node">
<title>types/watskeburt.d.ts</title>
<g id="a_node15"><a xlink:href="vscode://file/${process.cwd()}/types/watskeburt.d.ts" xlink:title="watskeburt.d.ts">
<path fill="#ddfeff" stroke="black" d="M636.46,-421.88C636.46,-421.88 571.54,-421.88 571.54,-421.88 568.58,-421.88 565.62,-418.92 565.62,-415.96 565.62,-415.96 565.62,-410.04 565.62,-410.04 565.62,-407.08 568.58,-404.12 571.54,-404.12 571.54,-404.12 636.46,-404.12 636.46,-404.12 639.42,-404.12 642.38,-407.08 642.38,-410.04 642.38,-410.04 642.38,-415.96 642.38,-415.96 642.38,-418.92 639.42,-421.88 636.46,-421.88"/>
<text text-anchor="start" x="573.62" y="-409.32" font-family="Helvetica,sans-Serif" font-size="9.00">watskeburt.d.ts</text>
</a>
</g>
</g>
<!-- src/cli.ts&#45;&gt;types/watskeburt.d.ts -->
<g id="edge14" class="edge">
<title>src/cli.ts&#45;&gt;types/watskeburt.d.ts</title>
<path fill="none" stroke="#000000" stroke-width="2" stroke-opacity="0.200000" d="M130.38,-324.25C130.38,-349.06 130.38,-415.21 130.38,-415.21 130.38,-415.21 556.24,-415.21 556.24,-415.21"/>
<polygon fill="#000000" fill-opacity="0.200000" stroke="#000000" stroke-width="2" stroke-opacity="0.200000" points="556.24,-417.31 562.24,-415.21 556.24,-413.11 556.24,-417.31"/>
</g>
<!-- src/main.ts&#45;&gt;types/watskeburt.d.ts -->
<g id="edge28" class="edge">
<title>src/main.ts&#45;&gt;types/watskeburt.d.ts</title>
<path fill="none" stroke="#000000" stroke-width="2" stroke-opacity="0.200000" d="M271.47,-346.8C295.71,-346.8 327.38,-346.8 327.38,-346.8 327.38,-346.8 327.38,-413.54 327.38,-413.54 327.38,-413.54 556.25,-413.54 556.25,-413.54"/>
<polygon fill="#000000" fill-opacity="0.200000" stroke="#000000" stroke-width="2" stroke-opacity="0.200000" points="556.25,-415.64 562.25,-413.54 556.25,-411.44 556.25,-415.64"/>
</g>
<!-- src/convert&#45;to&#45;change&#45;object.ts -->
<g id="node17" class="node">
<title>src/convert&#45;to&#45;change&#45;object.ts</title>
<g id="a_node17"><a xlink:href="vscode://file/${process.cwd()}/src/convert-to-change-object.ts" xlink:title="convert&#45;to&#45;change&#45;object.ts">
<path fill="#ddfeff" stroke="black" d="M452.71,-411.88C452.71,-411.88 337.54,-411.88 337.54,-411.88 334.58,-411.88 331.62,-408.92 331.62,-405.96 331.62,-405.96 331.62,-400.04 331.62,-400.04 331.62,-397.08 334.58,-394.12 337.54,-394.12 337.54,-394.12 452.71,-394.12 452.71,-394.12 455.67,-394.12 458.62,-397.08 458.62,-400.04 458.62,-400.04 458.62,-405.96 458.62,-405.96 458.62,-408.92 455.67,-411.88 452.71,-411.88"/>
<text text-anchor="start" x="339.62" y="-399.32" font-family="Helvetica,sans-Serif" font-size="9.00">convert&#45;to&#45;change&#45;object.ts</text>
</a>
</g>
</g>
<!-- src/main.ts&#45;&gt;src/convert&#45;to&#45;change&#45;object.ts -->
<g id="edge29" class="edge">
<title>src/main.ts&#45;&gt;src/convert&#45;to&#45;change&#45;object.ts</title>
<path fill="none" stroke="#000000" stroke-width="2" stroke-opacity="0.200000" d="M271.56,-344.27C300.29,-344.27 341.38,-344.27 341.38,-344.27 341.38,-344.27 341.38,-384.82 341.38,-384.82"/>
<polygon fill="#000000" fill-opacity="0.200000" stroke="#000000" stroke-width="2" stroke-opacity="0.200000" points="339.28,-384.82 341.38,-390.82 343.48,-384.82 339.28,-384.82"/>
</g>
<!-- src/formatters/format.ts -->
<g id="node19" class="node">
<title>src/formatters/format.ts</title>
<g id="a_node19"><a xlink:href="vscode://file/${process.cwd()}/src/formatters/format.ts" xlink:title="format.ts">
<path fill="#ddfeff" stroke="black" d="M416.21,-475.88C416.21,-475.88 374.04,-475.88 374.04,-475.88 371.08,-475.88 368.12,-472.92 368.12,-469.96 368.12,-469.96 368.12,-464.04 368.12,-464.04 368.12,-461.08 371.08,-458.12 374.04,-458.12 374.04,-458.12 416.21,-458.12 416.21,-458.12 419.17,-458.12 422.12,-461.08 422.12,-464.04 422.12,-464.04 422.12,-469.96 422.12,-469.96 422.12,-472.92 419.17,-475.88 416.21,-475.88"/>
<text text-anchor="start" x="377.88" y="-463.32" font-family="Helvetica,sans-Serif" font-size="9.00">format.ts</text>
</a>
</g>
</g>
<!-- src/main.ts&#45;&gt;src/formatters/format.ts -->
<g id="edge30" class="edge">
<title>src/main.ts&#45;&gt;src/formatters/format.ts</title>
<path fill="none" stroke="#000000" stroke-width="2" stroke-opacity="0.200000" d="M271.48,-349.34C294.37,-349.34 323.38,-349.34 323.38,-349.34 323.38,-349.34 323.38,-464.04 323.38,-464.04 323.38,-464.04 359,-464.04 359,-464.04"/>
<polygon fill="#000000" fill-opacity="0.200000" stroke="#000000" stroke-width="2" stroke-opacity="0.200000" points="359,-466.14 365,-464.04 359,-461.94 359,-466.14"/>
</g>
<!-- src/git&#45;primitives&#45;sync.ts -->
<g id="node25" class="node">
<title>src/git&#45;primitives&#45;sync.ts</title>
<g id="a_node25"><a xlink:href="vscode://file/${process.cwd()}/src/git-primitives-sync.ts" xlink:title="git&#45;primitives&#45;sync.ts">
<path fill="#ddfeff" stroke="black" d="M438.46,-381.88C438.46,-381.88 351.79,-381.88 351.79,-381.88 348.83,-381.88 345.88,-378.92 345.88,-375.96 345.88,-375.96 345.88,-370.04 345.88,-370.04 345.88,-367.08 348.83,-364.12 351.79,-364.12 351.79,-364.12 438.46,-364.12 438.46,-364.12 441.42,-364.12 444.38,-367.08 444.38,-370.04 444.38,-370.04 444.38,-375.96 444.38,-375.96 444.38,-378.92 441.42,-381.88 438.46,-381.88"/>
<text text-anchor="start" x="353.88" y="-369.32" font-family="Helvetica,sans-Serif" font-size="9.00">git&#45;primitives&#45;sync.ts</text>
</a>
</g>
</g>
<!-- src/main.ts&#45;&gt;src/git&#45;primitives&#45;sync.ts -->
<g id="edge31" class="edge">
<title>src/main.ts&#45;&gt;src/git&#45;primitives&#45;sync.ts</title>
<path fill="none" stroke="#000000" stroke-width="2" stroke-opacity="0.200000" d="M271.56,-341.73C303.3,-341.73 351.38,-341.73 351.38,-341.73 351.38,-341.73 351.38,-354.79 351.38,-354.79"/>
<polygon fill="#000000" fill-opacity="0.200000" stroke="#000000" stroke-width="2" stroke-opacity="0.200000" points="349.28,-354.79 351.38,-360.79 353.48,-354.79 349.28,-354.79"/>
</g>
<!-- src/git&#45;primitives.ts -->
<g id="node27" class="node">
<title>src/git&#45;primitives.ts</title>
<g id="a_node27"><a xlink:href="vscode://file/${process.cwd()}/src/git-primitives.ts" xlink:title="git&#45;primitives.ts">
<path fill="#ddfeff" stroke="black" d="M427.58,-351.88C427.58,-351.88 362.67,-351.88 362.67,-351.88 359.71,-351.88 356.75,-348.92 356.75,-345.96 356.75,-345.96 356.75,-340.04 356.75,-340.04 356.75,-337.08 359.71,-334.12 362.67,-334.12 362.67,-334.12 427.58,-334.12 427.58,-334.12 430.54,-334.12 433.5,-337.08 433.5,-340.04 433.5,-340.04 433.5,-345.96 433.5,-345.96 433.5,-348.92 430.54,-351.88 427.58,-351.88"/>
<text text-anchor="start" x="364.75" y="-339.32" font-family="Helvetica,sans-Serif" font-size="9.00">git&#45;primitives.ts</text>
</a>
</g>
</g>
<!-- src/main.ts&#45;&gt;src/git&#45;primitives.ts -->
<g id="edge32" class="edge">
<title>src/main.ts&#45;&gt;src/git&#45;primitives.ts</title>
<path fill="none" stroke="#000000" stroke-width="2" stroke-opacity="0.200000" d="M271.57,-339.2C271.57,-339.2 347.37,-339.2 347.37,-339.2"/>
<polygon fill="#000000" fill-opacity="0.200000" stroke="#000000" stroke-width="2" stroke-opacity="0.200000" points="347.37,-341.3 353.37,-339.2 347.37,-337.1 347.37,-341.3"/>
</g>
<!-- src/convert&#45;to&#45;change&#45;object.spec.ts -->
<g id="node16" class="node">
<title>src/convert&#45;to&#45;change&#45;object.spec.ts</title>
<g id="a_node16"><a xlink:href="vscode://file/${process.cwd()}/src/convert-to-change-object.spec.ts" xlink:title="convert&#45;to&#45;change&#45;object.spec.ts">
<path fill="#ccccff" stroke="black" d="M312.71,-411.88C312.71,-411.88 175.79,-411.88 175.79,-411.88 172.83,-411.88 169.88,-408.92 169.88,-405.96 169.88,-405.96 169.88,-400.04 169.88,-400.04 169.88,-397.08 172.83,-394.12 175.79,-394.12 175.79,-394.12 312.71,-394.12 312.71,-394.12 315.67,-394.12 318.62,-397.08 318.62,-400.04 318.62,-400.04 318.62,-405.96 318.62,-405.96 318.62,-408.92 315.67,-411.88 312.71,-411.88"/>
<text text-anchor="start" x="177.88" y="-399.32" font-family="Helvetica,sans-Serif" font-size="9.00">convert&#45;to&#45;change&#45;object.spec.ts</text>
</a>
</g>
</g>
<!-- src/convert&#45;to&#45;change&#45;object.spec.ts&#45;&gt;src/convert&#45;to&#45;change&#45;object.ts -->
<g id="edge15" class="edge">
<title>src/convert&#45;to&#45;change&#45;object.spec.ts&#45;&gt;src/convert&#45;to&#45;change&#45;object.ts</title>
<path fill="none" stroke="#000000" stroke-width="2" stroke-opacity="0.200000" d="M318.8,-403C318.8,-403 322.24,-403 322.24,-403"/>
<polygon fill="#000000" fill-opacity="0.200000" stroke="#000000" stroke-width="2" stroke-opacity="0.200000" points="322.24,-405.1 328.24,-403 322.24,-400.9 322.24,-405.1"/>
</g>
<!-- src/convert&#45;to&#45;change&#45;object.ts&#45;&gt;types/watskeburt.d.ts -->
<g id="edge16" class="edge">
<title>src/convert&#45;to&#45;change&#45;object.ts&#45;&gt;types/watskeburt.d.ts</title>
<path fill="none" stroke="#000000" stroke-width="2" stroke-opacity="0.200000" d="M458.93,-408C458.93,-408 556.14,-408 556.14,-408"/>
<polygon fill="#000000" fill-opacity="0.200000" stroke="#000000" stroke-width="2" stroke-opacity="0.200000" points="556.14,-410.1 562.14,-408 556.14,-405.9 556.14,-410.1"/>
</g>
<!-- src/formatters/format.spec.ts -->
<g id="node18" class="node">
<title>src/formatters/format.spec.ts</title>
<g id="a_node18"><a xlink:href="vscode://file/${process.cwd()}/src/formatters/format.spec.ts" xlink:title="format.spec.ts">
<path fill="#ccccff" stroke="black" d="M274.46,-475.88C274.46,-475.88 214.04,-475.88 214.04,-475.88 211.08,-475.88 208.12,-472.92 208.12,-469.96 208.12,-469.96 208.12,-464.04 208.12,-464.04 208.12,-461.08 211.08,-458.12 214.04,-458.12 214.04,-458.12 274.46,-458.12 274.46,-458.12 277.42,-458.12 280.38,-461.08 280.38,-464.04 280.38,-464.04 280.38,-469.96 280.38,-469.96 280.38,-472.92 277.42,-475.88 274.46,-475.88"/>
<text text-anchor="start" x="216.12" y="-463.32" font-family="Helvetica,sans-Serif" font-size="9.00">format.spec.ts</text>
</a>
</g>
</g>
<!-- src/formatters/format.spec.ts&#45;&gt;src/formatters/format.ts -->
<g id="edge17" class="edge">
<title>src/formatters/format.spec.ts&#45;&gt;src/formatters/format.ts</title>
<path fill="none" stroke="#000000" stroke-width="2" stroke-opacity="0.200000" d="M280.77,-469.96C280.77,-469.96 358.92,-469.96 358.92,-469.96"/>
<polygon fill="#000000" fill-opacity="0.200000" stroke="#000000" stroke-width="2" stroke-opacity="0.200000" points="358.92,-472.06 364.92,-469.96 358.92,-467.86 358.92,-472.06"/>
</g>
<!-- src/formatters/format.ts&#45;&gt;types/watskeburt.d.ts -->
<g id="edge18" class="edge">
<title>src/formatters/format.ts&#45;&gt;types/watskeburt.d.ts</title>
<path fill="none" stroke="#000000" stroke-width="2" stroke-opacity="0.200000" d="M422.49,-462.56C441.48,-462.56 463.38,-462.56 463.38,-462.56 463.38,-462.56 463.38,-418.54 463.38,-418.54 463.38,-418.54 556.2,-418.54 556.2,-418.54"/>
<polygon fill="#000000" fill-opacity="0.200000" stroke="#000000" stroke-width="2" stroke-opacity="0.200000" points="556.2,-420.64 562.2,-418.54 556.2,-416.44 556.2,-420.64"/>
</g>
<!-- src/formatters/json.ts -->
<g id="node20" class="node">
<title>src/formatters/json.ts</title>
<g id="a_node20"><a xlink:href="vscode://file/${process.cwd()}/src/formatters/json.ts" xlink:title="json.ts">
<path fill="#ddfeff" stroke="black" d="M519.71,-505.88C519.71,-505.88 477.54,-505.88 477.54,-505.88 474.58,-505.88 471.62,-502.92 471.62,-499.96 471.62,-499.96 471.62,-494.04 471.62,-494.04 471.62,-491.08 474.58,-488.12 477.54,-488.12 477.54,-488.12 519.71,-488.12 519.71,-488.12 522.67,-488.12 525.62,-491.08 525.62,-494.04 525.62,-494.04 525.62,-499.96 525.62,-499.96 525.62,-502.92 522.67,-505.88 519.71,-505.88"/>
<text text-anchor="start" x="485.5" y="-493.32" font-family="Helvetica,sans-Serif" font-size="9.00">json.ts</text>
</a>
</g>
</g>
<!-- src/formatters/format.ts&#45;&gt;src/formatters/json.ts -->
<g id="edge19" class="edge">
<title>src/formatters/format.ts&#45;&gt;src/formatters/json.ts</title>
<path fill="none" stroke="#000000" stroke-width="2" stroke-opacity="0.200000" d="M422.44,-471.44C442.9,-471.44 467.38,-471.44 467.38,-471.44 467.38,-471.44 467.38,-494.04 467.38,-494.04 467.38,-494.04 467.76,-494.04 467.76,-494.04"/>
<polygon fill="#000000" fill-opacity="0.200000" stroke="#000000" stroke-width="2" stroke-opacity="0.200000" points="462.21,-496.14 468.21,-494.04 462.21,-491.94 462.21,-496.14"/>
</g>
<!-- src/formatters/regex.ts -->
<g id="node21" class="node">
<title>src/formatters/regex.ts</title>
<g id="a_node21"><a xlink:href="vscode://file/${process.cwd()}/src/formatters/regex.ts" xlink:title="regex.ts">
<path fill="#ddfeff" stroke="black" d="M519.71,-475.88C519.71,-475.88 477.54,-475.88 477.54,-475.88 474.58,-475.88 471.62,-472.92 471.62,-469.96 471.62,-469.96 471.62,-464.04 471.62,-464.04 471.62,-461.08 474.58,-458.12 477.54,-458.12 477.54,-458.12 519.71,-458.12 519.71,-458.12 522.67,-458.12 525.62,-461.08 525.62,-464.04 525.62,-464.04 525.62,-469.96 525.62,-469.96 525.62,-472.92 522.67,-475.88 519.71,-475.88"/>
<text text-anchor="start" x="482.5" y="-463.32" font-family="Helvetica,sans-Serif" font-size="9.00">regex.ts</text>
</a>
</g>
</g>
<!-- src/formatters/format.ts&#45;&gt;src/formatters/regex.ts -->
<g id="edge20" class="edge">
<title>src/formatters/format.ts&#45;&gt;src/formatters/regex.ts</title>
<path fill="none" stroke="#000000" stroke-width="2" stroke-opacity="0.200000" d="M422.59,-467C422.59,-467 462.39,-467 462.39,-467"/>
<polygon fill="#000000" fill-opacity="0.200000" stroke="#000000" stroke-width="2" stroke-opacity="0.200000" points="462.39,-469.1 468.39,-467 462.39,-464.9 462.39,-469.1"/>
</g>
<!-- src/formatters/json.ts&#45;&gt;types/watskeburt.d.ts -->
<g id="edge22" class="edge">
<title>src/formatters/json.ts&#45;&gt;types/watskeburt.d.ts</title>
<path fill="none" stroke="#000000" stroke-width="2" stroke-opacity="0.200000" d="M525.86,-497C557.19,-497 604.38,-497 604.38,-497 604.38,-497 604.38,-431.31 604.38,-431.31"/>
<polygon fill="#000000" fill-opacity="0.200000" stroke="#000000" stroke-width="2" stroke-opacity="0.200000" points="606.48,-431.31 604.38,-425.31 602.28,-431.31 606.48,-431.31"/>
</g>
<!-- src/formatters/regex.ts&#45;&gt;types/watskeburt.d.ts -->
<g id="edge25" class="edge">
<title>src/formatters/regex.ts&#45;&gt;types/watskeburt.d.ts</title>
<path fill="none" stroke="#000000" stroke-width="2" stroke-opacity="0.200000" d="M508.38,-457.98C508.38,-444.38 508.38,-420.21 508.38,-420.21 508.38,-420.21 556.38,-420.21 556.38,-420.21"/>
<polygon fill="#000000" fill-opacity="0.200000" stroke="#000000" stroke-width="2" stroke-opacity="0.200000" points="556.38,-422.31 562.38,-420.21 556.38,-418.11 556.38,-422.31"/>
</g>
<!-- src/formatters/json.spec.ts -->
<g id="node22" class="node">
<title>src/formatters/json.spec.ts</title>
<g id="a_node22"><a xlink:href="vscode://file/${process.cwd()}/src/formatters/json.spec.ts" xlink:title="json.spec.ts">
<path fill="#ccccff" stroke="black" d="M421.21,-505.88C421.21,-505.88 369.04,-505.88 369.04,-505.88 366.08,-505.88 363.12,-502.92 363.12,-499.96 363.12,-499.96 363.12,-494.04 363.12,-494.04 363.12,-491.08 366.08,-488.12 369.04,-488.12 369.04,-488.12 421.21,-488.12 421.21,-488.12 424.17,-488.12 427.12,-491.08 427.12,-494.04 427.12,-494.04 427.12,-499.96 427.12,-499.96 427.12,-502.92 424.17,-505.88 421.21,-505.88"/>
<text text-anchor="start" x="371.12" y="-493.32" font-family="Helvetica,sans-Serif" font-size="9.00">json.spec.ts</text>
</a>
</g>
</g>
<!-- src/formatters/json.spec.ts&#45;&gt;src/formatters/json.ts -->
<g id="edge21" class="edge">
<title>src/formatters/json.spec.ts&#45;&gt;src/formatters/json.ts</title>
<path fill="none" stroke="#000000" stroke-width="2" stroke-opacity="0.200000" d="M427.59,-499.96C427.59,-499.96 462.15,-499.96 462.15,-499.96"/>
<polygon fill="#000000" fill-opacity="0.200000" stroke="#000000" stroke-width="2" stroke-opacity="0.200000" points="462.15,-502.06 468.15,-499.96 462.15,-497.86 462.15,-502.06"/>
</g>
<!-- src/formatters/regex.spec.ts -->
<g id="node23" class="node">
<title>src/formatters/regex.spec.ts</title>
<g id="a_node23"><a xlink:href="vscode://file/${process.cwd()}/src/formatters/regex.spec.ts" xlink:title="regex.spec.ts">
<path fill="#ccccff" stroke="black" d="M424.21,-445.88C424.21,-445.88 366.04,-445.88 366.04,-445.88 363.08,-445.88 360.12,-442.92 360.12,-439.96 360.12,-439.96 360.12,-434.04 360.12,-434.04 360.12,-431.08 363.08,-428.12 366.04,-428.12 366.04,-428.12 424.21,-428.12 424.21,-428.12 427.17,-428.12 430.12,-431.08 430.12,-434.04 430.12,-434.04 430.12,-439.96 430.12,-439.96 430.12,-442.92 427.17,-445.88 424.21,-445.88"/>
<text text-anchor="start" x="368.12" y="-433.32" font-family="Helvetica,sans-Serif" font-size="9.00">regex.spec.ts</text>
</a>
</g>
</g>
<!-- src/formatters/regex.spec.ts&#45;&gt;types/watskeburt.d.ts -->
<g id="edge23" class="edge">
<title>src/formatters/regex.spec.ts&#45;&gt;types/watskeburt.d.ts</title>
<path fill="none" stroke="#000000" stroke-width="2" stroke-opacity="0.200000" d="M395.38,-427.88C395.38,-422.55 395.38,-416.88 395.38,-416.88 395.38,-416.88 556.25,-416.88 556.25,-416.88"/>
<polygon fill="#000000" fill-opacity="0.200000" stroke="#000000" stroke-width="2" stroke-opacity="0.200000" points="556.25,-418.98 562.25,-416.88 556.25,-414.78 556.25,-418.98"/>
</g>
<!-- src/formatters/regex.spec.ts&#45;&gt;src/formatters/regex.ts -->
<g id="edge24" class="edge">
<title>src/formatters/regex.spec.ts&#45;&gt;src/formatters/regex.ts</title>
<path fill="none" stroke="#000000" stroke-width="2" stroke-opacity="0.200000" d="M430.59,-437C457.67,-437 490.38,-437 490.38,-437 490.38,-437 490.38,-448.84 490.38,-448.84"/>
<polygon fill="#000000" fill-opacity="0.200000" stroke="#000000" stroke-width="2" stroke-opacity="0.200000" points="488.28,-448.84 490.38,-454.84 492.48,-448.84 488.28,-448.84"/>
</g>
<!-- src/git&#45;primitives&#45;sync.spec.ts -->
<g id="node24" class="node">
<title>src/git&#45;primitives&#45;sync.spec.ts</title>
<g id="a_node24"><a xlink:href="vscode://file/${process.cwd()}/src/git-primitives-sync.spec.ts" xlink:title="git&#45;primitives&#45;sync.spec.ts">
<path fill="#ccccff" stroke="black" d="M298.46,-381.88C298.46,-381.88 190.04,-381.88 190.04,-381.88 187.08,-381.88 184.12,-378.92 184.12,-375.96 184.12,-375.96 184.12,-370.04 184.12,-370.04 184.12,-367.08 187.08,-364.12 190.04,-364.12 190.04,-364.12 298.46,-364.12 298.46,-364.12 301.42,-364.12 304.38,-367.08 304.38,-370.04 304.38,-370.04 304.38,-375.96 304.38,-375.96 304.38,-378.92 301.42,-381.88 298.46,-381.88"/>
<text text-anchor="start" x="192.12" y="-369.32" font-family="Helvetica,sans-Serif" font-size="9.00">git&#45;primitives&#45;sync.spec.ts</text>
</a>
</g>
</g>
<!-- src/git&#45;primitives&#45;sync.spec.ts&#45;&gt;src/git&#45;primitives&#45;sync.ts -->
<g id="edge26" class="edge">
<title>src/git&#45;primitives&#45;sync.spec.ts&#45;&gt;src/git&#45;primitives&#45;sync.ts</title>
<path fill="none" stroke="#000000" stroke-width="2" stroke-opacity="0.200000" d="M304.75,-373C304.75,-373 336.73,-373 336.73,-373"/>
<polygon fill="#000000" fill-opacity="0.200000" stroke="#000000" stroke-width="2" stroke-opacity="0.200000" points="336.73,-375.1 342.73,-373 336.73,-370.9 336.73,-375.1"/>
</g>
<!-- src/git&#45;primitives.spec.ts -->
<g id="node26" class="node">
<title>src/git&#45;primitives.spec.ts</title>
<g id="a_node26"><a xlink:href="vscode://file/${process.cwd()}/src/git-primitives.spec.ts" xlink:title="git&#45;primitives.spec.ts">
<path fill="#ccccff" stroke="black" d="M287.58,-291.88C287.58,-291.88 200.92,-291.88 200.92,-291.88 197.96,-291.88 195,-288.92 195,-285.96 195,-285.96 195,-280.04 195,-280.04 195,-277.08 197.96,-274.12 200.92,-274.12 200.92,-274.12 287.58,-274.12 287.58,-274.12 290.54,-274.12 293.5,-277.08 293.5,-280.04 293.5,-280.04 293.5,-285.96 293.5,-285.96 293.5,-288.92 290.54,-291.88 287.58,-291.88"/>
<text text-anchor="start" x="203" y="-279.32" font-family="Helvetica,sans-Serif" font-size="9.00">git&#45;primitives.spec.ts</text>
</a>
</g>
</g>
<!-- src/git&#45;primitives.spec.ts&#45;&gt;src/git&#45;primitives.ts -->
<g id="edge27" class="edge">
<title>src/git&#45;primitives.spec.ts&#45;&gt;src/git&#45;primitives.ts</title>
<path fill="none" stroke="#000000" stroke-width="2" stroke-opacity="0.200000" d="M283.38,-292.35C283.38,-307.72 283.38,-336.66 283.38,-336.66 283.38,-336.66 347.35,-336.66 347.35,-336.66"/>
<polygon fill="#000000" fill-opacity="0.200000" stroke="#000000" stroke-width="2" stroke-opacity="0.200000" points="347.35,-338.76 353.35,-336.66 347.35,-334.56 347.35,-338.76"/>
</g>
</g>
</svg>
